<?xml version="1.0" encoding="utf-8"?>
<!-- Generator: Adobe Illustrator 16.0.0, SVG Export Plug-In . SVG Version: 6.00 Build 0)  -->
<!DOCTYPE svg PUBLIC "-//W3C//DTD SVG 1.1//EN" "http://www.w3.org/Graphics/SVG/1.1/DTD/svg11.dtd">
<svg version="1.1" xmlns="http://www.w3.org/2000/svg" xmlns:xlink="http://www.w3.org/1999/xlink" x="0px" y="0px" width="720px"
	 height="200px" viewBox="0 0 720 200" enable-background="new 0 0 720 200" xml:space="preserve">
<g id="Layer_2" display="none">
	<rect display="inline" fill="#1E76BA" width="720" height="200"/>
</g>
<g id="Layer_1">
	<path opacity="0.4" fill="#F2F2F2" d="M106.149,95.012c2.598,2.621,3.899,7.068,3.899,13.343c0,6.227-1.536,10.987-4.607,14.283
		c3.537-3.307,5.307-8.3,5.307-14.983c0-6.274-1.3-10.723-3.898-13.343c-2.596-2.62-7.023-3.931-13.28-3.931h-7.528v0.701h6.829
		C99.126,91.081,103.553,92.391,106.149,95.012z M156.915,115.51c2.398,3.831,3.598,9.587,3.598,17.271
		c0,7.752-1.2,13.565-3.598,17.442c-0.469,0.756-0.983,1.437-1.543,2.045c0.839-0.771,1.587-1.685,2.244-2.745
		c2.399-3.877,3.599-9.69,3.599-17.442c0-7.685-1.2-13.441-3.599-17.272c-2.4-3.83-6.011-5.745-10.832-5.745
		c-3.901,0-7.012,1.265-9.335,3.795c2.236-2.062,5.113-3.096,8.634-3.096C150.905,109.763,154.514,111.68,156.915,115.51z
		 M175.989,112.075c0.444,0.608,0.665,2.428,0.665,5.458v30.735c0,2.69-0.18,4.429-0.538,5.221c0.25-0.133,0.437-0.28,0.557-0.445
		c0.455-0.622,0.682-2.446,0.682-5.475v-30.737c0-3.029-0.222-4.848-0.665-5.457c-0.442-0.61-1.823-1.006-4.14-1.188l-0.647-0.032
		v-2.47h-0.7v3.17l0.648,0.034C174.167,111.068,175.547,111.465,175.989,112.075z M197.424,136.973
		c2.191,2.01,3.287,4.65,3.287,7.923c0,2.731-0.759,4.948-2.274,6.649c0.179-0.159,0.353-0.324,0.521-0.501
		c1.637-1.727,2.453-4.01,2.453-6.85c0-3.271-1.095-5.911-3.288-7.922c-2.191-2.011-5.048-3.017-8.57-3.017h-2.112v0.7h1.412
		C192.374,133.956,195.231,134.963,197.424,136.973z M198.838,131.4c3.221-1.309,5.697-2.895,7.435-4.755
		c-1.958,1.817-4.68,3.354-8.167,4.601C198.355,131.295,198.597,131.348,198.838,131.4z M196.418,113.38
		c1.681,1.569,2.521,3.925,2.521,7.065c0,3.166-0.734,5.593-2.199,7.281c0.129-0.113,0.256-0.23,0.377-0.353
		c1.682-1.696,2.521-4.239,2.521-7.629c0-3.14-0.84-5.496-2.521-7.066c-1.681-1.569-4.202-2.354-7.564-2.354h-2.112v0.7h1.412
		C192.215,111.024,194.736,111.81,196.418,113.38z M72.906,92.73c0.804,0.923,1.204,3.795,1.204,8.619v51.447
		c0,4.408-0.337,7.193-1.01,8.356c0.212-0.131,0.381-0.271,0.506-0.419c0.803-0.946,1.205-3.824,1.205-8.638v-51.448
		c0-4.822-0.401-7.695-1.205-8.618c-0.8-0.923-3.36-1.527-7.674-1.811l-1.016-0.106v-2.615h-0.7v3.316l1.017,0.104
		C69.546,91.204,72.105,91.807,72.906,92.73z M128.024,151.572c-4.565-4.737-6.848-11.194-6.848-19.372
		c0-8.148,2.255-14.581,6.763-19.298c-0.208,0.198-0.414,0.401-0.615,0.609c-4.566,4.726-6.849,11.188-6.849,19.388
		c0,8.18,2.282,14.637,6.849,19.373c4.566,4.736,10.813,7.104,18.741,7.104c7.906,0,14.142-2.367,18.708-7.104
		c0.023-0.024,0.045-0.05,0.069-0.075c-4.504,4.319-10.529,6.479-18.076,6.479C138.838,158.677,132.591,156.309,128.024,151.572z
		 M208.022,154.264c-2.771,2.101-6.939,3.151-12.505,3.151h-23.614v-2.506c-0.018,0.001-0.035,0.003-0.052,0.004l-0.648,0.034v3.169
		h23.614c5.566,0,9.734-1.051,12.506-3.151c0.529-0.402,1.006-0.842,1.435-1.318C208.523,153.86,208.281,154.068,208.022,154.264z
		 M106.215,128.978c3.971-1.496,7.168-3.518,9.59-6.064c-2.527,2.409-5.801,4.311-9.827,5.703L106.215,128.978z M64.916,163.294
		l-0.7,0.037v3.315h29.627v-0.699H64.916V163.294z M95.106,131.078h-9.173v0.701h8.474l21.47,34.867h20.179v-0.699h-19.479
		L95.106,131.078z"/>
	<g>
		<path opacity="0.4" fill="#F2F2F2" d="M77.919,40.149c0.11,0.096,0.199,0.746,0.27,1.949l0.026,0.249h1.452v-0.276H78.49
			l-0.026-0.249c-0.07-1.204-0.159-1.854-0.269-1.949c-0.108-0.096-0.808-0.145-2.099-0.145h-4.227v0.276h3.95
			C77.111,40.005,77.811,40.054,77.919,40.149z M78.659,56.752c0.054-0.018,0.096-0.037,0.125-0.058
			c0.212-0.15,0.348-0.79,0.41-1.916h-0.261l-0.012,0.235C78.875,55.869,78.788,56.448,78.659,56.752z M61.445,40.238
			c0.196,0.226,0.294,0.929,0.294,2.109v5.076h0.276v-5.352c0-1.181-0.099-1.884-0.294-2.11c-0.197-0.225-0.827-0.373-1.892-0.442
			l-0.235-0.025v-0.535h-0.275v0.812l0.235,0.025C60.618,39.866,61.249,40.013,61.445,40.238z M76.586,48.986
			c0.178,0.126,0.284,0.517,0.319,1.175l0.014,0.234h1.046v-0.276h-0.769l-0.014-0.234c-0.035-0.657-0.142-1.048-0.32-1.174
			c-0.179-0.125-0.661-0.189-1.446-0.189h-3.546v0.276h3.271C75.925,48.798,76.407,48.861,76.586,48.986z M66.666,39.794
			l0.007,0.001c1.056,0.07,1.682,0.218,1.879,0.443c0.195,0.226,0.294,0.929,0.294,2.109v12.588c0,1.004-0.072,1.663-0.215,1.979
			c0.086-0.043,0.152-0.09,0.196-0.142c0.196-0.231,0.294-0.936,0.294-2.113V42.072c0-1.181-0.098-1.884-0.294-2.11
			c-0.197-0.225-0.822-0.373-1.878-0.442l-0.007-0.001l-0.007,0.001c-1.064,0.07-1.692,0.218-1.885,0.442
			c-0.028,0.035-0.055,0.081-0.08,0.137c0.3-0.148,0.862-0.25,1.688-0.304L66.666,39.794z M49.486,40.238
			c0.196,0.226,0.294,0.929,0.294,2.109v12.588c0,1.004-0.072,1.663-0.215,1.979c0.087-0.043,0.152-0.09,0.196-0.142
			c0.196-0.231,0.295-0.936,0.295-2.113V42.072c0-1.181-0.099-1.884-0.295-2.11c-0.196-0.225-0.822-0.373-1.878-0.442l-0.249-0.025
			v-0.535h-0.065v0.833l0.039,0.004C48.663,39.866,49.29,40.013,49.486,40.238z M76.759,47.372c0.04-0.01,0.075-0.021,0.103-0.034
			c0.175-0.082,0.28-0.481,0.316-1.196h-0.259l-0.014,0.235C76.884,46.834,76.835,47.165,76.759,47.372z M61.739,54.936
			c0,1.008-0.069,1.669-0.208,1.983c0.087-0.043,0.153-0.089,0.196-0.14c0.191-0.228,0.288-0.934,0.288-2.12v-6.111h-9.212v0.276
			h8.936V54.936z M47.634,57.498c-0.008,0-0.018,0.001-0.026,0.002l-0.25,0.013v0.811h7.589v-0.276h-7.313V57.498z M46.182,41.967
			c-0.026-0.322-0.039-0.707-0.039-1.151c0-0.593-0.174-0.916-0.523-0.968c-0.55-0.079-1.182-0.119-1.895-0.119h-3.091v0.276h2.815
			c0.713,0,1.344,0.04,1.894,0.118c0.349,0.053,0.523,0.375,0.523,0.969c0,0.445,0.013,0.829,0.04,1.151l0.013,0.262h1.374v-0.276
			h-1.098L46.182,41.967z M59.594,58.048v-0.551c-0.014,0.001-0.026,0.002-0.041,0.003l-0.235,0.013v0.811h21.067v-0.276H59.594z
			 M54.947,39.771v-0.249c-1.047,0.071-1.666,0.218-1.855,0.44c-0.029,0.035-0.056,0.081-0.08,0.137
			c0.3-0.148,0.863-0.25,1.688-0.304L54.947,39.771z M30.951,38.959h-0.276v3.545h1.375l0.012-0.262c0-0.004,0-0.01,0.001-0.014
			h-1.112V38.959z M37.61,54.936c0,1.004-0.078,1.667-0.231,1.987c0.087-0.045,0.153-0.095,0.2-0.15
			c0.205-0.249,0.308-0.954,0.308-2.113v-14.93h-3.088c-0.724,0-1.357,0.04-1.897,0.119c-0.191,0.028-0.329,0.135-0.419,0.317
			c0.045-0.019,0.091-0.034,0.143-0.042c0.541-0.078,1.173-0.118,1.898-0.118h3.088V54.936z M35.151,57.506l-0.276,0.007v0.811h8.23
			v-0.276h-7.955V57.506z"/>
		<g>
			<path fill="#FFFFFF" d="M38.301,39.315h-3.089c-0.724,0-1.357,0.04-1.896,0.119c-0.358,0.052-0.537,0.375-0.537,0.968
				c0,0.445-0.008,0.829-0.026,1.152l-0.013,0.261h-1.375v-3.545h16.618v3.545h-1.374l-0.012-0.261
				c-0.026-0.323-0.039-0.707-0.039-1.152c0-0.593-0.175-0.916-0.524-0.968c-0.55-0.079-1.181-0.119-1.894-0.119h-3.092v14.93
				c0,1.16,0.105,1.864,0.314,2.113c0.21,0.249,0.833,0.399,1.872,0.452l0.563,0.012v0.812h-8.231v-0.812l0.563-0.012
				c1.038-0.053,1.659-0.203,1.864-0.452s0.309-0.953,0.309-2.113V39.315z"/>
			<path fill="#FFFFFF" d="M53.217,48.134v6.111c0,1.177,0.097,1.882,0.288,2.113c0.192,0.231,0.821,0.382,1.885,0.452l0.248,0.012
				v0.812h-7.588v-0.812l0.249-0.012c1.056-0.07,1.682-0.221,1.877-0.452c0.196-0.231,0.295-0.936,0.295-2.113V41.658
				c0-1.18-0.099-1.883-0.295-2.109c-0.196-0.226-0.822-0.374-1.877-0.444l-0.249-0.024v-0.812h7.588v0.812l-0.248,0.024
				c-1.064,0.07-1.693,0.218-1.885,0.444c-0.191,0.226-0.288,0.929-0.288,2.109v5.352h9.212v-5.352c0-1.18-0.099-1.883-0.295-2.109
				c-0.196-0.226-0.826-0.374-1.891-0.444l-0.235-0.024v-0.812h7.589v0.812l-0.249,0.024c-1.065,0.07-1.692,0.218-1.884,0.444
				s-0.289,0.929-0.289,2.109v12.587c0,1.177,0.097,1.882,0.289,2.113c0.192,0.231,0.819,0.382,1.884,0.452l0.249,0.012v0.812
				h-7.589v-0.812l0.235-0.012c1.074-0.07,1.706-0.219,1.897-0.445s0.289-0.933,0.289-2.12v-6.111H53.217z"/>
			<path fill="#FFFFFF" d="M81.077,57.634H67.115v-0.812l0.249-0.012c1.055-0.07,1.681-0.221,1.877-0.452
				c0.197-0.231,0.295-0.936,0.295-2.113V41.658c0-1.18-0.098-1.883-0.295-2.109s-0.822-0.374-1.877-0.444l-0.249-0.024v-0.812
				h13.241v3.389h-1.451l-0.026-0.249c-0.07-1.204-0.16-1.853-0.269-1.949c-0.108-0.096-0.808-0.145-2.099-0.145h-4.228v7.747
				l3.546-0.013c0.785,0,1.268-0.042,1.446-0.124c0.179-0.083,0.285-0.496,0.32-1.237l0.014-0.235h1.045v4.252h-1.045l-0.014-0.234
				c-0.035-0.657-0.142-1.048-0.32-1.174c-0.179-0.125-0.661-0.188-1.446-0.188h-3.546v6.137c0,1.012,0.121,1.642,0.36,1.891
				c0.24,0.248,0.862,0.373,1.865,0.373h2.067c1.536,0,2.41-0.076,2.623-0.229c0.215-0.152,0.352-0.804,0.413-1.956l0.013-0.236
				h1.453V57.634z"/>
		</g>
	</g>
	<path opacity="0.4" fill="#F2F2F2" d="M158.645,35.278c0,4.363-1.205,7.836-3.609,10.422c0.146-0.135,0.292-0.272,0.433-0.414
		c2.585-2.614,3.877-6.183,3.877-10.708c0-8.095-3.99-12.143-11.973-12.143h-4.723v0.701h4.022
		C154.654,23.136,158.645,27.183,158.645,35.278z M167.13,47.452c-1.78,1.684-4.004,3.07-6.683,4.156l0.22,0.305
		C163.287,50.736,165.442,49.249,167.13,47.452z M65.111,19.003h-0.7v12.986h6.24l0.025-0.7h-5.565V19.003z M79.953,77.442
		l-0.701,0.04v3.92h28.627v-0.7H79.953V77.442z M128.646,24.436c0.549,0.754,0.823,3.005,0.823,6.752v38.029
		c0,3.45-0.238,5.634-0.715,6.56c0.25-0.146,0.443-0.309,0.573-0.486c0.562-0.768,0.843-3.027,0.843-6.774V30.488
		c0-3.748-0.274-5.999-0.824-6.753c-0.547-0.755-2.254-1.245-5.121-1.469l-0.801-0.042v-3.22h-0.004v3.958l0.105,0.006
		C126.392,23.19,128.099,23.68,128.646,24.436z M87.052,69.217c0,3.346-0.25,5.498-0.747,6.46c0.214-0.119,0.38-0.248,0.498-0.386
		c0.632-0.741,0.948-2.999,0.948-6.774V22.435h-10.16c-2.614,0-4.294,0.359-5.038,1.076c-0.106,0.102-0.206,0.238-0.297,0.401
		c0.873-0.517,2.417-0.776,4.636-0.776h10.16V69.217z M342.207,24.436c0.547,0.754,0.82,3.005,0.82,6.752v14.478h0.702V30.488
		c0-3.748-0.273-5.999-0.822-6.753c-0.548-0.755-2.256-1.245-5.122-1.469l-0.802-0.042v-3.22h-0.701v3.92l0.803,0.043
		C339.951,23.19,341.659,23.68,342.207,24.436z M362.743,22.266c-2.895,0.224-4.616,0.713-5.164,1.469
		c-0.046,0.062-0.088,0.137-0.13,0.22c0.839-0.486,2.368-0.816,4.594-0.987l0.759-0.043v-0.66L362.743,22.266z M324.015,22.924
		v-0.66l-0.059,0.002c-2.896,0.224-4.618,0.713-5.166,1.469c-0.045,0.062-0.087,0.137-0.127,0.22
		c0.838-0.486,2.367-0.816,4.593-0.987L324.015,22.924z M343.027,69.217c0,3.45-0.238,5.634-0.714,6.56
		c0.25-0.146,0.442-0.309,0.572-0.486c0.562-0.768,0.844-3.027,0.844-6.774V50.093h-25.761v0.7h25.059V69.217z M303.418,24.436
		c0.549,0.754,0.822,3.005,0.822,6.752v38.029c0,3.45-0.238,5.634-0.715,6.56c0.25-0.146,0.443-0.309,0.572-0.486
		c0.562-0.768,0.843-3.027,0.843-6.774V30.488c0-3.748-0.274-5.999-0.822-6.753c-0.548-0.755-2.257-1.245-5.122-1.469l-0.801-0.042
		v-3.22h-0.005v3.958l0.104,0.006C301.161,23.19,302.87,23.68,303.418,24.436z M336.983,77.444l-0.701,0.038v3.92h26.52v-0.7
		h-25.818V77.444z M232.334,23.735c-0.042,0.058-0.081,0.129-0.119,0.206c0.826-0.479,2.316-0.803,4.479-0.973l0.758-0.043v-0.66
		l-0.058,0.002C234.556,22.49,232.869,22.979,232.334,23.735z M262.505,69.99c0.011-0.463,0.019-0.952,0.019-1.473V22.435h-10.16
		c-2.615,0-4.295,0.359-5.04,1.076c-0.106,0.102-0.204,0.238-0.296,0.401c0.872-0.517,2.416-0.776,4.636-0.776h10.16v46.082
		c0,0.521-0.007,1.01-0.02,1.473h13.129c-0.014-0.227-0.027-0.46-0.041-0.7H262.505z M239.883,19.003h-0.702v12.986h6.241l0.024-0.7
		h-5.564V19.003z M291.909,30.108c-0.028-3.682-0.414-5.881-1.159-6.597c-0.745-0.717-2.424-1.076-5.038-1.076h-10.16v0.701h9.46
		c2.615,0,4.293,0.358,5.038,1.075c0.746,0.716,1.13,2.916,1.159,6.598l0.043,1.181h6.238v-0.7h-5.538L291.909,30.108z
		 M298.195,77.444l-0.7,0.038v3.92h26.52v-0.7h-25.819V77.444z M196.819,23.735c-0.045,0.062-0.089,0.139-0.13,0.221
		c0.838-0.486,2.364-0.817,4.584-0.988l0.764-0.043v-0.661l-0.064,0.003C199.088,22.49,197.371,22.979,196.819,23.735z
		 M123.425,77.444l-0.7,0.038v3.92h19.206v-0.7h-18.506V77.444z M225.293,57.134V30.488c0-3.748-0.274-5.999-0.822-6.753
		c-0.547-0.755-2.27-1.245-5.165-1.469l-0.759-0.042v-3.22h-0.7v3.92l0.758,0.043c2.896,0.223,4.618,0.712,5.165,1.468
		c0.549,0.754,0.822,3.005,0.822,6.752v26.646c0,5.354-0.648,9.638-1.945,12.856h6.033c0.088-0.229,0.175-0.463,0.256-0.7h-5.588
		C224.645,66.772,225.293,62.488,225.293,57.134z M158.523,69.99l-10.519-16.651h-5.355v0.701h4.655l10.519,16.65h15.148
		c-0.17-0.227-0.346-0.46-0.525-0.7H158.523z M185.291,69.99c-1.549-3.565-2.326-7.906-2.326-13.025V30.783
		c0-3.766-0.282-6.043-0.844-6.83c-0.562-0.787-2.262-1.265-5.101-1.433l-0.801-0.085v-3.432h-0.7v4.132l0.8,0.084
		c2.84,0.168,4.54,0.646,5.102,1.433c0.562,0.787,0.845,3.064,0.845,6.831v26.182c0,5.119,0.776,9.46,2.326,13.025h12.251
		c-0.075-0.228-0.147-0.462-0.217-0.7H185.291z M117.139,30.108c-0.028-3.682-0.415-5.881-1.159-6.597
		c-0.745-0.717-2.424-1.076-5.038-1.076h-10.16v0.701h9.459c2.614,0,4.293,0.358,5.039,1.075c0.745,0.716,1.132,2.916,1.16,6.598
		l0.042,1.181h6.239v-0.7h-5.54L117.139,30.108z"/>
	<path fill="#FFFFFF" d="M219.423,21.349l0.759,0.042c2.896,0.224,4.617,0.712,5.166,1.468c0.548,0.754,0.822,3.006,0.822,6.753
		v26.646c0,5.354-0.649,9.639-1.945,12.856h6.032c1.436-3.721,2.154-8.343,2.154-13.868V29.612c0-3.747,0.267-5.999,0.8-6.753
		c0.535-0.756,2.221-1.245,5.061-1.468l0.758-0.042v-3.921h-19.605V21.349z M65.988,30.413h6.239l0.042-1.18
		c0.029-3.682,0.415-5.882,1.16-6.597c0.745-0.717,2.424-1.076,5.039-1.076h10.161v46.082c0,3.776-0.317,6.034-0.949,6.775
		c-0.632,0.741-2.663,1.223-6.092,1.447l-0.759,0.042v3.921h28.627v-3.921l-0.759-0.042c-3.599-0.253-5.62-0.648-6.072-1.181
		c-0.45-0.534-0.772-2.895-0.969-7.083V21.56h10.161c2.614,0,4.293,0.359,5.039,1.076c0.744,0.715,1.132,2.916,1.159,6.597
		l0.042,1.18h6.239V17.427H65.988V30.413z M177.094,21.56l0.8,0.084c2.84,0.168,4.54,0.646,5.101,1.433
		c0.562,0.787,0.845,3.064,0.845,6.831V56.09c0,5.119,0.775,9.46,2.326,13.024h12.251c-1.034-3.11-1.551-7.283-1.551-12.518V29.612
		c0-3.747,0.275-5.999,0.827-6.753c0.552-0.756,2.271-1.245,5.155-1.468l0.764-0.042v-3.921h-26.519V21.56z M240.757,30.413h6.241
		l0.042-1.18c0.03-3.682,0.415-5.882,1.159-6.597c0.745-0.717,2.425-1.076,5.041-1.076h10.159v46.082
		c0,0.521-0.007,1.009-0.019,1.473h13.129c-0.03-0.475-0.058-0.98-0.083-1.515V21.56h10.162c2.614,0,4.293,0.359,5.037,1.076
		c0.745,0.715,1.132,2.916,1.16,6.597l0.042,1.18h6.239V17.427h-58.309V30.413z M161.323,50.731c4.018-1.628,7.023-3.93,9.018-6.905
		c1.994-2.974,2.992-6.609,2.992-10.905c0-10.525-6.437-15.789-19.31-15.789l-3.837,0.084l-7.717,0.21h-18.17v3.921l0.801,0.042
		c2.867,0.224,4.574,0.712,5.122,1.468c0.548,0.754,0.822,3.006,0.822,6.753v38.029c0,3.748-0.28,6.005-0.842,6.775
		c-0.563,0.77-2.264,1.253-5.102,1.447l-0.801,0.042v3.921h19.207V69.114h0.034c-0.01-0.463-0.015-0.953-0.015-1.473V52.464h5.354
		l10.519,16.65h15.148c-0.33-0.438-0.677-0.901-1.04-1.391L161.323,50.731z M156.342,44.41c-2.585,2.615-6.084,3.922-10.498,3.922
		h-2.319V21.56h4.722c7.983,0,11.974,4.048,11.974,12.142C160.221,38.227,158.929,41.797,156.342,44.41z M358.453,22.859
		c0.549-0.756,2.271-1.245,5.165-1.468l0.759-0.042v-3.921h-26.52v3.921l0.803,0.042c2.867,0.224,4.574,0.712,5.122,1.468
		c0.547,0.754,0.821,3.006,0.821,6.753v15.178h-25.759V29.612c0-3.747,0.273-5.999,0.821-6.753c0.549-0.756,2.271-1.245,5.166-1.468
		l0.759-0.042v-3.921H299.07v3.921l0.801,0.042c2.867,0.224,4.574,0.712,5.122,1.468c0.549,0.754,0.823,3.006,0.823,6.753v38.029
		c0,3.748-0.282,6.005-0.844,6.775c-0.562,0.77-2.262,1.253-5.102,1.447l-0.801,0.042v3.921h26.521v-3.921l-0.759-0.042
		c-2.869-0.194-4.583-0.678-5.145-1.447c-0.562-0.77-0.843-3.027-0.843-6.775V49.218h25.759v18.424c0,3.748-0.28,6.005-0.842,6.775
		c-0.562,0.77-2.263,1.253-5.102,1.447l-0.803,0.042v3.921h26.52v-3.921l-0.759-0.042c-2.867-0.194-4.581-0.678-5.143-1.447
		c-0.562-0.77-0.844-3.027-0.844-6.775V29.612C357.632,25.865,357.905,23.614,358.453,22.859z"/>
	<path opacity="0.4" fill="#F2F2F2" d="M258.331,112.802c0.469,0.395,0.848,3.066,1.138,8.019l0.054,1.022h5.974v-0.701h-5.273
		l-0.054-1.022c-0.29-4.951-0.669-7.622-1.138-8.02c-0.469-0.394-3.355-0.591-8.657-0.591H233.69v0.7h15.983
		C254.976,112.209,257.862,112.406,258.331,112.802z M344.865,145.56c-1.456,1.358-3.269,2.48-5.442,3.361l0.216,0.303
		C341.756,148.251,343.499,147.031,344.865,145.56z M291.944,167.675c0.854-0.785,1.616-1.718,2.284-2.798
		c2.45-3.958,3.677-9.896,3.677-17.815c0-7.848-1.227-13.728-3.677-17.64c-2.45-3.913-6.138-5.869-11.062-5.869
		c-3.979,0-7.153,1.29-9.525,3.866c2.284-2.11,5.226-3.167,8.825-3.167c4.925,0,8.612,1.958,11.062,5.87
		c2.451,3.912,3.677,9.792,3.677,17.64c0,7.919-1.226,13.857-3.677,17.815C293.048,166.353,292.52,167.052,291.944,167.675z
		 M313.174,168.922c0.25-0.134,0.438-0.283,0.561-0.448c0.461-0.637,0.694-2.5,0.694-5.595v-31.392c0-3.092-0.227-4.95-0.679-5.574
		c-0.453-0.623-1.862-1.027-4.228-1.212l-0.662-0.036v-2.535h-0.7v3.236l0.662,0.035c2.365,0.186,3.775,0.589,4.227,1.213
		c0.454,0.623,0.68,2.481,0.68,5.574v31.393C313.729,166.34,313.542,168.118,313.174,168.922z M355.688,115.536h14.573v-0.008h8.987
		c5.787,0.631,10.055,2.515,12.795,5.655c3.432,3.929,5.147,10.57,5.147,19.924c0,9.38-1.545,16.416-4.634,21.106
		c-0.538,0.815-1.123,1.559-1.753,2.231c0.904-0.847,1.723-1.822,2.453-2.932c3.089-4.69,4.634-11.727,4.634-21.106
		c0-9.354-1.715-15.995-5.146-19.924c-2.741-3.14-7.008-5.024-12.796-5.657h-8.987v0.011h-14.573
		c-0.011-0.003-0.021-0.007-0.032-0.011h-84.707v-3.737h-0.701v4.439h84.707C355.668,115.53,355.678,115.533,355.688,115.536z
		 M357.74,168.102c0.27-0.16,0.474-0.34,0.606-0.537c0.514-0.771,0.771-3.034,0.771-6.79v-38.115c0-0.093-0.001-0.184-0.001-0.274
		h-0.707c0.005,0.315,0.008,0.637,0.008,0.975v38.114C358.417,164.993,358.191,167.203,357.74,168.102z M264.007,166.97
		c-4.663-4.838-6.995-11.433-6.995-19.786c0-8.326,2.305-14.897,6.913-19.716c-0.209,0.2-0.416,0.404-0.618,0.613
		c-4.664,4.827-6.995,11.428-6.995,19.803c0,8.354,2.331,14.948,6.995,19.786c4.663,4.838,11.044,7.257,19.142,7.257
		c8.073,0,14.443-2.419,19.106-7.257c0.023-0.023,0.044-0.046,0.065-0.069c-4.601,4.416-10.758,6.626-18.472,6.626
		C275.051,174.227,268.67,171.808,264.007,166.97z M383.641,172.986h-30.696v-0.049h-9.524l-14.27-22.586h-4.42v0.7h3.721
		l14.27,22.586h9.522v0.049h30.696c7.433,0,13.497-2.446,18.191-7.336C396.538,170.772,390.709,172.986,383.641,172.986z
		 M335.311,143.703c2.134-2.157,3.202-5.104,3.202-8.839c0-6.682-3.295-10.024-9.884-10.024h-3.898v0.7h3.197
		c6.59,0,9.885,3.342,9.885,10.023c0,3.567-0.976,6.413-2.922,8.541C335.033,143.976,335.174,143.842,335.311,143.703z
		 M248.274,148.213H233.69v0.701h13.884c1.766,0,3.153,0.077,4.167,0.234c-0.008-0.263-0.012-0.526-0.016-0.792
		C250.804,148.262,249.657,148.213,248.274,148.213z M308.86,170.363c-0.013,0.002-0.025,0.003-0.038,0.004l-0.662,0.035v3.235
		h20.604v-0.7H308.86V170.363z M220.477,113.169c0.807,0.929,1.21,3.818,1.21,8.674v51.773c0,4.44-0.339,7.243-1.017,8.412
		c0.212-0.132,0.381-0.272,0.507-0.421c0.807-0.95,1.21-3.848,1.21-8.691v-51.774c0-4.854-0.403-7.745-1.21-8.675
		c-0.808-0.927-3.383-1.533-7.724-1.82l-1.023-0.107v-2.636h-0.7v3.337l1.022,0.107
		C217.094,111.633,219.669,112.239,220.477,113.169z M212.431,184.181l-0.7,0.038v3.336h32.561v-0.7h-31.861V184.181z"/>
	<path opacity="0.4" fill="#F2F2F2" d="M188.386,95.067c0,1.523-0.451,2.775-1.351,3.756c0.065-0.06,0.13-0.121,0.192-0.184
		c0.995-1.002,1.493-2.306,1.493-3.907c0-4.494-2.8-6.741-8.397-6.741v0.339C185.696,88.419,188.386,90.664,188.386,95.067z
		 M175.808,76.518c0.271,0.316,0.41,1.294,0.41,2.937v17.525c0,1.433-0.105,2.361-0.313,2.789c0.104-0.056,0.182-0.116,0.238-0.181
		c0.272-0.322,0.409-1.302,0.409-2.942V79.12c0-1.643-0.137-2.622-0.409-2.936c-0.274-0.314-1.145-0.519-2.615-0.616l-0.345-0.036
		v-0.795h-0.334v1.129l0.345,0.036C174.663,75.999,175.534,76.204,175.808,76.518z M159.978,79.865l4.89,11.715h0.474l-5.125-12.28
		L159.978,79.865z M185.87,77.116c0.961,0.771,1.441,2.101,1.441,3.986c0,1.844-0.446,3.265-1.338,4.261
		c0.036-0.032,0.074-0.064,0.108-0.098c1.043-1.004,1.565-2.503,1.565-4.499c0-1.884-0.48-3.214-1.442-3.987
		c-0.961-0.773-2.625-1.159-4.99-1.159h-0.891v0.335h0.557C183.245,75.957,184.908,76.343,185.87,77.116z M167.177,96.979
		c0.511,1.189,0.766,2.145,0.766,2.861c0,0.037-0.007,0.071-0.017,0.105c0.233-0.113,0.351-0.26,0.351-0.44
		c0-0.716-0.255-1.67-0.765-2.86l-1.51-3.588h-11.573l-0.146,0.335h11.385L167.177,96.979z M228.726,75.865v-0.297
		c-1.49,0.097-2.369,0.299-2.634,0.605c-0.036,0.042-0.07,0.098-0.102,0.165c0.41-0.213,1.212-0.358,2.408-0.437L228.726,75.865z
		 M236.309,75.567l-0.327-0.036v-0.795h-0.334v1.129l0.326,0.036c1.483,0.098,2.36,0.303,2.634,0.616
		c0.272,0.316,0.41,1.294,0.41,2.937v12.333c0,2.34-0.112,3.964-0.337,4.874c-0.211,0.856-0.655,1.641-1.325,2.357
		c0.071-0.066,0.142-0.132,0.211-0.201c0.74-0.751,1.224-1.582,1.448-2.491c0.225-0.91,0.337-2.534,0.337-4.874V79.12
		c0-1.643-0.137-2.622-0.41-2.936C238.669,75.869,237.793,75.665,236.309,75.567z M185.911,87.461
		c1.53-0.652,2.729-1.443,3.599-2.372c-0.971,0.914-2.285,1.685-3.944,2.31C185.683,87.418,185.797,87.439,185.911,87.461z
		 M212.652,78.72c1.521,2.291,2.28,5.458,2.28,9.507c0,4.046-0.76,7.213-2.28,9.497c-0.29,0.435-0.6,0.827-0.931,1.178
		c0.459-0.432,0.881-0.935,1.266-1.513c1.52-2.285,2.279-5.451,2.279-9.498c0-4.048-0.759-7.217-2.279-9.508
		c-1.521-2.291-3.624-3.437-6.31-3.437c-2.171,0-3.961,0.75-5.37,2.246c1.354-1.273,3.034-1.911,5.036-1.911
		C209.029,75.283,211.131,76.428,212.652,78.72z M243.509,75.631c-1.033,0.111-1.658,0.292-1.87,0.542
		c-0.035,0.041-0.066,0.095-0.097,0.159c0.314-0.162,0.858-0.283,1.633-0.367v3.707h1.912l0.018-0.335h-1.596V75.631z
		 M252.83,96.979c0,1.433-0.113,2.365-0.339,2.799c0.105-0.057,0.187-0.121,0.244-0.191c0.287-0.346,0.43-1.328,0.43-2.942V75.858
		h-4.3c-1.008,0-1.889,0.056-2.642,0.165c-0.255,0.038-0.445,0.175-0.569,0.411c0.071-0.035,0.147-0.063,0.234-0.076
		c0.753-0.108,1.634-0.164,2.641-0.164h4.3V96.979z M249.355,100.56l-0.334,0.008v1.129h11.46v-0.334h-11.126V100.56z
		 M221.81,91.271V79.12c0-1.643-0.138-2.622-0.411-2.936c-0.273-0.314-1.144-0.519-2.614-0.616l-0.347-0.036v-0.795h-0.334v1.129
		l0.347,0.036c1.469,0.098,2.341,0.303,2.614,0.616c0.273,0.316,0.411,1.294,0.411,2.937v12.152c0,7.177,3.339,10.765,10.019,10.765
		c3.109,0,5.453-0.844,7.034-2.533c-1.57,1.467-3.803,2.198-6.699,2.198C225.149,102.036,221.81,98.448,221.81,91.271z
		 M264.731,79.338l-0.019-0.364c-0.035-0.45-0.054-0.983-0.054-1.603c0-0.827-0.243-1.275-0.728-1.349
		c-0.766-0.109-1.646-0.165-2.638-0.165h-4.305v0.335h3.971c0.992,0,1.872,0.056,2.637,0.164c0.485,0.073,0.729,0.522,0.729,1.349
		c0,0.62,0.018,1.153,0.053,1.604l0.019,0.363h1.914v-0.335H264.731z M197.425,98.248c-2.255-2.526-3.382-5.982-3.382-10.365
		c0-4.385,1.127-7.84,3.382-10.366c0.091-0.103,0.186-0.2,0.281-0.298c-0.211,0.203-0.418,0.411-0.616,0.633
		c-2.254,2.526-3.381,5.981-3.381,10.366c0,4.384,1.127,7.839,3.381,10.366c2.256,2.525,5.339,3.788,9.253,3.788
		c3.754,0,6.742-1.164,8.97-3.489c-2.19,2.101-5.066,3.154-8.636,3.154C202.764,102.036,199.68,100.775,197.425,98.248z
		 M147.62,100.552l-0.335,0.016v1.129h6.995v-0.334h-6.66V100.552z M151.391,96.645l9.371-22.256h-0.193l-9.513,22.59
		c-0.661,1.55-1.12,2.539-1.375,2.97c0.083-0.038,0.146-0.08,0.189-0.125C150.069,99.611,150.577,98.552,151.391,96.645z
		 M183.582,101.363h-18.183v-0.795c-0.002,0-0.005,0-0.008,0h-0.327v1.129h18.184c3.072,0,5.355-0.557,6.85-1.674
		c0.283-0.213,0.54-0.445,0.769-0.7c-0.137,0.128-0.281,0.25-0.435,0.365C188.938,100.805,186.653,101.363,183.582,101.363z"/>
	<g>
		<path fill="#FFFFFF" d="M154.763,92.721l-1.557,3.583c-0.6,1.413-0.898,2.355-0.898,2.829c0,0.511,0.783,0.767,2.35,0.767h0.292
			v1.127h-6.995V99.9l0.382-0.02c1.045-0.047,1.667-0.179,1.869-0.391c0.2-0.213,0.707-1.272,1.52-3.179l9.512-22.59h1.27
			l9.458,22.717c0.742,1.627,1.263,2.596,1.568,2.906c0.303,0.309,0.898,0.489,1.784,0.536l0.419,0.02v1.127h-10.002V99.9h0.327
			c1.701,0,2.551-0.243,2.551-0.73c0-0.715-0.255-1.671-0.766-2.86l-1.509-3.588H154.763z M155.349,91.246h10.328l-5.126-12.279
			L155.349,91.246z"/>
		<path fill="#FFFFFF" d="M185.9,87.065c2.219,0.364,3.957,1.183,5.22,2.458c1.259,1.273,1.888,2.854,1.888,4.733
			c0,2.282-0.747,3.98-2.242,5.098c-1.493,1.117-3.777,1.674-6.85,1.674h-10.399V99.9l0.345-0.02c1.47-0.096,2.34-0.306,2.614-0.628
			c0.272-0.321,0.41-1.302,0.41-2.941V78.785c0-1.642-0.138-2.621-0.41-2.936c-0.274-0.314-1.144-0.52-2.614-0.617l-0.345-0.036
			v-1.129h10.892c2.437,0,4.293,0.51,5.572,1.531c1.278,1.021,1.917,2.503,1.917,4.448c0,1.58-0.5,2.956-1.499,4.129
			C189.399,85.348,187.899,86.311,185.9,87.065z M180.658,86.437h1.066c2.085,0,3.65-0.502,4.691-1.505
			c1.044-1.004,1.565-2.503,1.565-4.498c0-1.886-0.48-3.214-1.441-3.987c-0.961-0.773-2.625-1.16-4.99-1.16h-0.891V86.437z
			 M180.658,87.657v8.654c0,1.858,0.152,2.865,0.456,3.023c0.575,0.316,1.429,0.473,2.566,0.473c1.593,0,2.886-0.5,3.882-1.502
			s1.494-2.305,1.494-3.908C189.055,89.904,186.254,87.657,180.658,87.657z"/>
		<path fill="#FFFFFF" d="M207.012,101.701c-3.913,0-6.997-1.261-9.253-3.788c-2.254-2.526-3.381-5.981-3.381-10.365
			c0-4.386,1.127-7.84,3.381-10.367c2.256-2.526,5.34-3.788,9.253-3.788s6.997,1.262,9.25,3.788
			c2.255,2.527,3.383,5.981,3.383,10.367c0,4.383-1.128,7.839-3.383,10.365C214.009,100.44,210.925,101.701,207.012,101.701z
			 M207.012,100.482c2.685,0,4.789-1.142,6.309-3.427c1.52-2.285,2.28-5.45,2.28-9.498c0-4.048-0.76-7.216-2.28-9.507
			c-1.52-2.291-3.624-3.437-6.309-3.437c-2.687,0-4.79,1.146-6.309,3.437c-1.52,2.292-2.281,5.459-2.281,9.507
			c0,4.047,0.761,7.212,2.281,9.498C202.222,99.34,204.325,100.482,207.012,100.482z"/>
		<path fill="#FFFFFF" d="M218.772,75.196v-1.129h10.622v1.129l-0.328,0.036c-1.494,0.097-2.374,0.301-2.641,0.608
			c-0.268,0.308-0.401,1.289-0.401,2.945v11.532c0,2.788,0.071,4.606,0.217,5.455c0.147,0.85,0.511,1.655,1.094,2.419
			c1.178,1.528,2.939,2.291,5.283,2.291c2.198,0,3.959-0.667,5.283-2c0.74-0.752,1.224-1.582,1.449-2.491
			c0.225-0.909,0.337-2.533,0.337-4.874V78.785c0-1.642-0.137-2.621-0.41-2.936c-0.273-0.314-1.15-0.52-2.634-0.617l-0.326-0.036
			v-1.129h8.634v1.129l-0.345,0.036c-1.494,0.097-2.372,0.301-2.633,0.608c-0.261,0.308-0.39,1.289-0.39,2.945v11.294
			c0,2.502-0.141,4.336-0.419,5.502c-0.281,1.167-0.839,2.253-1.677,3.26c-1.578,1.907-4.019,2.859-7.323,2.859
			c-6.68,0-10.02-3.587-10.02-10.765V78.785c0-1.642-0.137-2.621-0.411-2.936c-0.272-0.314-1.144-0.52-2.613-0.617L218.772,75.196z"
			/>
		<path fill="#FFFFFF" d="M253.499,75.524h-4.3c-1.008,0-1.888,0.055-2.641,0.164c-0.498,0.073-0.749,0.523-0.749,1.349
			c0,0.619-0.01,1.154-0.035,1.604l-0.018,0.364h-1.914v-4.937h23.136v4.937h-1.913l-0.018-0.364
			c-0.036-0.45-0.054-0.985-0.054-1.604c0-0.826-0.243-1.276-0.729-1.349c-0.766-0.108-1.646-0.164-2.637-0.164h-4.305v20.787
			c0,1.615,0.146,2.595,0.438,2.941c0.292,0.348,1.16,0.555,2.604,0.628l0.784,0.02v1.127h-11.459V99.9l0.783-0.02
			c1.445-0.073,2.311-0.28,2.595-0.628c0.288-0.346,0.43-1.327,0.43-2.941V75.524z"/>
	</g>
	<path fill="#FFFFFF" d="M166.174,112.111c-4.566-4.726-10.802-7.088-18.707-7.088c-7.928,0-14.176,2.362-18.741,7.088
		c-4.566,4.726-6.85,11.188-6.85,19.389c0,8.178,2.283,14.635,6.85,19.372c4.565,4.736,10.813,7.104,18.741,7.104
		c7.905,0,14.141-2.368,18.707-7.104c4.566-4.737,6.849-11.194,6.849-19.372C173.023,123.3,170.74,116.837,166.174,112.111z
		 M158.315,148.822c-2.4,3.876-6.011,5.814-10.832,5.814c-4.8,0-8.404-1.938-10.815-5.814c-2.411-3.876-3.616-9.689-3.616-17.441
		c0-7.685,1.205-13.44,3.616-17.272c2.411-3.829,6.015-5.745,10.815-5.745c4.821,0,8.431,1.916,10.832,5.745
		c2.398,3.832,3.599,9.588,3.599,17.272C161.915,139.133,160.714,144.946,158.315,148.822z M132.805,161.662
		c-1.676-0.07-3.03-0.589-4.064-1.555c-1.035-0.967-3.263-3.917-6.685-8.852l-15.377-23.341
		c10.811-3.736,16.214-11.144,16.214-22.217c0-13.316-8.153-19.976-24.457-19.976l-4.261,0.106l-9.591,0.268H65.616v3.315
		l1.016,0.105c4.314,0.285,6.873,0.889,7.674,1.811c0.803,0.922,1.205,3.795,1.205,8.618v51.448c0,4.812-0.401,7.691-1.205,8.637
		c-0.802,0.945-3.36,1.56-7.674,1.845l-1.016,0.053v3.316h29.628v-3.316l-1.017-0.053c-3.601-0.249-5.767-0.865-6.498-1.845
		c-0.73-0.98-1.096-3.859-1.096-8.637v-21.018h9.173l21.471,34.868h20.179v-3.316l-1.07-0.053
		C134.498,161.806,133.303,161.733,132.805,161.662z M90.664,126.795h-3.923V89.68h7.529c6.257,0,10.684,1.311,13.28,3.931
		c2.598,2.621,3.898,7.069,3.898,13.343C111.448,120.181,104.52,126.795,90.664,126.795z M198.807,130.546
		c3.998-1.431,6.991-3.237,8.978-5.419c1.989-2.181,2.982-4.725,2.982-7.632c0-3.748-1.221-6.554-3.663-8.417
		c-2.442-1.862-6.105-2.794-10.989-2.794h-23.512v3.169l0.647,0.034c2.317,0.18,3.698,0.577,4.14,1.188
		c0.443,0.609,0.665,2.429,0.665,5.457v30.737c0,3.028-0.228,4.853-0.682,5.475c-0.454,0.621-1.829,1.012-4.123,1.169l-0.647,0.033
		v3.169h23.614c5.566,0,9.734-1.05,12.506-3.151c2.771-2.102,4.157-5.241,4.157-9.422c0-3.59-1.171-6.52-3.51-8.792
		C207.03,133.079,203.509,131.478,198.807,130.546z M188.142,109.623h2.112c3.362,0,5.884,0.786,7.564,2.355
		c1.681,1.571,2.521,3.927,2.521,7.066c0,3.39-0.84,5.933-2.521,7.629c-1.681,1.694-4.214,2.542-7.599,2.542h-2.078V109.623z
		 M199.659,150.344c-1.635,1.726-3.805,2.589-6.508,2.589c-2.112,0-3.477-0.369-4.089-1.106c-0.613-0.738-0.919-2.392-0.919-4.957
		v-14.312h2.112c3.521,0,6.378,1.004,8.57,3.016c2.192,2.01,3.289,4.65,3.289,7.922
		C202.112,146.334,201.295,148.616,199.659,150.344z M303.131,126.505c-4.664-4.825-11.033-7.238-19.106-7.238
		c-8.098,0-14.479,2.413-19.143,7.238c-4.663,4.827-6.995,11.428-6.995,19.803c0,8.354,2.332,14.948,6.995,19.787
		c4.664,4.837,11.045,7.256,19.143,7.256c8.073,0,14.442-2.419,19.106-7.256c4.665-4.839,6.995-11.434,6.995-19.787
		C310.126,137.933,307.796,131.332,303.131,126.505z M295.104,164.001c-2.451,3.96-6.139,5.939-11.063,5.939
		c-4.901,0-8.583-1.979-11.045-5.939c-2.462-3.958-3.693-9.896-3.693-17.814c0-7.849,1.231-13.729,3.693-17.641
		s6.144-5.869,11.045-5.869c4.925,0,8.612,1.957,11.063,5.869s3.676,9.792,3.676,17.641
		C298.78,154.104,297.556,160.043,295.104,164.001z M404.188,117.221c-4.798-5.213-11.648-7.818-20.553-7.818l-3.023,0.042
		l-4.386,0.068H272.524v4.438h84.708c0.011,0.003,0.021,0.007,0.032,0.01h14.573v-0.01h8.987c5.788,0.631,10.054,2.517,12.795,5.656
		c3.431,3.93,5.147,10.57,5.147,19.924c0,9.381-1.545,16.416-4.635,21.107c-3.088,4.689-7.734,7.036-13.938,7.036
		c-3.672,0-5.982-0.444-6.932-1.332c-0.95-0.887-1.425-3.05-1.425-6.486V120.81h-11.853c0.004,0.314,0.008,0.636,0.008,0.975v38.113
		c0,3.757-0.257,6.021-0.772,6.791c-0.456,0.684-1.73,1.141-3.821,1.371c-0.124-0.065-0.234-0.135-0.329-0.208
		c-0.661-0.511-2.233-2.438-4.716-5.779l-10.057-14.027c3.315-1.344,5.798-3.243,7.444-5.698c1.647-2.456,2.47-5.456,2.47-9.003
		c0-8.688-5.313-13.033-15.94-13.033l-3.166,0.069l-6.369,0.175h-15.001v3.236l0.662,0.034c2.366,0.185,3.776,0.59,4.229,1.213
		c0.452,0.622,0.678,2.481,0.678,5.575v31.392c0,3.092-0.231,4.957-0.695,5.593c-0.465,0.635-1.868,1.033-4.211,1.194l-0.662,0.034
		v3.236h20.604v-3.236l-0.627-0.034c-1.927-0.115-3.092-0.508-3.497-1.177c-0.407-0.669-0.609-2.54-0.609-5.61v-12.529h4.42
		l14.27,22.587h9.523v0.049h30.696c8.164,0,14.677-2.952,19.539-8.853c4.86-5.902,7.291-13.812,7.291-23.728
		C411.346,129.869,408.959,122.432,404.188,117.221z M336.188,142.829c-2.137,2.157-5.024,3.235-8.667,3.235h-1.914v-22.101h3.897
		c6.589,0,9.885,3.342,9.885,10.024C339.389,137.724,338.32,140.671,336.188,142.829z M249.15,142.979h-14.585v-32.346h16.684
		c5.303,0,8.189,0.197,8.658,0.593c0.468,0.396,0.848,3.067,1.138,8.019l0.053,1.023h5.974v-13.939h-53.764v3.336l1.022,0.107
		c4.34,0.286,6.916,0.893,7.723,1.822c0.807,0.928,1.211,3.818,1.211,8.674v51.772c0,4.843-0.404,7.742-1.211,8.692
		c-0.808,0.951-3.383,1.569-7.723,1.856l-1.022,0.054v3.337h32.561v-3.337l-1.024-0.054c-2.655-0.18-4.055-0.27-4.197-0.27
		c-2.512,0-4.153-0.654-4.924-1.965c-0.771-1.309-1.157-4.08-1.157-8.314v-24.703h14.585c1.765,0,3.151,0.079,4.166,0.234
		c-0.013-0.416-0.02-0.838-0.02-1.264c0-1.198,0.049-2.36,0.144-3.486C252.417,142.926,250.989,142.979,249.15,142.979z"/>
	<g opacity="0.3">
		<rect x="272.777" y="106.141" fill="#F2F2F2" width="109.847" height="0.356"/>
		<rect x="272.777" y="104.391" fill="#F2F2F2" width="109.847" height="0.356"/>
		<rect x="272.777" y="102.639" fill="#F2F2F2" width="109.847" height="0.357"/>
		<rect x="272.777" y="100.89" fill="#F2F2F2" width="109.847" height="0.356"/>
		<rect x="272.777" y="99.139" fill="#F2F2F2" width="109.847" height="0.356"/>
		<rect x="272.777" y="97.388" fill="#F2F2F2" width="109.847" height="0.355"/>
		<rect x="272.777" y="95.638" fill="#F2F2F2" width="109.847" height="0.356"/>
		<rect x="272.777" y="93.888" fill="#F2F2F2" width="109.847" height="0.355"/>
		<rect x="272.777" y="92.137" fill="#F2F2F2" width="109.847" height="0.356"/>
		<rect x="272.777" y="90.386" fill="#F2F2F2" width="109.847" height="0.355"/>
		<rect x="272.777" y="88.635" fill="#F2F2F2" width="109.847" height="0.356"/>
		<rect x="272.777" y="86.885" fill="#F2F2F2" width="109.847" height="0.356"/>
		<rect x="272.777" y="85.134" fill="#F2F2F2" width="109.847" height="0.356"/>
		<rect x="272.777" y="83.384" fill="#F2F2F2" width="109.847" height="0.355"/>
	</g>
	<g opacity="0.3">
		<rect x="64.276" y="186.667" fill="#F2F2F2" width="143.782" height="0.355"/>
		<rect x="64.276" y="184.915" fill="#F2F2F2" width="143.782" height="0.356"/>
		<rect x="64.276" y="183.165" fill="#F2F2F2" width="143.782" height="0.356"/>
		<rect x="64.276" y="181.414" fill="#F2F2F2" width="143.782" height="0.356"/>
		<rect x="64.276" y="179.664" fill="#F2F2F2" width="154.252" height="0.355"/>
		<rect x="64.276" y="177.914" fill="#F2F2F2" width="154.252" height="0.356"/>
		<rect x="64.276" y="176.162" fill="#F2F2F2" width="154.252" height="0.356"/>
		<rect x="64.276" y="174.412" fill="#F2F2F2" width="154.252" height="0.356"/>
		<rect x="64.276" y="172.662" fill="#F2F2F2" width="154.252" height="0.356"/>
		<rect x="64.276" y="170.912" fill="#F2F2F2" width="154.252" height="0.355"/>
		<rect x="64.276" y="169.161" fill="#F2F2F2" width="154.252" height="0.356"/>
	</g>
	<g opacity="0.3">
		<rect x="139.729" y="167.41" fill="#F2F2F2" width="78.8" height="0.356"/>
		<rect x="139.729" y="165.66" fill="#F2F2F2" width="78.8" height="0.354"/>
		<rect x="139.729" y="163.909" fill="#F2F2F2" width="78.8" height="0.356"/>
		<rect x="139.729" y="162.159" fill="#F2F2F2" width="78.8" height="0.355"/>
		<rect x="139.729" y="160.408" fill="#F2F2F2" width="78.8" height="0.356"/>
	</g>
	<g id="uSJJ8E_1_">
		<g>
			<path fill-rule="evenodd" clip-rule="evenodd" fill="#FFFFFF" d="M622.866,2.917 M621.764,5.814
				c1.835,4.753,3.819,9.46,6.011,14.06c0.835,1.753,2.425,3.132,3.499,4.793c0.367,0.567-0.078,1.775,0.341,2.174
				c1.836,1.75,2.624,4.028,3.837,6.104c3.133,5.362,2.444,10.913,2.428,16.468c-0.021,6.897,0.003,13.729-1.411,20.658
				c-1.01,4.949,0.609,10.43,1.015,15.676c0.103,1.336-0.11,2.711,0.102,4.022c0.259,1.595,1.107,3.132,1.173,4.715
				c0.116,2.839-0.311,5.7-0.208,8.541c0.047,1.278,0.646,2.502-0.609,3.502c1.909,1.476-0.316,2.427-0.505,3.629
				c-0.189,1.214-0.632,2.408-1.115,3.548c-0.604,1.426-2.466,2.257-1.614,4.393c0.4,1.003,0.15,2.393-0.159,3.51
				c-0.243,0.881-1.671,2.052-1.472,2.344c2.096,3.079-0.61,2.3-1.958,2.461c0.491,1.471,1,2.796,1.362,4.161
				c0.203,0.764,0.34,1.623,0.201,2.384c-0.435,2.386-4.229,3.342-2.838,6.562c0.042,0.095-0.136,0.285-0.187,0.384
				c-0.329-0.396-0.674-0.813-1.019-1.23c1.065,3.031-1.29,3.5-2.168,4.108c-1.086-0.656-1.66-1.003-1.809-1.094
				c-0.633,2.088-1.168,3.861-1.676,5.539c0.491,0.038,1.541,0.118,2.617,0.2c-0.705,2.673-6.49,0.473-4.647,5.352
				c0.413-0.868,0.765-1.607,1.397-2.938c0.378,1.92,0.636,3.232,1.068,5.427c3.354-4.369,6.351-8.27,9.374-12.206
				c0.36,3.173,0.639,6.445,1.168,9.676c0.134,0.82,0.931,1.954,1.66,2.182c3.136,0.977,4.627,3.49,5.018,6.207
				c0.911,6.327,1.503,12.725,1.786,19.112c0.292,6.576,0.064,13.175,0.064,19.764c-23.495,0-46.991,0-70.487,0
				c-0.755-4.038,1.454-5.988,4.694-7.971c4.708-2.882,8.821-6.723,13.457-9.741c2.415-1.573,5.404-2.264,8.792-3.614
				c-0.5,1.305-0.68,1.773-0.76,1.983c3.283,1.176,6.546,2.414,9.865,3.478c0.683,0.219,1.573-0.216,2.364-0.748
				c-10.404-4.021-19.865-11.242-32.14-7.637c0.032-0.282,0.063-0.564,0.096-0.846c4.78-1.646,9.561-3.294,14.34-4.94
				c-0.02-0.115-0.038-0.229-0.057-0.342c-2.237,0.207-4.474,0.415-6.71,0.623c-0.108-0.244-0.219-0.488-0.328-0.732
				c2.059-0.568,2.123-3.321,4.561-3.574c0.208-0.021,0.305-1.125,0.502-1.92c0.245,0.146,0.768,0.458,1.338,0.797
				c0.258-1.147,0.514-2.282,0.769-3.417c0.11,0.019,0.221,0.037,0.331,0.055c0.064,0.921,0.131,1.841,0.195,2.762
				c0.18,0.02,0.358,0.038,0.538,0.057c0.143-1.486,0.286-2.974,0.456-4.739c0.81,0.351,1.453,0.629,2.098,0.907
				c0.164-0.217,0.329-0.434,0.495-0.651c-1.864-1.922-3.729-3.844-5.515-5.686c-0.19,0.109,0.261-0.148,0.713-0.407
				c-0.053-0.165-0.107-0.331-0.161-0.496c-0.707,0.114-1.415,0.228-2.803,0.451c0.683-1.422,1.211-2.52,1.684-3.503
				c-3.468,0.726-9.595-1.705-11.784-5.188c0.154,1.298,0.225,1.887,0.272,2.288c-0.933,0.281-1.852,0.558-2.772,0.835
				c0.034,0.166,0.068,0.333,0.102,0.499c0.997,0.125,1.993,0.252,2.99,0.377c0.087,0.333,0.175,0.665,0.264,0.997
				c-1.949,0.632-3.897,1.264-6.271,2.032c1.493-3.798-0.795-4.323-3.069-4.841c-0.596,1.527-1.206,3.088-1.814,4.649
				c-0.194-0.019-0.389-0.037-0.583-0.055c0.109-1.142,0.22-2.282,0.396-4.127c-1.201,1.115-2.014,1.869-2.933,2.723
				c-0.152-0.537-0.441-1.565-0.758-2.685c-0.913,0.103-1.966,0.221-3.207,0.36c0.666,1.021,1.259,1.93,2.2,3.373
				c-1.774-0.973-2.895-1.586-3.643-1.996c-0.869,0.407-1.477,0.92-2.076,0.911c-0.597-0.009-1.186-0.542-2-0.959
				c0.592-0.473,0.699-0.568,0.705-0.562c0.247,0.247,0.486,0.504,0.726,0.759c0.165-0.163,0.382-0.287,0.369-0.379
				c-0.251-1.776-1.031-2.568-2.805-1.465c-0.14,0.087-0.362,0.042-0.492,0.054c-0.861-2.18-1.715-4.341-2.899-7.338
				c-0.276,1.058-0.407,1.557-0.658,2.513c-0.755-1.508-1.102-2.201-1.655-3.308c-0.25,0.968-0.396,1.531-0.76,2.942
				c-1.579-5.735-5.73-9.013-7.907-13.539c0.121-0.025,0.656-0.139,1.19-0.252c0.002-0.16,0.002-0.32,0.003-0.48
				c-0.909,0-1.817,0-3.05,0c-0.539-1.276-1.134-2.684-1.921-4.543c0.905,0.265,1.357,0.397,1.811,0.529
				c0.118-0.128,0.235-0.258,0.354-0.386c-0.625-0.57-1.249-1.142-1.594-1.455c0-2.008,0-4.012,0-6.015
				c0.124-0.026,0.248-0.052,0.372-0.077c0.193,0.744,0.388,1.488,0.617,2.371c2.548-3.426-2.728-3.526-2.098-6.622
				c-0.404,0.868-0.543,1.164-0.731,1.568c-0.781-1.418-1.53-2.776-2.568-4.659c0.254-2.006,0.612-4.844,0.991-7.852
				c-0.784,0.035-1.538,0.07-2.41,0.108c0.049-0.689,0.104-1.465,0.155-2.173c-0.793-0.132-1.507-0.25-2.22-0.368
				c0.35-0.445,0.747-0.86,1.039-1.34c1.191-1.954,0.553-5.523-0.608-7.31c-0.667-1.024-0.664-2.767-0.392-4.065
				c0.605-2.875,0.229-5.245-2.288-6.813c1.28,0,3.046,0.509,3.729-0.133c0.789-0.742,0.623-2.498,0.896-3.948
				c-1.912,0.249-3.326,0.431-4.738,0.614c2.195-0.729,3.418-1.902,3.431-4.349c0.003-0.625,0.938-1.294,1.531-1.852
				c0.353-0.332,0.873-0.486,1.316-0.721c-0.703-0.116-1.411-0.326-2.109-0.3c-0.262,0.009-0.502,0.567-1.348,0.607
				c0.357-1.547,0.767-3.085,1.056-4.645c0.277-1.498,0.43-3.019,0.702-5.014c-1.642-0.12-3.608-0.258-5.573-0.411
				c-0.588-0.045-1.584,0.031-1.689-0.232c-0.691-1.724-1.711-3.553-1.618-5.295c0.11-2.09,0.017-4.685,2.578-5.876
				c0.193-0.09,0.512-0.318,0.551-0.277c1.578,1.716,3.074,0.905,4.837,0.18c1.226-0.504,4.269,2.73,4.357,4.313
				c0.056,1.014,0.011,2.033,0.011,3.049c0.324,0.36,0.65,0.72,0.975,1.08c0.817-1.357,2.301-2.706,2.319-4.073
				c0.048-3.572,2.563-3.154,4.669-3.436c1.969-0.263,2.127-0.487,1.239-2.153c1.144-0.878,2.247-1.724,3.376-2.59
				c1.295,1.889,3.409,3.012,5.941,1.485c1.717-1.034,3.073-2.666,4.902-4.311c0.904,1.05,1.956,2.804,3.482,3.889
				c1.369,0.974,3.261,1.211,5.101,1.241c-1.771-1.324-3.544-2.647-5.315-3.971c0.147-0.238,0.297-0.477,0.445-0.715
				c1.514,0.77,3.028,1.539,4.543,2.309c0.259-0.278,0.519-0.557,0.778-0.835c-1.474-1.589-2.775-3.389-4.45-4.727
				c-5.194-4.15-11.233-4.223-17.406-3.095c-1.629,0.297-3.201,0.897-4.99,0.799c-0.84,0.604-1.679,1.208-2.254,1.622
				c-0.133-1.489-0.222-2.497-0.312-3.506c-0.217,0.025-0.434,0.05-0.65,0.075c0.548-0.996,1.097-1.992,1.744-3.169
				c-1.042-0.683-3.766-0.744-1.209-2.936c-1.073,0.106-1.972,0.195-2.562,0.253c-0.242,1.276-0.47,2.469-0.696,3.664
				c-0.399-0.077-0.799-0.154-1.198-0.231c0.52-2.879,1.059-5.755,1.551-8.64c0.269-1.578,0.821-3.217,0.618-4.746
				c-0.63-4.743,3.335-6.737,5.614-9.65c1.294-1.654,3.424-2.654,5.732-4.359c-1.521,0.317-2.396,0.499-2.715,0.565
				c0.676-1.461,1.433-3.099,2.19-4.736c26.552,0,40.826,0,67.378,0C614.167,0,620.667,0.833,621.764,5.814z M624.145,3.467
				 M548.201,122.227c-0.225,0.438-0.509,0.73-0.454,0.928c0.685,2.478,3.128,5.869,5.115,7.593c1.319,1.145,2.596,2.416,3.595,3.84
				c1.882,2.683,4.079,4.689,7.452,5.304c2.257,0.41,4.553,1.067,4.741,4.048c0.005,0.066,0.288,0.115,0.664,0.253
				c0.296-0.666,0.595-1.339,1.223-2.75c1.015,1.28,2.199,2.182,2.539,3.333c0.628,2.129,1.02,3.432,2.88,0.83
				c0.33-0.46,1.014-0.667,1.545-0.997c0.192,0.448,0.347,0.806,0.21,0.488c7.375-3.556,14.646-7.062,21.999-10.605
				c-1.19-4.108-4.17-0.311-5.815-1.946c-0.08-0.884-0.173-1.895-0.268-2.948c-1.077-0.088-2.018-0.165-2.957-0.241
				c0.332,0.898,0.575,1.555,0.817,2.212c-3.397-2.439-3.706-2.451-5.07,0.134c-1.493-1.236-2.96-2.449-4.593-3.802
				c-0.195,0.556-0.369,1.051-0.484,1.377c-0.657-0.044-1.276-0.166-1.875-0.1c-0.539,0.06-1.3,0.639-1.541,0.45
				c-1.675-1.312-4.697-0.974-4.905-4.233c-0.051-0.804-1.77-1.407-2.508-2.282c-1.326-1.571-2.664,0.688-4.037-0.114
				c0.196-0.304,0.413-0.513,0.479-0.763c0.219-0.819,0.384-1.653,0.568-2.482c-0.156-0.023-0.312-0.049-0.468-0.073
				c-0.457,0.618-0.914,1.235-1.392,1.882c-0.685-1.554-1.279-2.901-1.874-4.249c-0.24,0.072-0.481,0.146-0.722,0.22
				c-0.139,0.842-0.277,1.684-0.344,2.091c-1.312,0.389-2.255,0.666-3.199,0.946c-0.326-1.26-0.651-2.519-0.931-3.593
				c-1.429,1.621-2.837,3.222-4.352,4.94c-0.346-0.66-0.63-1.204-0.938-1.79C553.207,123.954,552.593,124.215,548.201,122.227z
				 M567.789,36.06c0.917,4.036,1.75,7.701,2.591,11.406c0.757-0.296,1.705-0.665,2.933-1.144c-0.923,2.8-1.756,5.403-2.646,7.987
				c-0.355,1.03-0.583,2.281-1.307,2.978c-2.72,2.618-3.858,5.827-4.396,9.458c-0.627,4.233,1.46,6.668,5.64,5.854
				c1.425-0.277,4.177,0.623,3.808-2.679c-0.558,0.053-1.112,0.107-1.669,0.158c-2.915,0.269-4.639-1.193-4.416-3.976
				c0.185-2.298,0.456-4.623,1.058-6.834c0.247-0.908,1.362-1.925,2.274-2.167c0.49-0.131,1.386,1.274,2.104,1.981
				c0.363,0.358,0.739,0.705,0.564,0.538c-1.076,1.32-1.881,2.655-3.013,3.598c-1.181,0.985-1.533,2.32-0.86,3.23
				c0.563,0.761,2.076,0.864,3.196,1.152c0.631,0.162,1.597-0.161,1.935,0.191c2.496,2.606,5.417,1.387,8.135,0.848
				c0.814-0.162,1.514-1.584,1.996-2.562c0.543-1.103,0.78-2.355,1.221-3.763c-0.183-0.027-0.903-0.322-1.074-0.129
				c-1.508,1.702-3.162,0.642-3.924-0.351c-1.661-2.166-3.209-4.589-4.029-7.154c-0.398-1.247-0.889-2.929-0.829-4.048
				c0.118-2.242,0.082-4.367-0.459-6.519c-0.13-0.519-0.224-1.484-0.385-1.495c-2.698-0.186-2.404-2.366-2.682-3.727
				C571.507,37.886,569.714,37.005,567.789,36.06z M556.912,96.83c6.761-1.527,12.927-3.369,19.227-4.211
				c5.813-0.777,11.826-1.302,17.394,1.835c3.34,1.882,6.86,3.447,10.672,5.339c-1.637-2.281-2.986-4.165-3.824-5.333
				c-1.909-1.379-3.263-2.316-4.571-3.312c-3.491-2.658-6.806-5.6-11.7-5.233c-1.559,0.116-3.16-0.464-4.741-0.458
				c-2.717,0.01-5.425-0.698-8.107,0.975c-2.247,1.402-5.521,0.469-7.642,2.734c0.518-0.75,1.035-1.5,1.552-2.249
				C560.911,88.88,558.792,92.5,556.912,96.83z M621.657,52.781c0.591-0.79,1.436-1.796,2.131-2.897
				c0.493-0.78,1.318-1.53-0.247-2.421c-1.315-0.749-2.85-1.983-3.247-3.313c-1.107-3.7-3.633-5.694-7.037-6.557
				c-4.416-1.118-8.921-2.272-13.021,1.263c-1.72,1.483-3.791,2.56-5.65,3.788c0.209,0.683,0.398,1.299,0.535,1.745
				c0.73-0.068,1.344-0.125,1.94-0.182c-0.095,0.794-0.169,1.418-0.243,2.041c0.915-0.368,1.83-0.736,3.005-1.208
				c1.228,1.478,2.949,2.248,4.95,0.323c1.116,2.446,2.346,2.012,4.014-0.107c-1.573-0.359-2.822-0.645-4.073-0.931
				c1.449-0.677,3.766-0.311,4.146-1.004c1.261-2.305,2.061-0.687,2.749,0.076c1.184,1.311,1.948,3.042,3.244,4.197
				C617.016,49.521,619.459,51.131,621.657,52.781z M591.845,60.47c-0.359-0.026-0.719-0.053-1.078-0.08
				c-1.095,1.609-2.624,3.088-3.153,4.865c-0.479,1.607,0.781,2.981,2.708,3.173c1.535,0.153,4.062-2.14,3.709-3.778
				C593.711,63.169,592.604,61.857,591.845,60.47z M623.161,189.885c0.23-0.501,0.459-1.001,0.689-1.502
				c-2.476-1.054-4.951-2.105-7.427-3.159c-0.144,0.294-0.289,0.588-0.434,0.883C618.381,187.366,620.771,188.626,623.161,189.885z
				 M565.343,33.181c-2.729-1.193-4.729-2.067-6.729-2.941c-0.133,0.293-0.265,0.585-0.397,0.877
				C560.315,31.831,561.354,34.786,565.343,33.181z"/>
			<path fill-rule="evenodd" clip-rule="evenodd" fill="#FFFFFF" d="M515.903,145.013c2.061,2.738,4.072,5.513,6.188,8.205
				c3.421,4.354,6.848,8.706,10.413,12.939c0.964,1.145,2.348,2.039,3.698,2.739c3.839,1.987,7.761,3.814,11.439,6.336
				c-1.145,0.095-2.288,0.189-3.213,0.266c-0.886-0.684-1.601-1.462-2.484-1.883c-3.864-1.832-7.777-3.561-11.671-5.329
				c-0.169-0.076-0.32-0.27-0.481-0.271c-6.128-0.072-12.259-0.294-18.38-0.131c-4.22,0.113-8.435,0.683-12.634,1.194
				c-3.757,0.458-7.486,1.242-9.982,4.455c-1.532,1.97-2.774,4.163-4.483,6.771c1.07-0.583,1.908-0.79,2.352-1.325
				c2.242-2.703,5.267-3.415,8.549-4.02c5.146-0.95,10.188-2.446,15.323-3.46c0.854-0.17,1.959,0.934,3.299,1.632
				c-0.002,0.002,0.31-0.535,0.793-1.372c1.222,0.757,2.698,1.287,3.623,2.313c3.27,3.627,7.979,4.96,11.822,7.658
				c0.716,0.502,2.059,0.016,3.041,0.265c0.877,0.223,1.776,0.696,2.458,1.295c3.824,3.354,7.586,6.779,11.313,10.131
				c-1.684,2.366-3.184,4.473-4.683,6.578c-29.035,0-58.07,0-87.106,0c1.955-2.813,3.843-5.677,5.881-8.429
				c3.118-4.21,6.21-8.452,9.556-12.48c3.279-3.947,6.703-7.802,10.357-11.398c2.91-2.865,6.902-4.817,9.227-8.033
				c2.084-2.881,4.784-3.915,7.491-5.485c1.167-0.678,1.725-2.378,2.609-3.575c3.054-4.131,6.129-8.245,8.994-12.096
				c2.129,2.066,4.079,3.959,6.028,5.851C515.462,144.573,515.684,144.793,515.903,145.013z"/>
			<path fill-rule="evenodd" clip-rule="evenodd" fill="#FFFFFF" d="M515.903,145.013c-0.22-0.22-0.441-0.439-0.662-0.659
				c-1.068-2.118-2.138-4.238-3.182-6.307c-0.098,0.178-0.304,0.55-0.648,1.175c-0.774-2.873,1.602-2.953,2.787-4.043
				c0.873,3.024,1.692,5.834,2.49,8.649C516.875,144.488,517.719,145.65,515.903,145.013z"/>
			<path fill-rule="evenodd" clip-rule="evenodd" fill="#FFFFFF" d="M583.006,179.224c-0.624-0.676-1.249-1.352-1.87-2.025
				c1.451-1.421,5.453-0.661,6.009,1.077c0.109,0.344-0.226,1.188-0.301,1.181c-0.877-0.077-1.746-0.265-2.612-0.441
				c-0.353-0.071-0.694-0.189-1.041-0.286C583.129,178.894,583.067,179.059,583.006,179.224z"/>
			<path fill-rule="evenodd" clip-rule="evenodd" fill="#FFFFFF" d="M574.876,187.061c-1.013-0.574-1.579-0.896-2.215-1.256
				c-0.447,0.689-0.848,1.307-1.229,1.896c-0.236-0.018-0.48,0.026-0.527-0.05c-0.456-0.742-0.878-1.506-1.615-2.8
				c-0.294,0.915-0.544,1.695-0.794,2.475c-0.176-0.002-0.351-0.004-0.525-0.007c0.064-0.87-0.209-2.081,0.259-2.546
				C569.503,183.507,573.088,184.665,574.876,187.061z"/>
			<path fill-rule="evenodd" clip-rule="evenodd" fill="#FFFFFF" d="M558.252,180.832c0.016,0.191-0.256-0.879-0.062-0.971
				c2.039-0.969,4.061-1.2,6.315,1.339c-1.758-0.293-2.851-0.534-3.956-0.635C559.949,180.511,559.329,180.696,558.252,180.832z"/>
			<path fill-rule="evenodd" clip-rule="evenodd" fill="#FFFFFF" d="M607.062,39.158c3.549-1.458,8.997,1.503,9.802,5.284
				C612.836,44.011,611.801,38.116,607.062,39.158z"/>
		</g>
	</g>
</g>
<g id="Layer_3">
</g>
</svg>
