<?xml version="1.0" encoding="utf-8"?>
<!-- Generator: Adobe Illustrator 16.0.0, SVG Export Plug-In . SVG Version: 6.00 Build 0)  -->
<!DOCTYPE svg PUBLIC "-//W3C//DTD SVG 1.1//EN" "http://www.w3.org/Graphics/SVG/1.1/DTD/svg11.dtd">
<svg version="1.1" xmlns="http://www.w3.org/2000/svg" xmlns:xlink="http://www.w3.org/1999/xlink" x="0px" y="0px" width="550px"
	 height="200px" viewBox="0 0 550 200" enable-background="new 0 0 550 200" xml:space="preserve">
<g id="Layer_2" display="none">
	<rect display="inline" fill="#1E76BA" width="550" height="200"/>
</g>
<g id="Layer_1">
	<path opacity="0.4" fill="#F2F2F2" d="M86.962,94.51c2.421,2.443,3.633,6.588,3.633,12.435c0,5.803-1.431,10.241-4.293,13.312
		c3.296-3.081,4.946-7.735,4.946-13.964c0-5.848-1.212-9.993-3.633-12.435c-2.42-2.442-6.545-3.664-12.377-3.664h-7.016v0.653h6.364
		C80.417,90.847,84.542,92.068,86.962,94.51z M134.275,113.614c2.235,3.571,3.353,8.935,3.353,16.096
		c0,7.226-1.118,12.645-3.353,16.258c-0.437,0.704-0.917,1.338-1.438,1.905c0.781-0.718,1.479-1.57,2.091-2.559
		c2.236-3.613,3.354-9.031,3.354-16.256c0-7.162-1.118-12.527-3.354-16.098c-2.238-3.57-5.602-5.354-10.095-5.354
		c-3.636,0-6.535,1.179-8.7,3.536c2.083-1.921,4.765-2.884,8.047-2.884C128.673,108.259,132.037,110.044,134.275,113.614z
		 M152.052,110.414c0.414,0.566,0.62,2.262,0.62,5.086v28.644c0,2.508-0.168,4.128-0.502,4.867c0.233-0.124,0.407-0.262,0.519-0.415
		c0.424-0.58,0.635-2.28,0.635-5.103v-28.647c0-2.822-0.206-4.518-0.619-5.085c-0.412-0.568-1.699-0.938-3.858-1.107l-0.604-0.03
		v-2.301h-0.652v2.953l0.604,0.033C150.354,109.475,151.64,109.845,152.052,110.414z M172.028,133.618
		c2.042,1.872,3.063,4.333,3.063,7.384c0,2.545-0.708,4.61-2.119,6.196c0.166-0.148,0.329-0.303,0.485-0.467
		c1.525-1.609,2.287-3.737,2.287-6.384c0-3.05-1.021-5.509-3.064-7.383c-2.042-1.875-4.705-2.811-7.987-2.811h-1.968v0.65h1.316
		C167.322,130.805,169.984,131.744,172.028,133.618z M173.347,128.424c3.001-1.219,5.31-2.698,6.929-4.432
		c-1.825,1.694-4.361,3.126-7.611,4.288C172.896,128.325,173.122,128.374,173.347,128.424z M171.091,111.63
		c1.567,1.462,2.35,3.658,2.35,6.584c0,2.95-0.684,5.213-2.05,6.786c0.121-0.105,0.239-0.215,0.352-0.329
		c1.567-1.58,2.35-3.95,2.35-7.109c0-2.926-0.783-5.122-2.35-6.586c-1.566-1.462-3.917-2.194-7.05-2.194h-1.968v0.652h1.316
		C167.174,109.434,169.524,110.166,171.091,111.63z M55.98,92.384c0.749,0.86,1.122,3.538,1.122,8.032v47.948
		c0,4.108-0.314,6.703-0.941,7.788c0.197-0.121,0.355-0.254,0.472-0.391c0.749-0.883,1.123-3.564,1.123-8.051V99.763
		c0-4.494-0.374-7.172-1.123-8.031c-0.746-0.86-3.131-1.423-7.152-1.688l-0.947-0.099v-2.438h-0.653v3.09l0.947,0.098
		C52.849,90.961,55.234,91.524,55.98,92.384z M107.349,147.224c-4.254-4.416-6.382-10.434-6.382-18.054
		c0-7.596,2.102-13.59,6.303-17.986c-0.193,0.186-0.386,0.375-0.573,0.568c-4.256,4.404-6.382,10.427-6.382,18.069
		c0,7.623,2.126,13.641,6.382,18.055c4.255,4.415,10.078,6.621,17.466,6.621c7.369,0,13.18-2.206,17.436-6.621
		c0.021-0.022,0.042-0.046,0.064-0.069c-4.199,4.025-9.812,6.039-16.847,6.039C117.427,153.846,111.605,151.638,107.349,147.224z
		 M181.906,149.732c-2.582,1.957-6.467,2.937-11.655,2.937h-22.008v-2.335c-0.017,0.001-0.032,0.003-0.048,0.004l-0.604,0.031v2.954
		h22.007c5.188,0,9.072-0.979,11.655-2.938c0.492-0.375,0.938-0.785,1.337-1.229C182.373,149.356,182.147,149.55,181.906,149.732z
		 M87.023,126.166c3.701-1.395,6.68-3.278,8.937-5.651c-2.355,2.245-5.406,4.017-9.158,5.315L87.023,126.166z M48.534,158.148
		l-0.653,0.034v3.09h27.612v-0.652H48.534V158.148z M76.67,128.124h-8.549v0.653h7.897l20.01,32.495h18.806v-0.652H96.681
		L76.67,128.124z"/>
	<g>
		<path opacity="0.4" fill="#F2F2F2" d="M60.652,43.38c0.103,0.089,0.186,0.695,0.251,1.816l0.024,0.232h1.353v-0.257h-1.096
			l-0.024-0.232c-0.065-1.122-0.148-1.727-0.251-1.816c-0.1-0.09-0.753-0.135-1.956-0.135h-3.939v0.257h3.681
			C59.898,43.245,60.551,43.291,60.652,43.38z M61.341,58.853c0.05-0.017,0.09-0.035,0.117-0.054
			c0.198-0.14,0.325-0.736,0.383-1.785h-0.244l-0.011,0.219C61.544,58.03,61.462,58.57,61.341,58.853z M45.299,43.462
			c0.183,0.21,0.273,0.866,0.273,1.966v4.73h0.258v-4.988c0-1.1-0.092-1.755-0.274-1.966c-0.184-0.21-0.771-0.347-1.763-0.412
			l-0.219-0.024v-0.499h-0.256v0.756l0.219,0.023C44.527,43.116,45.116,43.253,45.299,43.462z M59.41,51.616
			c0.167,0.117,0.265,0.481,0.297,1.095l0.013,0.218h0.975v-0.257h-0.717l-0.014-0.219c-0.032-0.613-0.131-0.977-0.297-1.094
			c-0.167-0.117-0.616-0.176-1.348-0.176h-3.305v0.257h3.048C58.793,51.44,59.243,51.5,59.41,51.616z M50.164,43.049l0.007,0
			c0.984,0.066,1.567,0.203,1.751,0.413c0.182,0.21,0.274,0.866,0.274,1.966V57.16c0,0.935-0.067,1.55-0.2,1.844
			c0.08-0.04,0.142-0.084,0.182-0.132c0.184-0.215,0.275-0.872,0.275-1.969V45.171c0-1.1-0.091-1.755-0.275-1.966
			c-0.183-0.21-0.766-0.347-1.75-0.412l-0.007-0.001l-0.006,0.001c-0.993,0.065-1.577,0.202-1.757,0.412
			c-0.026,0.033-0.051,0.075-0.074,0.128c0.28-0.138,0.804-0.233,1.573-0.284L50.164,43.049z M34.153,43.462
			c0.183,0.21,0.275,0.866,0.275,1.966V57.16c0,0.935-0.067,1.55-0.201,1.844c0.082-0.04,0.142-0.084,0.183-0.132
			c0.183-0.215,0.275-0.872,0.275-1.969V45.171c0-1.1-0.092-1.755-0.275-1.966c-0.183-0.21-0.766-0.347-1.75-0.412l-0.232-0.024
			v-0.499h-0.061v0.776l0.036,0.003C33.386,43.116,33.97,43.253,34.153,43.462z M59.571,50.111c0.037-0.009,0.07-0.02,0.096-0.031
			c0.164-0.077,0.261-0.449,0.294-1.115H59.72l-0.013,0.219C59.688,49.61,59.643,49.918,59.571,50.111z M45.572,57.16
			c0,0.94-0.064,1.556-0.193,1.849c0.081-0.04,0.142-0.083,0.183-0.131c0.178-0.212,0.268-0.87,0.268-1.975v-5.695h-8.585v0.257
			h8.328V57.16z M32.427,59.548c-0.008,0-0.016,0.001-0.024,0.002l-0.232,0.012v0.756h7.072v-0.257h-6.815V59.548z M31.073,45.074
			c-0.024-0.3-0.036-0.659-0.036-1.073c0-0.553-0.163-0.854-0.488-0.902c-0.513-0.074-1.101-0.111-1.766-0.111h-2.88v0.257h2.624
			c0.664,0,1.252,0.038,1.765,0.11c0.325,0.049,0.487,0.35,0.487,0.903c0,0.415,0.013,0.772,0.037,1.072l0.012,0.244h1.28v-0.257
			h-1.023L31.073,45.074z M43.574,60.061v-0.513c-0.013,0-0.024,0.001-0.038,0.002l-0.219,0.012v0.756h19.634v-0.257H43.574z
			 M39.242,43.027v-0.232c-0.975,0.066-1.552,0.204-1.728,0.411c-0.028,0.033-0.053,0.075-0.075,0.128
			c0.279-0.138,0.804-0.233,1.573-0.284L39.242,43.027z M16.879,42.271h-0.257v3.304h1.281l0.011-0.244c0-0.004,0-0.009,0-0.013
			h-1.036V42.271z M23.085,57.16c0,0.935-0.073,1.553-0.216,1.852c0.081-0.042,0.143-0.088,0.186-0.14
			c0.191-0.232,0.287-0.888,0.287-1.969V42.988h-2.878c-0.675,0-1.265,0.038-1.768,0.111c-0.178,0.025-0.307,0.125-0.39,0.295
			c0.042-0.017,0.084-0.032,0.132-0.039c0.504-0.073,1.094-0.11,1.77-0.11h2.878V57.16z M20.793,59.556l-0.256,0.006v0.756h7.67
			v-0.257h-7.414V59.556z"/>
		<g>
			<path fill="#FFFFFF" d="M23.729,42.602H20.85c-0.675,0-1.265,0.037-1.768,0.111c-0.334,0.049-0.5,0.349-0.5,0.902
				c0,0.415-0.008,0.772-0.025,1.074l-0.011,0.243h-1.281v-3.304h15.487v3.304h-1.28l-0.011-0.243
				c-0.025-0.302-0.037-0.659-0.037-1.074c0-0.553-0.163-0.853-0.488-0.902c-0.513-0.074-1.101-0.111-1.765-0.111h-2.882v13.915
				c0,1.082,0.098,1.737,0.292,1.97c0.195,0.232,0.777,0.372,1.744,0.421l0.525,0.011v0.757h-7.671v-0.757l0.524-0.011
				c0.967-0.049,1.546-0.189,1.738-0.421c0.191-0.232,0.287-0.888,0.287-1.97V42.602z"/>
			<path fill="#FFFFFF" d="M37.631,50.821v5.695c0,1.097,0.09,1.754,0.268,1.97c0.179,0.215,0.765,0.356,1.757,0.421l0.23,0.011
				v0.757h-7.072v-0.757l0.231-0.011c0.984-0.065,1.568-0.206,1.75-0.421c0.183-0.216,0.275-0.873,0.275-1.97V44.786
				c0-1.1-0.092-1.755-0.275-1.965c-0.182-0.21-0.766-0.349-1.75-0.414l-0.231-0.022v-0.756h7.072v0.756l-0.23,0.022
				c-0.992,0.065-1.579,0.204-1.757,0.414c-0.178,0.21-0.268,0.866-0.268,1.965v4.987h8.585v-4.987c0-1.1-0.092-1.755-0.275-1.965
				c-0.182-0.21-0.77-0.349-1.762-0.414l-0.22-0.022v-0.756h7.073v0.756l-0.232,0.022c-0.992,0.065-1.577,0.204-1.756,0.414
				c-0.179,0.21-0.269,0.866-0.269,1.965v11.731c0,1.097,0.09,1.754,0.269,1.97c0.179,0.215,0.764,0.356,1.756,0.421l0.232,0.011
				v0.757h-7.073v-0.757l0.22-0.011c1-0.065,1.589-0.205,1.769-0.416c0.179-0.211,0.269-0.87,0.269-1.976v-5.695H37.631z"/>
			<path fill="#FFFFFF" d="M63.595,59.675H50.583v-0.757l0.232-0.011c0.983-0.065,1.566-0.206,1.75-0.421
				c0.183-0.216,0.274-0.873,0.274-1.97V44.786c0-1.1-0.092-1.755-0.274-1.965c-0.184-0.21-0.767-0.349-1.75-0.414l-0.232-0.022
				v-0.756h12.341v3.158h-1.353l-0.024-0.232c-0.065-1.122-0.149-1.727-0.251-1.817c-0.101-0.089-0.753-0.135-1.956-0.135h-3.94
				v7.22l3.305-0.013c0.732,0,1.182-0.039,1.348-0.115c0.167-0.078,0.266-0.462,0.299-1.153l0.013-0.219h0.974v3.963h-0.974
				l-0.013-0.218c-0.033-0.612-0.132-0.978-0.299-1.095c-0.167-0.115-0.616-0.175-1.348-0.175h-3.305v5.719
				c0,0.944,0.113,1.53,0.336,1.762c0.224,0.231,0.803,0.348,1.738,0.348h1.926c1.431,0,2.247-0.071,2.445-0.213
				c0.2-0.143,0.328-0.75,0.385-1.823l0.012-0.22h1.354V59.675z"/>
		</g>
	</g>
	<path opacity="0.4" fill="#F2F2F2" d="M135.887,38.839c0,4.067-1.123,7.303-3.364,9.713c0.137-0.125,0.272-0.253,0.403-0.386
		c2.41-2.436,3.614-5.762,3.614-9.979c0-7.544-3.719-11.317-11.159-11.317h-4.402v0.654h3.749
		C132.168,27.524,135.887,31.295,135.887,38.839z M143.795,50.185c-1.659,1.57-3.732,2.862-6.229,3.873l0.205,0.285
		C140.213,53.246,142.222,51.86,143.795,50.185z M48.715,23.672h-0.652v12.102h5.816l0.023-0.652h-5.187V23.672z M62.548,78.137
		l-0.653,0.037v3.653h26.68v-0.652H62.548V78.137z M107.929,28.735c0.512,0.703,0.768,2.801,0.768,6.293v35.443
		c0,3.215-0.223,5.251-0.667,6.114c0.233-0.137,0.413-0.288,0.534-0.453c0.524-0.716,0.786-2.821,0.786-6.314V34.375
		c0-3.493-0.256-5.59-0.768-6.294c-0.51-0.704-2.101-1.16-4.773-1.369l-0.747-0.04v-3.001h-0.004v3.688l0.098,0.006
		C105.828,27.574,107.418,28.03,107.929,28.735z M69.164,70.471c0,3.118-0.233,5.124-0.696,6.021c0.2-0.111,0.354-0.231,0.464-0.359
		c0.589-0.691,0.883-2.795,0.883-6.314V26.87h-9.468c-2.436,0-4.002,0.334-4.695,1.003c-0.1,0.095-0.191,0.222-0.277,0.374
		c0.813-0.481,2.252-0.723,4.321-0.723h9.469V70.471z M306.963,28.735c0.51,0.703,0.766,2.801,0.766,6.293v13.493h0.654V34.375
		c0-3.493-0.256-5.59-0.768-6.294c-0.51-0.704-2.102-1.16-4.772-1.369l-0.748-0.04v-3.001h-0.653v3.654l0.748,0.041
		C304.86,27.574,306.452,28.03,306.963,28.735z M326.103,26.713c-2.698,0.208-4.302,0.665-4.812,1.369
		c-0.042,0.058-0.082,0.128-0.121,0.205c0.78-0.453,2.207-0.76,4.28-0.92l0.709-0.041v-0.615L326.103,26.713z M290.009,27.326
		v-0.615l-0.056,0.002c-2.698,0.208-4.304,0.665-4.814,1.369c-0.042,0.058-0.081,0.128-0.118,0.205
		c0.781-0.453,2.206-0.76,4.28-0.92L290.009,27.326z M307.729,70.471c0,3.215-0.223,5.251-0.666,6.114
		c0.233-0.137,0.411-0.288,0.533-0.453c0.523-0.716,0.787-2.821,0.787-6.314V52.647h-24.009v0.652h23.354V70.471z M270.813,28.735
		c0.511,0.703,0.766,2.801,0.766,6.293v35.443c0,3.215-0.222,5.251-0.666,6.114c0.232-0.137,0.412-0.288,0.533-0.453
		c0.524-0.716,0.786-2.821,0.786-6.314V34.375c0-3.493-0.256-5.59-0.767-6.294c-0.511-0.704-2.103-1.16-4.774-1.369l-0.746-0.04
		v-3.001h-0.005v3.688l0.097,0.006C268.709,27.574,270.301,28.03,270.813,28.735z M302.095,78.138l-0.653,0.036v3.653h24.717v-0.652
		h-24.063V78.138z M204.564,28.082c-0.038,0.055-0.075,0.12-0.11,0.192c0.769-0.446,2.159-0.749,4.174-0.907l0.706-0.041v-0.615
		l-0.053,0.002C206.634,26.921,205.062,27.378,204.564,28.082z M232.683,71.191c0.01-0.431,0.018-0.887,0.018-1.373V26.87h-9.469
		c-2.438,0-4.003,0.334-4.698,1.003c-0.099,0.095-0.19,0.222-0.276,0.374c0.812-0.481,2.251-0.723,4.321-0.723h9.469v42.947
		c0,0.485-0.006,0.941-0.019,1.373h12.236c-0.013-0.211-0.025-0.429-0.039-0.653H232.683z M211.6,23.672h-0.655v12.102h5.817
		l0.022-0.652H211.6V23.672z M260.087,34.021c-0.027-3.432-0.386-5.481-1.08-6.148c-0.695-0.668-2.26-1.003-4.696-1.003h-9.469
		v0.654h8.816c2.438,0,4.001,0.334,4.695,1.001c0.695,0.667,1.053,2.718,1.081,6.149l0.039,1.1h5.814v-0.652h-5.161L260.087,34.021z
		 M265.946,78.138l-0.653,0.036v3.653h24.716v-0.652h-24.063V78.138z M171.464,28.082c-0.042,0.059-0.083,0.129-0.121,0.206
		c0.781-0.454,2.204-0.761,4.272-0.921l0.712-0.041V26.71l-0.059,0.002C173.58,26.921,171.979,27.378,171.464,28.082z
		 M103.062,78.138l-0.652,0.036v3.653h17.9v-0.652h-17.248V78.138z M198.001,59.209V34.375c0-3.493-0.255-5.59-0.766-6.294
		c-0.51-0.704-2.116-1.16-4.813-1.369l-0.708-0.04v-3.001h-0.652v3.654l0.706,0.041c2.698,0.208,4.304,0.664,4.813,1.368
		c0.512,0.703,0.767,2.801,0.767,6.293v24.834c0,4.99-0.604,8.982-1.813,11.982h5.623c0.083-0.214,0.163-0.432,0.239-0.653h-5.208
		C197.397,68.192,198.001,64.199,198.001,59.209z M135.773,71.191l-9.804-15.519h-4.99v0.654h4.338l9.804,15.518h14.117
		c-0.158-0.211-0.322-0.429-0.489-0.653H135.773z M160.72,71.191c-1.444-3.323-2.167-7.368-2.167-12.139V34.65
		c0-3.51-0.263-5.632-0.787-6.365s-2.108-1.179-4.754-1.335l-0.747-0.08v-3.198h-0.652v3.852l0.746,0.079
		c2.646,0.156,4.231,0.602,4.754,1.334c0.524,0.733,0.787,2.857,0.787,6.367v24.4c0,4.771,0.724,8.817,2.167,12.14h11.418
		c-0.07-0.212-0.137-0.431-0.202-0.653H160.72z M97.204,34.021c-0.026-3.432-0.387-5.481-1.081-6.148
		c-0.694-0.668-2.259-1.003-4.695-1.003H81.96v0.654h8.815c2.437,0,4.001,0.334,4.696,1.001c0.694,0.667,1.055,2.718,1.081,6.149
		l0.039,1.1h5.815v-0.652h-5.164L97.204,34.021z"/>
	<path fill="#FFFFFF" d="M192.531,25.858l0.707,0.039c2.699,0.208,4.303,0.664,4.814,1.368c0.511,0.704,0.765,2.802,0.765,6.294
		v24.833c0,4.99-0.604,8.982-1.812,11.981h5.622c1.338-3.468,2.007-7.775,2.007-12.924V33.56c0-3.492,0.25-5.59,0.746-6.294
		c0.499-0.704,2.07-1.16,4.716-1.368l0.707-0.039v-3.655h-18.271V25.858z M49.533,34.305h5.814l0.039-1.099
		c0.028-3.431,0.387-5.482,1.081-6.148c0.694-0.668,2.259-1.003,4.696-1.003h9.47v42.947c0,3.52-0.295,5.624-0.885,6.314
		c-0.589,0.691-2.481,1.14-5.677,1.349l-0.708,0.039v3.655h26.681v-3.655l-0.708-0.039c-3.354-0.235-5.237-0.604-5.659-1.101
		c-0.419-0.498-0.719-2.698-0.902-6.602V26.055h9.469c2.437,0,4.001,0.334,4.696,1.003c0.693,0.667,1.055,2.717,1.08,6.148
		l0.04,1.099h5.815V22.204H49.533V34.305z M153.081,26.055l0.746,0.079c2.647,0.157,4.231,0.602,4.754,1.336
		c0.524,0.733,0.788,2.856,0.788,6.366v24.4c0,4.771,0.723,8.817,2.167,12.139h11.418c-0.963-2.899-1.445-6.787-1.445-11.667V33.56
		c0-3.492,0.256-5.59,0.771-6.294c0.514-0.704,2.116-1.16,4.804-1.368l0.711-0.039v-3.655h-24.715V26.055z M212.414,34.305h5.816
		l0.039-1.099c0.028-3.431,0.386-5.482,1.081-6.148c0.694-0.668,2.26-1.003,4.698-1.003h9.468v42.947
		c0,0.486-0.006,0.94-0.018,1.373h12.236c-0.029-0.443-0.054-0.914-0.078-1.412V26.055h9.471c2.437,0,4.001,0.334,4.695,1.003
		c0.695,0.667,1.055,2.717,1.081,6.148l0.039,1.099h5.815V22.204h-54.343V34.305z M138.383,53.242
		c3.744-1.518,6.545-3.663,8.404-6.436c1.859-2.772,2.789-6.16,2.789-10.163c0-9.81-5.999-14.715-17.996-14.715l-3.576,0.078
		l-7.192,0.197h-16.934v3.655l0.747,0.039c2.672,0.208,4.263,0.664,4.773,1.368c0.511,0.704,0.767,2.802,0.767,6.294v35.442
		c0,3.493-0.261,5.597-0.785,6.314c-0.525,0.718-2.11,1.168-4.755,1.349l-0.747,0.039v3.655h17.9v-9.984h0.032
		c-0.01-0.432-0.014-0.888-0.014-1.373V54.857h4.991l9.804,15.518h14.117c-0.308-0.409-0.631-0.84-0.97-1.296L138.383,53.242z
		 M133.741,47.351c-2.41,2.437-5.671,3.655-9.784,3.655h-2.161V26.055h4.401c7.439,0,11.16,3.772,11.16,11.316
		C137.356,41.588,136.151,44.916,133.741,47.351z M322.104,27.266c0.511-0.704,2.115-1.16,4.813-1.368l0.707-0.039v-3.655h-24.716
		v3.655l0.748,0.039c2.672,0.208,4.264,0.664,4.774,1.368c0.509,0.704,0.765,2.802,0.765,6.294v14.146H285.19V33.56
		c0-3.492,0.255-5.59,0.765-6.294c0.512-0.704,2.116-1.16,4.815-1.368l0.708-0.039v-3.655h-24.718v3.655l0.746,0.039
		c2.672,0.208,4.264,0.664,4.774,1.368c0.511,0.704,0.767,2.802,0.767,6.294v35.442c0,3.493-0.263,5.597-0.787,6.314
		c-0.524,0.718-2.107,1.168-4.755,1.349l-0.746,0.039v3.655h24.718v-3.655l-0.708-0.039c-2.675-0.181-4.271-0.631-4.794-1.349
		c-0.525-0.717-0.786-2.821-0.786-6.314v-17.17h24.006v17.17c0,3.493-0.261,5.597-0.784,6.314c-0.524,0.718-2.108,1.168-4.755,1.349
		l-0.748,0.039v3.655h24.716v-3.655l-0.707-0.039c-2.672-0.181-4.27-0.631-4.793-1.349c-0.523-0.717-0.786-2.821-0.786-6.314V33.56
		C321.339,30.067,321.594,27.969,322.104,27.266z"/>
	<path opacity="0.4" fill="#F2F2F2" d="M228.792,111.09c0.437,0.368,0.79,2.858,1.061,7.475l0.05,0.952h5.567v-0.653h-4.915
		l-0.05-0.953c-0.271-4.614-0.624-7.104-1.061-7.475c-0.437-0.366-3.127-0.55-8.068-0.55h-15.549v0.652h14.896
		C225.665,110.538,228.356,110.721,228.792,111.09z M309.44,141.619c-1.357,1.267-3.046,2.312-5.072,3.134l0.2,0.282
		C306.543,144.128,308.167,142.991,309.44,141.619z M260.119,162.23c0.797-0.73,1.507-1.6,2.129-2.607
		c2.283-3.688,3.426-9.223,3.426-16.603c0-7.314-1.143-12.795-3.426-16.44c-2.284-3.646-5.72-5.47-10.311-5.47
		c-3.708,0-6.667,1.202-8.877,3.603c2.129-1.967,4.87-2.951,8.225-2.951c4.59,0,8.026,1.825,10.31,5.471
		c2.285,3.646,3.427,9.125,3.427,16.439c0,7.381-1.143,12.915-3.427,16.604C261.148,160.998,260.656,161.65,260.119,162.23z
		 M279.904,163.394c0.233-0.125,0.409-0.265,0.523-0.418c0.43-0.594,0.646-2.33,0.646-5.214v-29.257
		c0-2.882-0.211-4.613-0.633-5.194s-1.734-0.959-3.939-1.13l-0.617-0.034v-2.362h-0.652v3.017l0.617,0.032
		c2.204,0.173,3.519,0.548,3.938,1.13c0.423,0.582,0.634,2.313,0.634,5.195v29.257C280.422,160.987,280.248,162.645,279.904,163.394
		z M319.527,113.64h13.582v-0.009h8.376c5.393,0.588,9.371,2.344,11.926,5.271c3.197,3.662,4.797,9.851,4.797,18.568
		c0,8.742-1.439,15.3-4.318,19.671c-0.503,0.76-1.047,1.453-1.634,2.08c0.843-0.79,1.604-1.698,2.286-2.733
		c2.879-4.371,4.318-10.929,4.318-19.67c0-8.719-1.599-14.907-4.797-18.568c-2.555-2.928-6.531-4.684-11.926-5.272h-8.375v0.01
		H320.18c-0.01-0.003-0.019-0.007-0.029-0.01h-78.945v-3.483h-0.654v4.137h78.946C319.508,113.634,319.518,113.637,319.527,113.64z
		 M321.44,162.629c0.251-0.149,0.441-0.317,0.564-0.501c0.479-0.719,0.719-2.827,0.719-6.327v-35.523
		c0-0.087-0.001-0.171-0.001-0.256h-0.659c0.005,0.294,0.008,0.594,0.008,0.908v35.522
		C322.071,159.732,321.859,161.791,321.44,162.629z M234.083,161.574c-4.346-4.51-6.52-10.655-6.52-18.44
		c0-7.76,2.148-13.884,6.443-18.376c-0.195,0.188-0.388,0.378-0.576,0.572c-4.347,4.499-6.52,10.65-6.52,18.456
		c0,7.785,2.173,13.932,6.52,18.439c4.346,4.51,10.292,6.765,17.84,6.765c7.524,0,13.461-2.255,17.807-6.765
		c0.022-0.021,0.041-0.042,0.061-0.063c-4.288,4.114-10.026,6.176-17.216,6.176C244.375,168.338,238.428,166.082,234.083,161.574z
		 M345.578,167.181H316.97v-0.045h-8.877l-13.299-21.05h-4.118v0.652h3.467l13.3,21.05h8.874v0.046h28.608
		c6.928,0,12.579-2.28,16.954-6.837C357.599,165.118,352.167,167.181,345.578,167.181z M300.535,139.89
		c1.988-2.011,2.985-4.756,2.985-8.237c0-6.228-3.07-9.343-9.212-9.343h-3.633v0.652h2.979c6.143,0,9.213,3.115,9.213,9.342
		c0,3.325-0.909,5.977-2.723,7.961C300.277,140.144,300.409,140.02,300.535,139.89z M219.419,144.093h-13.592v0.653h12.939
		c1.646,0,2.938,0.073,3.883,0.219c-0.007-0.245-0.011-0.491-0.014-0.738C221.777,144.138,220.708,144.093,219.419,144.093z
		 M275.885,164.736c-0.012,0.002-0.023,0.003-0.035,0.004l-0.617,0.033v3.015h19.202v-0.652h-18.55V164.736z M193.514,111.433
		c0.751,0.866,1.127,3.559,1.127,8.084v48.252c0,4.138-0.316,6.75-0.947,7.84c0.197-0.124,0.355-0.254,0.472-0.392
		c0.752-0.887,1.127-3.587,1.127-8.101v-48.253c0-4.522-0.375-7.219-1.127-8.085c-0.752-0.864-3.153-1.428-7.199-1.696l-0.953-0.101
		v-2.456h-0.652v3.11l0.953,0.1C190.36,110.001,192.76,110.566,193.514,111.433z M186.014,177.614l-0.652,0.035v3.109h30.346v-0.652
		h-29.694V177.614z"/>
	<path opacity="0.4" fill="#F2F2F2" d="M163.605,94.562c0,1.419-0.42,2.586-1.259,3.501c0.061-0.056,0.121-0.112,0.18-0.171
		c0.927-0.935,1.391-2.149,1.391-3.642c0-4.188-2.609-6.282-7.826-6.282v0.316C161.099,88.366,163.605,90.458,163.605,94.562z
		 M151.882,77.274c0.253,0.294,0.382,1.206,0.382,2.737v16.333c0,1.336-0.098,2.201-0.292,2.599c0.097-0.052,0.17-0.109,0.222-0.169
		c0.254-0.3,0.382-1.213,0.382-2.742V79.699c0-1.531-0.127-2.443-0.382-2.736c-0.256-0.293-1.066-0.484-2.438-0.574l-0.321-0.033
		v-0.742h-0.312v1.053l0.322,0.034C150.815,76.791,151.627,76.982,151.882,77.274z M137.129,80.395l4.558,10.918h0.442
		l-4.777-11.444L137.129,80.395z M161.26,77.832c0.896,0.719,1.344,1.958,1.344,3.715c0,1.719-0.417,3.042-1.248,3.971
		c0.034-0.029,0.069-0.06,0.101-0.09c0.973-0.937,1.458-2.333,1.458-4.193c0-1.756-0.447-2.995-1.344-3.715
		c-0.896-0.72-2.446-1.081-4.65-1.081h-0.831v0.312h0.519C158.813,76.751,160.364,77.111,161.26,77.832z M143.838,96.344
		c0.476,1.108,0.714,1.999,0.714,2.667c0,0.034-0.007,0.067-0.016,0.098c0.217-0.105,0.327-0.242,0.327-0.41
		c0-0.668-0.238-1.557-0.713-2.666l-1.406-3.344h-10.787L131.822,93h10.61L143.838,96.344z M201.201,76.667V76.39
		c-1.39,0.09-2.208,0.279-2.456,0.564c-0.034,0.039-0.065,0.091-0.095,0.153c0.382-0.199,1.129-0.334,2.244-0.407L201.201,76.667z
		 M208.269,76.389l-0.304-0.033v-0.742h-0.312v1.053l0.303,0.034c1.383,0.091,2.2,0.282,2.455,0.574
		c0.253,0.294,0.382,1.206,0.382,2.737v11.494c0,2.181-0.105,3.695-0.314,4.542c-0.197,0.798-0.611,1.528-1.234,2.196
		c0.065-0.061,0.131-0.123,0.197-0.187c0.69-0.701,1.141-1.475,1.35-2.321c0.21-0.848,0.313-2.362,0.313-4.543V79.699
		c0-1.531-0.127-2.443-0.381-2.736C210.468,76.67,209.652,76.479,208.269,76.389z M161.298,87.474
		c1.426-0.608,2.544-1.345,3.355-2.21c-0.905,0.852-2.129,1.57-3.676,2.152C161.085,87.434,161.192,87.454,161.298,87.474z
		 M186.221,79.327c1.417,2.135,2.125,5.087,2.125,8.861c0,3.771-0.708,6.722-2.125,8.851c-0.27,0.405-0.56,0.771-0.868,1.098
		c0.427-0.403,0.821-0.872,1.18-1.41c1.417-2.129,2.125-5.08,2.125-8.852c0-3.773-0.708-6.726-2.125-8.861s-3.377-3.203-5.881-3.203
		c-2.023,0-3.692,0.699-5.005,2.094c1.262-1.187,2.828-1.781,4.693-1.781C182.844,76.124,184.803,77.191,186.221,79.327z
		 M214.978,76.448c-0.961,0.104-1.544,0.273-1.742,0.506c-0.033,0.038-0.062,0.088-0.09,0.148c0.292-0.15,0.8-0.264,1.522-0.341
		v3.454h1.782l0.017-0.312h-1.488V76.448z M223.666,96.344c0,1.336-0.105,2.204-0.315,2.608c0.098-0.053,0.173-0.112,0.227-0.178
		c0.268-0.323,0.4-1.237,0.4-2.742V76.66h-4.007c-0.939,0-1.76,0.052-2.461,0.153c-0.238,0.035-0.416,0.164-0.531,0.383
		c0.066-0.033,0.138-0.059,0.219-0.071c0.702-0.101,1.523-0.153,2.461-0.153h4.008V96.344z M220.428,99.681l-0.311,0.007v1.053
		h10.68v-0.311h-10.369V99.681z M194.755,91.024V79.699c0-1.531-0.128-2.443-0.383-2.736c-0.254-0.293-1.065-0.484-2.435-0.574
		l-0.324-0.033v-0.742h-0.311v1.053l0.323,0.034c1.369,0.091,2.181,0.282,2.436,0.574c0.255,0.294,0.383,1.206,0.383,2.737v11.326
		c0,6.688,3.112,10.032,9.337,10.032c2.897,0,5.082-0.787,6.556-2.361c-1.464,1.367-3.545,2.048-6.244,2.048
		C197.867,101.057,194.755,97.712,194.755,91.024z M234.757,79.903l-0.017-0.339c-0.033-0.419-0.05-0.917-0.05-1.494
		c0-0.771-0.227-1.188-0.677-1.257c-0.714-0.102-1.534-0.153-2.459-0.153h-4.012v0.312h3.701c0.925,0,1.745,0.052,2.458,0.153
		c0.453,0.068,0.679,0.487,0.679,1.257c0,0.578,0.017,1.075,0.049,1.495l0.017,0.338h1.784v-0.312H234.757z M172.029,97.526
		c-2.102-2.354-3.152-5.575-3.152-9.66c0-4.087,1.05-7.307,3.152-9.662c0.085-0.096,0.174-0.186,0.262-0.278
		c-0.197,0.189-0.389,0.383-0.574,0.59c-2.101,2.354-3.151,5.574-3.151,9.661c0,4.086,1.05,7.307,3.151,9.661
		c2.103,2.354,4.977,3.53,8.624,3.53c3.499,0,6.283-1.085,8.36-3.252c-2.042,1.958-4.722,2.939-8.048,2.939
		C177.005,101.057,174.131,99.881,172.029,97.526z M125.611,99.674l-0.312,0.015v1.053h6.519v-0.311h-6.207V99.674z M129.126,96.033
		l8.733-20.742h-0.181l-8.865,21.053c-0.616,1.444-1.043,2.366-1.282,2.769c0.077-0.035,0.136-0.075,0.176-0.117
		C127.895,98.797,128.367,97.81,129.126,96.033z M159.127,100.431h-16.946v-0.742c-0.002,0-0.004,0-0.007,0h-0.305v1.053h16.947
		c2.863,0,4.991-0.519,6.384-1.56c0.264-0.198,0.503-0.415,0.716-0.653c-0.128,0.12-0.262,0.234-0.405,0.341
		C164.12,99.91,161.99,100.431,159.127,100.431z"/>
	<g>
		<path fill="#FFFFFF" d="M132.27,92.375l-1.452,3.34c-0.559,1.316-0.837,2.194-0.837,2.636c0,0.477,0.73,0.714,2.19,0.714h0.272
			v1.051h-6.52v-1.051l0.355-0.019c0.974-0.044,1.554-0.167,1.742-0.364c0.186-0.199,0.658-1.186,1.417-2.963l8.865-21.053h1.183
			l8.814,21.172c0.691,1.517,1.177,2.419,1.461,2.709c0.283,0.287,0.838,0.455,1.663,0.499l0.391,0.019v1.051h-9.322v-1.051h0.305
			c1.585,0,2.377-0.226,2.377-0.681c0-0.667-0.237-1.557-0.713-2.666l-1.406-3.344H132.27z M132.815,91.001h9.625l-4.777-11.444
			L132.815,91.001z"/>
		<path fill="#FFFFFF" d="M161.289,87.104c2.068,0.339,3.688,1.103,4.865,2.291c1.173,1.187,1.759,2.66,1.759,4.412
			c0,2.126-0.696,3.709-2.089,4.751c-1.392,1.041-3.52,1.56-6.383,1.56h-9.692v-1.051l0.321-0.019
			c1.37-0.09,2.181-0.285,2.437-0.585c0.253-0.3,0.382-1.213,0.382-2.742V79.387c0-1.53-0.128-2.442-0.382-2.735
			c-0.255-0.293-1.066-0.484-2.437-0.575l-0.321-0.034V74.99h10.15c2.271,0,4.001,0.476,5.193,1.427
			c1.191,0.952,1.786,2.333,1.786,4.146c0,1.472-0.465,2.754-1.397,3.849C164.549,85.503,163.151,86.401,161.289,87.104z
			 M156.402,86.519h0.994c1.944,0,3.401-0.468,4.372-1.403c0.974-0.936,1.458-2.333,1.458-4.192c0-1.757-0.446-2.996-1.343-3.716
			c-0.896-0.721-2.446-1.08-4.65-1.08h-0.831V86.519z M156.402,87.656v8.065c0,1.732,0.143,2.671,0.425,2.818
			c0.536,0.295,1.332,0.441,2.392,0.441c1.484,0,2.689-0.465,3.618-1.399c0.928-0.935,1.392-2.149,1.392-3.642
			C164.229,89.75,161.619,87.656,156.402,87.656z"/>
		<path fill="#FFFFFF" d="M180.965,100.746c-3.647,0-6.521-1.176-8.624-3.531c-2.101-2.354-3.151-5.575-3.151-9.66
			c0-4.087,1.05-7.307,3.151-9.662c2.103-2.354,4.977-3.53,8.624-3.53c3.646,0,6.52,1.176,8.621,3.53
			c2.101,2.355,3.152,5.575,3.152,9.662c0,4.085-1.051,7.306-3.152,9.66C187.485,99.569,184.611,100.746,180.965,100.746z
			 M180.965,99.609c2.502,0,4.463-1.064,5.879-3.195c1.417-2.129,2.125-5.079,2.125-8.851c0-3.773-0.708-6.725-2.125-8.861
			c-1.417-2.135-3.377-3.202-5.879-3.202c-2.505,0-4.465,1.067-5.88,3.202c-1.417,2.136-2.126,5.088-2.126,8.861
			c0,3.772,0.709,6.722,2.126,8.851C176.5,98.544,178.46,99.609,180.965,99.609z"/>
		<path fill="#FFFFFF" d="M191.924,76.042V74.99h9.899v1.052l-0.305,0.034c-1.392,0.091-2.213,0.28-2.461,0.567
			c-0.25,0.287-0.374,1.201-0.374,2.744v10.749c0,2.598,0.066,4.293,0.202,5.083c0.137,0.792,0.476,1.542,1.02,2.255
			c1.098,1.424,2.739,2.136,4.923,2.136c2.048,0,3.689-0.622,4.924-1.864c0.689-0.701,1.141-1.474,1.35-2.321
			c0.209-0.847,0.314-2.361,0.314-4.542V79.387c0-1.53-0.127-2.442-0.382-2.735s-1.072-0.484-2.454-0.575l-0.304-0.034V74.99h8.047
			v1.052l-0.322,0.034c-1.392,0.091-2.21,0.28-2.454,0.567s-0.364,1.201-0.364,2.744v10.527c0,2.332-0.131,4.041-0.391,5.128
			c-0.261,1.087-0.781,2.1-1.563,3.038c-1.471,1.777-3.746,2.666-6.824,2.666c-6.226,0-9.338-3.344-9.338-10.034V79.387
			c0-1.53-0.128-2.442-0.383-2.735c-0.254-0.293-1.066-0.484-2.436-0.575L191.924,76.042z"/>
		<path fill="#FFFFFF" d="M224.289,76.348h-4.008c-0.939,0-1.759,0.051-2.461,0.153c-0.464,0.068-0.698,0.487-0.698,1.256
			c0,0.578-0.008,1.076-0.032,1.495l-0.017,0.339h-1.784V74.99h21.562v4.602h-1.783l-0.016-0.339
			c-0.033-0.419-0.05-0.917-0.05-1.495c0-0.77-0.227-1.188-0.679-1.256c-0.713-0.102-1.534-0.153-2.458-0.153h-4.012v19.373
			c0,1.505,0.136,2.419,0.408,2.742c0.272,0.324,1.081,0.517,2.427,0.585l0.731,0.019v1.051h-10.68v-1.051l0.73-0.019
			c1.347-0.068,2.153-0.261,2.418-0.585c0.269-0.323,0.4-1.236,0.4-2.742V76.348z"/>
	</g>
	<path fill="#FFFFFF" d="M142.904,110.447c-4.255-4.404-10.067-6.605-17.435-6.605c-7.389,0-13.211,2.201-17.466,6.605
		c-4.257,4.404-6.384,10.427-6.384,18.069c0,7.622,2.127,13.639,6.384,18.054c4.254,4.414,10.077,6.623,17.466,6.623
		c7.367,0,13.179-2.209,17.435-6.623c4.255-4.415,6.383-10.432,6.383-18.054C149.287,120.874,147.159,114.852,142.904,110.447z
		 M135.58,144.661c-2.237,3.611-5.602,5.418-10.094,5.418c-4.474,0-7.833-1.807-10.08-5.418c-2.247-3.612-3.37-9.03-3.37-16.256
		c0-7.161,1.123-12.525,3.37-16.097c2.247-3.569,5.606-5.354,10.08-5.354c4.493,0,7.857,1.785,10.094,5.354
		c2.236,3.571,3.354,8.936,3.354,16.097C138.934,135.631,137.815,141.049,135.58,144.661z M111.805,156.627
		c-1.562-0.065-2.824-0.548-3.789-1.448c-0.964-0.901-3.041-3.651-6.23-8.25l-14.331-21.753
		c10.075-3.481,15.112-10.386,15.112-20.705c0-12.411-7.598-18.617-22.793-18.617l-3.972,0.099l-8.938,0.25H49.186v3.09l0.947,0.099
		c4.021,0.266,6.405,0.828,7.152,1.688c0.749,0.859,1.123,3.537,1.123,8.032v47.949c0,4.484-0.374,7.168-1.123,8.048
		c-0.747,0.883-3.131,1.454-7.152,1.72l-0.947,0.049v3.092h27.613v-3.092l-0.948-0.049c-3.356-0.231-5.375-0.807-6.056-1.72
		c-0.68-0.913-1.021-3.597-1.021-8.048v-19.589h8.549l20.011,32.497h18.807v-3.092l-0.998-0.049
		C113.382,156.761,112.269,156.694,111.805,156.627z M72.53,124.133h-3.656V89.542h7.017c5.832,0,9.957,1.222,12.376,3.663
		c2.421,2.442,3.634,6.588,3.634,12.435C91.901,117.968,85.443,124.133,72.53,124.133z M173.317,127.628
		c3.726-1.335,6.515-3.018,8.367-5.051c1.854-2.033,2.779-4.403,2.779-7.113c0-3.492-1.138-6.106-3.414-7.844
		c-2.276-1.735-5.69-2.604-10.242-2.604h-21.913v2.955l0.604,0.03c2.16,0.169,3.446,0.539,3.858,1.107
		c0.413,0.567,0.62,2.263,0.62,5.086v28.646c0,2.821-0.212,4.521-0.636,5.102s-1.705,0.943-3.843,1.09l-0.604,0.031v2.953h22.008
		c5.188,0,9.072-0.978,11.655-2.938c2.582-1.958,3.875-4.885,3.875-8.78c0-3.346-1.091-6.077-3.271-8.194
		C180.981,129.988,177.7,128.495,173.317,127.628z M163.378,108.129h1.968c3.133,0,5.483,0.731,7.05,2.193
		c1.567,1.466,2.35,3.66,2.35,6.587c0,3.158-0.783,5.528-2.35,7.11c-1.566,1.579-3.927,2.368-7.083,2.368h-1.936V108.129z
		 M174.111,146.079c-1.524,1.608-3.546,2.413-6.066,2.413c-1.968,0-3.239-0.345-3.81-1.031c-0.571-0.688-0.857-2.229-0.857-4.62
		v-13.339h1.968c3.281,0,5.944,0.936,7.986,2.811c2.043,1.873,3.065,4.333,3.065,7.383
		C176.397,142.342,175.637,144.469,174.111,146.079z M270.545,123.861c-4.347-4.498-10.283-6.746-17.808-6.746
		c-7.546,0-13.493,2.248-17.84,6.746c-4.346,4.499-6.52,10.649-6.52,18.456c0,7.785,2.174,13.931,6.52,18.44
		c4.347,4.509,10.293,6.764,17.84,6.764c7.524,0,13.46-2.255,17.808-6.764c4.348-4.51,6.519-10.655,6.519-18.44
		C277.064,134.511,274.893,128.36,270.545,123.861z M263.064,158.807c-2.284,3.691-5.721,5.536-10.311,5.536
		c-4.568,0-8-1.845-10.294-5.536c-2.294-3.689-3.442-9.223-3.442-16.603c0-7.315,1.147-12.794,3.442-16.44s5.726-5.47,10.294-5.47
		c4.589,0,8.026,1.823,10.311,5.47c2.285,3.646,3.426,9.125,3.426,16.44C266.491,149.584,265.349,155.117,263.064,158.807z
		 M364.729,115.209c-4.471-4.858-10.855-7.286-19.154-7.286l-2.818,0.038l-4.087,0.064h-96.648v4.137h78.947
		c0.01,0.002,0.018,0.006,0.028,0.008h13.583v-0.008h8.376c5.394,0.587,9.369,2.345,11.925,5.271
		c3.196,3.662,4.797,9.851,4.797,18.568c0,8.743-1.44,15.299-4.319,19.672c-2.878,4.37-7.208,6.557-12.991,6.557
		c-3.422,0-5.575-0.414-6.46-1.241c-0.885-0.825-1.327-2.842-1.327-6.045v-36.391h-11.046c0.003,0.293,0.007,0.593,0.007,0.909
		v35.521c0,3.5-0.239,5.61-0.72,6.328c-0.425,0.637-1.612,1.062-3.562,1.277c-0.116-0.06-0.22-0.125-0.308-0.192
		c-0.615-0.477-2.082-2.272-4.395-5.387l-9.373-13.073c3.09-1.252,5.404-3.023,6.938-5.312c1.536-2.288,2.302-5.084,2.302-8.39
		c0-8.098-4.953-12.146-14.856-12.146l-2.95,0.063l-5.937,0.164H276.7v3.016l0.616,0.032c2.207,0.171,3.52,0.549,3.941,1.13
		c0.421,0.581,0.633,2.313,0.633,5.196v29.256c0,2.882-0.217,4.619-0.649,5.214c-0.433,0.591-1.741,0.962-3.925,1.112l-0.616,0.032
		v3.015h19.203v-3.015l-0.585-0.032c-1.794-0.107-2.881-0.474-3.259-1.097c-0.379-0.624-0.567-2.367-0.567-5.229V145.27h4.119
		l13.299,21.05h8.876v0.047h28.607c7.609,0,13.679-2.752,18.211-8.25c4.529-5.501,6.795-12.874,6.795-22.114
		C371.399,126.996,369.175,120.064,364.729,115.209z M301.354,139.076c-1.991,2.01-4.683,3.014-8.078,3.014h-1.783v-20.598h3.631
		c6.143,0,9.214,3.116,9.214,9.344C304.337,134.317,303.34,137.063,301.354,139.076z M220.237,139.215h-13.594v-30.146h15.549
		c4.942,0,7.632,0.184,8.07,0.553c0.436,0.368,0.79,2.858,1.061,7.474l0.049,0.953h5.567v-12.992h-50.106v3.11l0.953,0.1
		c4.045,0.266,6.445,0.831,7.197,1.698c0.752,0.864,1.129,3.559,1.129,8.084V166.3c0,4.514-0.376,7.215-1.129,8.101
		s-3.152,1.462-7.197,1.73l-0.953,0.05v3.109h30.345v-3.109l-0.954-0.05c-2.475-0.168-3.779-0.252-3.912-0.252
		c-2.341,0-3.871-0.609-4.59-1.831c-0.719-1.22-1.079-3.803-1.079-7.748v-23.023h13.594c1.644,0,2.936,0.074,3.882,0.219
		c-0.011-0.389-0.018-0.781-0.018-1.178c0-1.117,0.046-2.199,0.134-3.25C223.281,139.165,221.95,139.215,220.237,139.215z"/>
	<g opacity="0.3">
		<rect x="242.256" y="104.883" fill="#F2F2F2" width="102.375" height="0.332"/>
		<rect x="242.256" y="103.252" fill="#F2F2F2" width="102.375" height="0.331"/>
		<rect x="242.256" y="101.619" fill="#F2F2F2" width="102.375" height="0.332"/>
		<rect x="242.256" y="99.988" fill="#F2F2F2" width="102.375" height="0.333"/>
		<rect x="242.256" y="98.356" fill="#F2F2F2" width="102.375" height="0.332"/>
		<rect x="242.256" y="96.725" fill="#F2F2F2" width="102.375" height="0.331"/>
		<rect x="242.256" y="95.094" fill="#F2F2F2" width="102.375" height="0.332"/>
		<rect x="242.256" y="93.463" fill="#F2F2F2" width="102.375" height="0.331"/>
		<rect x="242.256" y="91.831" fill="#F2F2F2" width="102.375" height="0.332"/>
		<rect x="242.256" y="90.2" fill="#F2F2F2" width="102.375" height="0.332"/>
		<rect x="242.256" y="88.568" fill="#F2F2F2" width="102.375" height="0.332"/>
		<rect x="242.256" y="86.936" fill="#F2F2F2" width="102.375" height="0.333"/>
		<rect x="242.256" y="85.305" fill="#F2F2F2" width="102.375" height="0.332"/>
		<rect x="242.256" y="83.674" fill="#F2F2F2" width="102.375" height="0.332"/>
	</g>
	<g opacity="0.3">
		<rect x="47.938" y="179.931" fill="#F2F2F2" width="134.001" height="0.332"/>
		<rect x="47.938" y="178.299" fill="#F2F2F2" width="134.001" height="0.332"/>
		<rect x="47.938" y="176.668" fill="#F2F2F2" width="134.001" height="0.332"/>
		<rect x="47.938" y="175.036" fill="#F2F2F2" width="134.001" height="0.331"/>
		<rect x="47.938" y="173.405" fill="#F2F2F2" width="143.76" height="0.33"/>
		<rect x="47.938" y="171.773" fill="#F2F2F2" width="143.76" height="0.332"/>
		<rect x="47.938" y="170.142" fill="#F2F2F2" width="143.76" height="0.332"/>
		<rect x="47.938" y="168.51" fill="#F2F2F2" width="143.76" height="0.331"/>
		<rect x="47.938" y="166.879" fill="#F2F2F2" width="143.76" height="0.332"/>
		<rect x="47.938" y="165.248" fill="#F2F2F2" width="143.76" height="0.332"/>
		<rect x="47.938" y="163.616" fill="#F2F2F2" width="143.76" height="0.332"/>
	</g>
	<g opacity="0.3">
		<rect x="118.257" y="161.984" fill="#F2F2F2" width="73.44" height="0.333"/>
		<rect x="118.257" y="160.354" fill="#F2F2F2" width="73.44" height="0.33"/>
		<rect x="118.257" y="158.721" fill="#F2F2F2" width="73.44" height="0.333"/>
		<rect x="118.257" y="157.091" fill="#F2F2F2" width="73.44" height="0.331"/>
		<rect x="118.257" y="155.459" fill="#F2F2F2" width="73.44" height="0.333"/>
	</g>
	<g id="uSJJ8E_1_">
		<g>
			<path fill-rule="evenodd" clip-rule="evenodd" fill="#FFFFFF" d="M511.292,2.917 M510.189,5.814
				c1.835,4.753,3.819,9.46,6.011,14.06c0.835,1.753,2.425,3.132,3.499,4.793c0.367,0.567-0.078,1.775,0.341,2.174
				c1.836,1.75,2.624,4.028,3.837,6.104c3.133,5.362,2.444,10.913,2.428,16.468c-0.021,6.897,0.003,13.729-1.411,20.658
				c-1.01,4.949,0.609,10.43,1.015,15.676c0.103,1.336-0.11,2.711,0.102,4.022c0.259,1.595,1.107,3.132,1.173,4.715
				c0.116,2.839-0.311,5.7-0.208,8.541c0.047,1.278,0.646,2.502-0.609,3.502c1.909,1.476-0.316,2.427-0.505,3.629
				c-0.189,1.214-0.632,2.408-1.115,3.548c-0.604,1.426-2.466,2.257-1.614,4.393c0.4,1.003,0.15,2.393-0.159,3.51
				c-0.243,0.881-1.671,2.052-1.472,2.344c2.096,3.079-0.61,2.3-1.958,2.461c0.491,1.471,1,2.796,1.362,4.161
				c0.203,0.764,0.34,1.623,0.201,2.384c-0.435,2.386-4.229,3.342-2.838,6.562c0.042,0.095-0.136,0.285-0.187,0.384
				c-0.329-0.396-0.674-0.813-1.019-1.23c1.065,3.031-1.29,3.5-2.168,4.108c-1.086-0.656-1.66-1.003-1.809-1.094
				c-0.633,2.088-1.168,3.861-1.676,5.539c0.491,0.038,1.541,0.118,2.617,0.2c-0.705,2.673-6.49,0.473-4.647,5.352
				c0.413-0.868,0.765-1.607,1.397-2.938c0.378,1.92,0.636,3.232,1.068,5.427c3.354-4.369,6.351-8.27,9.374-12.206
				c0.36,3.173,0.639,6.445,1.168,9.676c0.134,0.82,0.931,1.954,1.66,2.182c3.136,0.977,4.627,3.49,5.018,6.207
				c0.911,6.327,1.503,12.725,1.786,19.112c0.292,6.576,0.064,13.175,0.064,19.764c-23.495,0-46.991,0-70.487,0
				c-0.755-4.038,1.454-5.988,4.694-7.971c4.708-2.882,8.821-6.723,13.457-9.741c2.415-1.573,5.404-2.264,8.792-3.614
				c-0.5,1.305-0.68,1.773-0.76,1.983c3.283,1.176,6.546,2.414,9.865,3.478c0.683,0.219,1.573-0.216,2.364-0.748
				c-10.404-4.021-19.865-11.242-32.14-7.637c0.032-0.282,0.063-0.564,0.096-0.846c4.78-1.646,9.561-3.294,14.34-4.94
				c-0.02-0.115-0.038-0.229-0.057-0.342c-2.237,0.207-4.474,0.415-6.71,0.623c-0.108-0.244-0.219-0.488-0.328-0.732
				c2.059-0.568,2.123-3.321,4.561-3.574c0.208-0.021,0.305-1.125,0.502-1.92c0.245,0.146,0.768,0.458,1.338,0.797
				c0.258-1.147,0.514-2.282,0.769-3.417c0.11,0.019,0.221,0.037,0.331,0.055c0.064,0.921,0.131,1.841,0.195,2.762
				c0.18,0.02,0.358,0.038,0.538,0.057c0.143-1.486,0.286-2.974,0.456-4.739c0.81,0.351,1.453,0.629,2.098,0.907
				c0.164-0.217,0.329-0.434,0.495-0.651c-1.864-1.922-3.729-3.844-5.515-5.686c-0.19,0.109,0.261-0.148,0.713-0.407
				c-0.053-0.165-0.107-0.331-0.161-0.496c-0.707,0.114-1.415,0.228-2.803,0.451c0.683-1.422,1.211-2.52,1.684-3.503
				c-3.468,0.726-9.595-1.705-11.784-5.188c0.154,1.298,0.225,1.887,0.272,2.288c-0.933,0.281-1.852,0.558-2.772,0.835
				c0.034,0.166,0.068,0.333,0.102,0.499c0.997,0.125,1.993,0.252,2.99,0.377c0.087,0.333,0.175,0.665,0.264,0.997
				c-1.949,0.632-3.897,1.264-6.271,2.032c1.493-3.798-0.795-4.323-3.069-4.841c-0.596,1.527-1.206,3.088-1.814,4.649
				c-0.194-0.019-0.389-0.037-0.583-0.055c0.109-1.142,0.22-2.282,0.396-4.127c-1.201,1.115-2.014,1.869-2.933,2.723
				c-0.152-0.537-0.441-1.565-0.758-2.685c-0.913,0.103-1.966,0.221-3.207,0.36c0.666,1.021,1.259,1.93,2.2,3.373
				c-1.774-0.973-2.895-1.586-3.643-1.996c-0.869,0.407-1.477,0.92-2.076,0.911c-0.597-0.009-1.186-0.542-2-0.959
				c0.592-0.473,0.699-0.568,0.705-0.562c0.247,0.247,0.486,0.504,0.726,0.759c0.165-0.163,0.382-0.287,0.369-0.379
				c-0.251-1.776-1.031-2.568-2.805-1.465c-0.14,0.087-0.362,0.042-0.492,0.054c-0.861-2.18-1.715-4.341-2.899-7.338
				c-0.276,1.058-0.407,1.557-0.658,2.513c-0.755-1.508-1.102-2.201-1.655-3.308c-0.25,0.968-0.396,1.531-0.76,2.942
				c-1.579-5.735-5.73-9.013-7.907-13.539c0.121-0.025,0.656-0.139,1.19-0.252c0.002-0.16,0.002-0.32,0.003-0.48
				c-0.909,0-1.817,0-3.05,0c-0.539-1.276-1.134-2.684-1.921-4.543c0.905,0.265,1.357,0.397,1.811,0.529
				c0.118-0.128,0.235-0.258,0.354-0.386c-0.625-0.57-1.249-1.142-1.594-1.455c0-2.008,0-4.012,0-6.015
				c0.124-0.026,0.248-0.052,0.372-0.077c0.193,0.744,0.388,1.488,0.617,2.371c2.548-3.426-2.728-3.526-2.098-6.622
				c-0.404,0.868-0.543,1.164-0.731,1.568c-0.781-1.418-1.53-2.776-2.568-4.659c0.254-2.006,0.612-4.844,0.991-7.852
				c-0.784,0.035-1.538,0.07-2.41,0.108c0.049-0.689,0.104-1.465,0.155-2.173c-0.793-0.132-1.507-0.25-2.22-0.368
				c0.35-0.445,0.747-0.86,1.039-1.34c1.191-1.954,0.553-5.523-0.608-7.31c-0.667-1.024-0.664-2.767-0.392-4.065
				c0.605-2.875,0.229-5.245-2.288-6.813c1.28,0,3.046,0.509,3.729-0.133c0.789-0.742,0.623-2.498,0.896-3.948
				c-1.912,0.249-3.326,0.431-4.738,0.614c2.195-0.729,3.418-1.902,3.431-4.349c0.003-0.625,0.938-1.294,1.531-1.852
				c0.353-0.332,0.873-0.486,1.316-0.721c-0.703-0.116-1.411-0.326-2.109-0.3c-0.262,0.009-0.502,0.567-1.348,0.607
				c0.357-1.547,0.767-3.085,1.056-4.645c0.277-1.498,0.43-3.019,0.702-5.014c-1.642-0.12-3.608-0.258-5.573-0.411
				c-0.588-0.045-1.584,0.031-1.689-0.232c-0.691-1.724-1.711-3.553-1.618-5.295c0.11-2.09,0.017-4.685,2.578-5.876
				c0.193-0.09,0.512-0.318,0.551-0.277c1.578,1.716,3.074,0.905,4.837,0.18c1.226-0.504,4.269,2.73,4.357,4.313
				c0.056,1.014,0.011,2.033,0.011,3.049c0.324,0.36,0.65,0.72,0.975,1.08c0.817-1.357,2.301-2.706,2.319-4.073
				c0.048-3.572,2.563-3.154,4.669-3.436c1.969-0.263,2.127-0.487,1.239-2.153c1.144-0.878,2.247-1.724,3.376-2.59
				c1.295,1.889,3.409,3.012,5.941,1.485c1.717-1.034,3.073-2.666,4.902-4.311c0.904,1.05,1.956,2.804,3.482,3.889
				c1.369,0.974,3.261,1.211,5.101,1.241c-1.771-1.324-3.544-2.647-5.315-3.971c0.147-0.238,0.297-0.477,0.445-0.715
				c1.514,0.77,3.028,1.539,4.543,2.309c0.259-0.278,0.519-0.557,0.778-0.835c-1.474-1.589-2.775-3.389-4.45-4.727
				c-5.194-4.15-11.233-4.223-17.406-3.095c-1.629,0.297-3.201,0.897-4.99,0.799c-0.84,0.604-1.679,1.208-2.254,1.622
				c-0.133-1.489-0.222-2.497-0.312-3.506c-0.217,0.025-0.434,0.05-0.65,0.075c0.548-0.996,1.097-1.992,1.744-3.169
				c-1.042-0.683-3.766-0.744-1.209-2.936c-1.073,0.106-1.972,0.195-2.562,0.253c-0.242,1.276-0.47,2.469-0.696,3.664
				c-0.399-0.077-0.799-0.154-1.198-0.231c0.52-2.879,1.059-5.755,1.551-8.64c0.269-1.578,0.821-3.217,0.618-4.746
				c-0.63-4.743,3.335-6.737,5.614-9.65c1.294-1.654,3.424-2.654,5.732-4.359c-1.521,0.317-2.396,0.499-2.715,0.565
				c0.676-1.461,1.433-3.099,2.19-4.736c26.552,0,40.826,0,67.378,0C502.593,0,509.093,0.833,510.189,5.814z M512.57,3.467
				 M436.627,122.227c-0.225,0.438-0.509,0.73-0.454,0.928c0.685,2.478,3.128,5.869,5.115,7.593c1.319,1.145,2.596,2.416,3.595,3.84
				c1.882,2.683,4.079,4.689,7.452,5.304c2.257,0.41,4.553,1.067,4.741,4.048c0.005,0.066,0.288,0.115,0.664,0.253
				c0.296-0.666,0.595-1.339,1.223-2.75c1.015,1.28,2.199,2.182,2.539,3.333c0.628,2.129,1.02,3.432,2.88,0.83
				c0.33-0.46,1.014-0.667,1.545-0.997c0.192,0.448,0.347,0.806,0.21,0.488c7.375-3.556,14.646-7.062,21.999-10.605
				c-1.19-4.108-4.17-0.311-5.815-1.946c-0.08-0.884-0.173-1.895-0.268-2.948c-1.077-0.088-2.018-0.165-2.957-0.241
				c0.332,0.898,0.575,1.555,0.817,2.212c-3.397-2.439-3.706-2.451-5.07,0.134c-1.493-1.236-2.96-2.449-4.593-3.802
				c-0.195,0.556-0.369,1.051-0.484,1.377c-0.657-0.044-1.276-0.166-1.875-0.1c-0.539,0.06-1.3,0.639-1.541,0.45
				c-1.675-1.312-4.697-0.974-4.905-4.233c-0.051-0.804-1.77-1.407-2.508-2.282c-1.326-1.571-2.664,0.688-4.037-0.114
				c0.196-0.304,0.413-0.513,0.479-0.763c0.219-0.819,0.384-1.653,0.568-2.482c-0.156-0.023-0.312-0.049-0.468-0.073
				c-0.457,0.618-0.914,1.235-1.392,1.882c-0.685-1.554-1.279-2.901-1.874-4.249c-0.24,0.072-0.481,0.146-0.722,0.22
				c-0.139,0.842-0.277,1.684-0.344,2.091c-1.312,0.389-2.255,0.666-3.199,0.946c-0.326-1.26-0.651-2.519-0.931-3.593
				c-1.429,1.621-2.837,3.222-4.352,4.94c-0.346-0.66-0.63-1.204-0.938-1.79C441.633,123.954,441.019,124.215,436.627,122.227z
				 M456.215,36.06c0.917,4.036,1.75,7.701,2.591,11.406c0.757-0.296,1.705-0.665,2.933-1.144c-0.923,2.8-1.756,5.403-2.646,7.987
				c-0.355,1.03-0.583,2.281-1.307,2.978c-2.72,2.618-3.858,5.827-4.396,9.458c-0.627,4.233,1.46,6.668,5.64,5.854
				c1.425-0.277,4.177,0.623,3.808-2.679c-0.558,0.053-1.112,0.107-1.669,0.158c-2.915,0.269-4.639-1.193-4.416-3.976
				c0.185-2.298,0.456-4.623,1.058-6.834c0.247-0.908,1.362-1.925,2.274-2.167c0.49-0.131,1.386,1.274,2.104,1.981
				c0.363,0.358,0.739,0.705,0.564,0.538c-1.076,1.32-1.881,2.655-3.013,3.598c-1.181,0.985-1.533,2.32-0.86,3.23
				c0.563,0.761,2.076,0.864,3.196,1.152c0.631,0.162,1.597-0.161,1.935,0.191c2.496,2.606,5.417,1.387,8.135,0.848
				c0.814-0.162,1.514-1.584,1.996-2.562c0.543-1.103,0.78-2.355,1.221-3.763c-0.183-0.027-0.903-0.322-1.074-0.129
				c-1.508,1.702-3.162,0.642-3.924-0.351c-1.661-2.166-3.209-4.589-4.029-7.154c-0.398-1.247-0.889-2.929-0.829-4.048
				c0.118-2.242,0.082-4.367-0.459-6.519c-0.13-0.519-0.224-1.484-0.385-1.495c-2.698-0.186-2.404-2.366-2.682-3.727
				C459.933,37.886,458.14,37.005,456.215,36.06z M445.338,96.83c6.761-1.527,12.927-3.369,19.227-4.211
				c5.813-0.777,11.826-1.302,17.394,1.835c3.34,1.882,6.86,3.447,10.672,5.339c-1.637-2.281-2.986-4.165-3.824-5.333
				c-1.909-1.379-3.263-2.316-4.571-3.312c-3.491-2.658-6.806-5.6-11.7-5.233c-1.559,0.116-3.16-0.464-4.741-0.458
				c-2.717,0.01-5.425-0.698-8.107,0.975c-2.247,1.402-5.521,0.469-7.642,2.734c0.518-0.75,1.035-1.5,1.552-2.249
				C449.337,88.88,447.218,92.5,445.338,96.83z M510.083,52.781c0.591-0.79,1.436-1.796,2.131-2.897
				c0.493-0.78,1.318-1.53-0.247-2.421c-1.315-0.749-2.85-1.983-3.247-3.313c-1.107-3.7-3.633-5.694-7.037-6.557
				c-4.416-1.118-8.921-2.272-13.021,1.263c-1.72,1.483-3.791,2.56-5.65,3.788c0.209,0.683,0.398,1.299,0.535,1.745
				c0.73-0.068,1.344-0.125,1.94-0.182c-0.095,0.794-0.169,1.418-0.243,2.041c0.915-0.368,1.83-0.736,3.005-1.208
				c1.228,1.478,2.949,2.248,4.95,0.323c1.116,2.446,2.346,2.012,4.014-0.107c-1.573-0.359-2.822-0.645-4.073-0.931
				c1.449-0.677,3.766-0.311,4.146-1.004c1.261-2.305,2.061-0.687,2.749,0.076c1.184,1.311,1.948,3.042,3.244,4.197
				C505.441,49.521,507.885,51.131,510.083,52.781z M480.271,60.47c-0.359-0.026-0.719-0.053-1.078-0.08
				c-1.095,1.609-2.624,3.088-3.153,4.865c-0.479,1.607,0.781,2.981,2.708,3.173c1.535,0.153,4.062-2.14,3.709-3.778
				C482.137,63.169,481.029,61.857,480.271,60.47z M511.587,189.885c0.23-0.501,0.459-1.001,0.689-1.502
				c-2.476-1.054-4.951-2.105-7.427-3.159c-0.144,0.294-0.289,0.588-0.434,0.883C506.807,187.366,509.196,188.626,511.587,189.885z
				 M453.769,33.181c-2.729-1.193-4.729-2.067-6.729-2.941c-0.133,0.293-0.265,0.585-0.397,0.877
				C448.741,31.831,449.78,34.786,453.769,33.181z"/>
			<path fill-rule="evenodd" clip-rule="evenodd" fill="#FFFFFF" d="M404.329,145.013c2.061,2.738,4.072,5.513,6.188,8.205
				c3.421,4.354,6.848,8.706,10.413,12.939c0.964,1.145,2.348,2.039,3.698,2.739c3.839,1.987,7.761,3.814,11.439,6.336
				c-1.145,0.095-2.288,0.189-3.213,0.266c-0.886-0.684-1.601-1.462-2.484-1.883c-3.864-1.832-7.777-3.561-11.671-5.329
				c-0.169-0.076-0.32-0.27-0.481-0.271c-6.128-0.072-12.259-0.294-18.38-0.131c-4.22,0.113-8.435,0.683-12.634,1.194
				c-3.757,0.458-7.486,1.242-9.982,4.455c-1.532,1.97-2.774,4.163-4.483,6.771c1.07-0.583,1.908-0.79,2.352-1.325
				c2.242-2.703,5.267-3.415,8.549-4.02c5.146-0.95,10.188-2.446,15.323-3.46c0.854-0.17,1.959,0.934,3.299,1.632
				c-0.002,0.002,0.31-0.535,0.793-1.372c1.222,0.757,2.698,1.287,3.623,2.313c3.27,3.627,7.979,4.96,11.822,7.658
				c0.716,0.502,2.059,0.016,3.041,0.265c0.877,0.223,1.776,0.696,2.458,1.295c3.824,3.354,7.586,6.779,11.313,10.131
				c-1.684,2.366-3.184,4.473-4.683,6.578c-29.035,0-58.07,0-87.106,0c1.955-2.813,3.843-5.677,5.881-8.429
				c3.118-4.21,6.21-8.452,9.556-12.48c3.279-3.947,6.703-7.802,10.357-11.398c2.91-2.865,6.902-4.817,9.227-8.033
				c2.084-2.881,4.784-3.915,7.491-5.485c1.167-0.678,1.725-2.378,2.609-3.575c3.054-4.131,6.129-8.245,8.994-12.096
				c2.129,2.066,4.079,3.959,6.028,5.851C403.888,144.573,404.109,144.793,404.329,145.013z"/>
			<path fill-rule="evenodd" clip-rule="evenodd" fill="#FFFFFF" d="M404.329,145.013c-0.22-0.22-0.441-0.439-0.662-0.659
				c-1.068-2.118-2.138-4.238-3.182-6.307c-0.098,0.178-0.304,0.55-0.648,1.175c-0.774-2.873,1.602-2.953,2.787-4.043
				c0.873,3.024,1.692,5.834,2.49,8.649C405.301,144.488,406.145,145.65,404.329,145.013z"/>
			<path fill-rule="evenodd" clip-rule="evenodd" fill="#FFFFFF" d="M471.432,179.224c-0.624-0.676-1.249-1.352-1.87-2.025
				c1.451-1.421,5.453-0.661,6.009,1.077c0.109,0.344-0.226,1.188-0.301,1.181c-0.877-0.077-1.746-0.265-2.612-0.441
				c-0.353-0.071-0.694-0.189-1.041-0.286C471.555,178.894,471.493,179.059,471.432,179.224z"/>
			<path fill-rule="evenodd" clip-rule="evenodd" fill="#FFFFFF" d="M463.302,187.061c-1.013-0.574-1.579-0.896-2.215-1.256
				c-0.447,0.689-0.848,1.307-1.229,1.896c-0.236-0.018-0.48,0.026-0.527-0.05c-0.456-0.742-0.878-1.506-1.615-2.8
				c-0.294,0.915-0.544,1.695-0.794,2.475c-0.176-0.002-0.351-0.004-0.525-0.007c0.064-0.87-0.209-2.081,0.259-2.546
				C457.929,183.507,461.514,184.665,463.302,187.061z"/>
			<path fill-rule="evenodd" clip-rule="evenodd" fill="#FFFFFF" d="M446.678,180.832c0.016,0.191-0.256-0.879-0.062-0.971
				c2.039-0.969,4.061-1.2,6.315,1.339c-1.758-0.293-2.851-0.534-3.956-0.635C448.375,180.511,447.755,180.696,446.678,180.832z"/>
			<path fill-rule="evenodd" clip-rule="evenodd" fill="#FFFFFF" d="M495.488,39.158c3.549-1.458,8.997,1.503,9.802,5.284
				C501.262,44.011,500.227,38.116,495.488,39.158z"/>
		</g>
	</g>
</g>
</svg>
