<?xml version="1.0" encoding="utf-8"?>
<!-- Generator: Adobe Illustrator 16.0.0, SVG Export Plug-In . SVG Version: 6.00 Build 0)  -->
<!DOCTYPE svg PUBLIC "-//W3C//DTD SVG 1.1//EN" "http://www.w3.org/Graphics/SVG/1.1/DTD/svg11.dtd">
<svg version="1.1" id="Layer_1" xmlns="http://www.w3.org/2000/svg" xmlns:xlink="http://www.w3.org/1999/xlink" x="0px" y="0px"
	 width="330px" height="200px" viewBox="0 0 330 200" enable-background="new 0 0 330 200" xml:space="preserve">
<g id="Layer_3" display="none">
	<rect display="inline" fill="#1E76BA" width="330.249" height="200"/>
</g>
<g id="uSJJ8E_1_">
	<g>
		<path fill="#FFFFFF" d="M228.629,5.813c1.835,4.752,3.818,9.459,6.011,14.06c0.835,1.753,2.425,3.132,3.499,4.793
			c0.367,0.567-0.078,1.774,0.341,2.174c1.836,1.75,2.624,4.028,3.837,6.104c3.133,5.361,2.444,10.912,2.428,16.468
			c-0.021,6.897,0.003,13.729-1.411,20.657c-1.01,4.949,0.609,10.431,1.016,15.677c0.103,1.336-0.11,2.711,0.102,4.022
			c0.259,1.595,1.107,3.131,1.173,4.715c0.116,2.839-0.311,5.699-0.208,8.541c0.048,1.277,0.646,2.502-0.608,3.502
			c1.909,1.476-0.316,2.427-0.505,3.629c-0.189,1.214-0.633,2.408-1.115,3.548c-0.604,1.426-2.466,2.257-1.614,4.394
			c0.4,1.002,0.15,2.393-0.159,3.51c-0.243,0.881-1.671,2.052-1.472,2.344c2.096,3.078-0.61,2.3-1.958,2.461
			c0.491,1.471,1,2.796,1.362,4.161c0.203,0.764,0.34,1.622,0.201,2.384c-0.436,2.386-4.229,3.342-2.839,6.562
			c0.042,0.095-0.136,0.285-0.187,0.383c-0.329-0.396-0.674-0.812-1.02-1.229c1.065,3.031-1.289,3.5-2.168,4.108
			c-1.086-0.656-1.659-1.004-1.809-1.094c-0.633,2.088-1.168,3.86-1.676,5.539c0.49,0.037,1.541,0.117,2.617,0.199
			c-0.705,2.674-6.49,0.473-4.647,5.352c0.413-0.867,0.765-1.606,1.397-2.938c0.378,1.92,0.636,3.232,1.067,5.428
			c3.354-4.369,6.352-8.271,9.374-12.207c0.36,3.174,0.639,6.445,1.168,9.676c0.134,0.82,0.932,1.955,1.66,2.183
			c3.136,0.978,4.627,3.49,5.018,6.207c0.911,6.327,1.504,12.726,1.786,19.112c0.292,6.576,0.064,13.175,0.064,19.764
			c-23.495,0-46.991,0-70.487,0c-0.755-4.038,1.454-5.988,4.694-7.971c4.708-2.883,8.821-6.723,13.457-9.741
			c2.415-1.573,5.403-2.265,8.792-3.614c-0.5,1.305-0.68,1.773-0.76,1.983c3.282,1.176,6.546,2.414,9.864,3.478
			c0.684,0.219,1.573-0.216,2.364-0.748c-10.404-4.021-19.865-11.242-32.14-7.637c0.031-0.281,0.062-0.564,0.096-0.846
			c4.78-1.646,9.561-3.295,14.34-4.94c-0.02-0.114-0.038-0.229-0.057-0.342c-2.237,0.207-4.475,0.415-6.71,0.623
			c-0.108-0.244-0.219-0.488-0.328-0.731c2.059-0.568,2.123-3.322,4.561-3.574c0.208-0.021,0.306-1.125,0.502-1.92
			c0.245,0.146,0.769,0.457,1.339,0.797c0.258-1.147,0.514-2.282,0.769-3.418c0.11,0.02,0.221,0.037,0.331,0.056
			c0.063,0.921,0.131,1.841,0.195,2.762c0.18,0.021,0.357,0.038,0.538,0.058c0.143-1.486,0.285-2.975,0.455-4.739
			c0.811,0.351,1.453,0.629,2.099,0.907c0.164-0.217,0.329-0.435,0.495-0.651c-1.864-1.922-3.729-3.844-5.516-5.687
			c-0.189,0.109,0.262-0.147,0.713-0.406c-0.053-0.165-0.106-0.331-0.16-0.496c-0.707,0.113-1.415,0.229-2.804,0.451
			c0.684-1.422,1.211-2.521,1.685-3.504c-3.469,0.727-9.596-1.705-11.784-5.188c0.154,1.299,0.225,1.887,0.271,2.288
			c-0.933,0.281-1.852,0.558-2.771,0.835c0.034,0.166,0.067,0.333,0.102,0.499c0.997,0.125,1.993,0.252,2.99,0.377
			c0.087,0.333,0.175,0.665,0.264,0.997c-1.948,0.632-3.896,1.264-6.271,2.032c1.493-3.798-0.795-4.323-3.069-4.841
			c-0.596,1.526-1.206,3.088-1.813,4.648c-0.194-0.02-0.39-0.037-0.583-0.055c0.108-1.143,0.22-2.282,0.396-4.127
			c-1.201,1.115-2.014,1.869-2.933,2.723c-0.152-0.537-0.441-1.564-0.758-2.685c-0.913,0.103-1.967,0.221-3.207,0.36
			c0.666,1.021,1.259,1.93,2.199,3.373c-1.773-0.974-2.895-1.587-3.643-1.996c-0.869,0.406-1.477,0.92-2.076,0.91
			c-0.597-0.009-1.186-0.542-2-0.959c0.592-0.473,0.699-0.568,0.705-0.562c0.247,0.247,0.486,0.504,0.727,0.759
			c0.165-0.163,0.382-0.287,0.368-0.379c-0.251-1.775-1.03-2.568-2.805-1.465c-0.14,0.087-0.362,0.042-0.492,0.054
			c-0.86-2.18-1.715-4.341-2.898-7.338c-0.276,1.058-0.407,1.558-0.658,2.513c-0.755-1.508-1.102-2.201-1.655-3.308
			c-0.25,0.968-0.396,1.53-0.76,2.942c-1.579-5.735-5.73-9.014-7.907-13.539c0.121-0.025,0.656-0.14,1.19-0.252
			c0.002-0.16,0.002-0.32,0.003-0.48c-0.909,0-1.817,0-3.05,0c-0.539-1.275-1.135-2.684-1.921-4.543
			c0.904,0.266,1.356,0.396,1.811,0.529c0.118-0.129,0.235-0.258,0.354-0.387c-0.625-0.57-1.248-1.142-1.594-1.455
			c0-2.008,0-4.012,0-6.015c0.124-0.026,0.248-0.052,0.372-0.077c0.193,0.744,0.388,1.488,0.617,2.371
			c2.548-3.426-2.728-3.525-2.098-6.622c-0.404,0.868-0.543,1.164-0.731,1.568c-0.781-1.418-1.53-2.776-2.568-4.659
			c0.255-2.006,0.612-4.844,0.991-7.852c-0.784,0.035-1.538,0.069-2.41,0.107c0.05-0.689,0.104-1.465,0.155-2.173
			c-0.793-0.132-1.507-0.25-2.22-0.368c0.35-0.445,0.747-0.859,1.039-1.34c1.19-1.954,0.553-5.523-0.608-7.311
			c-0.667-1.023-0.664-2.767-0.392-4.064c0.604-2.875,0.229-5.245-2.288-6.812c1.28,0,3.046,0.509,3.729-0.133
			c0.789-0.742,0.623-2.498,0.896-3.949c-1.912,0.25-3.326,0.432-4.738,0.615c2.195-0.729,3.418-1.902,3.432-4.35
			c0.003-0.625,0.938-1.294,1.53-1.852c0.354-0.332,0.873-0.486,1.316-0.722c-0.703-0.116-1.411-0.325-2.109-0.3
			c-0.262,0.009-0.502,0.566-1.348,0.607c0.356-1.547,0.767-3.086,1.056-4.646c0.277-1.498,0.431-3.019,0.702-5.014
			c-1.642-0.12-3.608-0.259-5.573-0.411c-0.588-0.045-1.584,0.031-1.688-0.232c-0.691-1.724-1.711-3.553-1.618-5.295
			c0.11-2.09,0.017-4.685,2.578-5.876c0.192-0.09,0.512-0.317,0.551-0.276c1.578,1.716,3.074,0.904,4.837,0.18
			c1.227-0.504,4.27,2.73,4.357,4.312c0.056,1.015,0.011,2.033,0.011,3.049c0.324,0.36,0.65,0.721,0.975,1.08
			c0.817-1.356,2.302-2.705,2.319-4.072c0.048-3.572,2.563-3.154,4.669-3.436c1.969-0.264,2.127-0.488,1.239-2.154
			c1.144-0.877,2.247-1.724,3.376-2.59c1.295,1.89,3.409,3.013,5.94,1.485c1.718-1.034,3.073-2.666,4.902-4.312
			c0.904,1.051,1.956,2.805,3.482,3.89c1.369,0.974,3.261,1.211,5.101,1.241c-1.771-1.324-3.544-2.647-5.314-3.971
			c0.146-0.238,0.297-0.478,0.444-0.715c1.515,0.77,3.028,1.538,4.543,2.309c0.259-0.278,0.52-0.557,0.778-0.836
			c-1.474-1.588-2.775-3.389-4.45-4.727c-5.194-4.15-11.232-4.223-17.406-3.095c-1.629,0.297-3.2,0.897-4.989,0.799
			c-0.84,0.604-1.68,1.208-2.254,1.622c-0.134-1.488-0.223-2.497-0.312-3.506c-0.217,0.025-0.434,0.05-0.65,0.074
			c0.549-0.995,1.098-1.991,1.744-3.168c-1.042-0.684-3.766-0.744-1.209-2.937c-1.072,0.106-1.972,0.195-2.562,0.253
			c-0.242,1.276-0.47,2.469-0.696,3.664c-0.398-0.076-0.799-0.154-1.198-0.23c0.521-2.879,1.06-5.756,1.552-8.641
			c0.269-1.578,0.82-3.217,0.617-4.746c-0.63-4.742,3.335-6.736,5.614-9.649c1.294-1.654,3.424-2.654,5.732-4.359
			c-1.521,0.317-2.396,0.499-2.715,0.565c0.676-1.461,1.433-3.1,2.189-4.736c26.552,0,40.826,0,67.378,0
			C221.032-0.001,227.532,0.832,228.629,5.813z M155.066,122.226c-0.225,0.438-0.509,0.73-0.454,0.928
			c0.686,2.479,3.128,5.869,5.115,7.594c1.319,1.145,2.596,2.416,3.595,3.84c1.882,2.684,4.079,4.689,7.452,5.305
			c2.257,0.409,4.553,1.066,4.741,4.047c0.005,0.066,0.288,0.115,0.664,0.254c0.296-0.666,0.595-1.34,1.223-2.75
			c1.015,1.279,2.199,2.182,2.539,3.332c0.628,2.129,1.02,3.433,2.88,0.83c0.33-0.459,1.015-0.666,1.545-0.996
			c0.192,0.447,0.348,0.806,0.21,0.488c7.375-3.557,14.646-7.062,21.999-10.605c-1.189-4.108-4.17-0.311-5.814-1.946
			c-0.08-0.884-0.173-1.896-0.269-2.948c-1.077-0.088-2.018-0.164-2.957-0.24c0.332,0.897,0.575,1.555,0.817,2.211
			c-3.397-2.438-3.706-2.45-5.07,0.135c-1.493-1.236-2.96-2.449-4.593-3.803c-0.195,0.557-0.369,1.052-0.484,1.377
			c-0.656-0.043-1.275-0.166-1.875-0.1c-0.539,0.061-1.3,0.639-1.541,0.45c-1.675-1.312-4.696-0.974-4.904-4.233
			c-0.052-0.804-1.771-1.406-2.509-2.281c-1.325-1.571-2.663,0.688-4.036-0.114c0.195-0.304,0.412-0.513,0.479-0.763
			c0.219-0.819,0.384-1.653,0.568-2.482c-0.156-0.023-0.312-0.049-0.469-0.072c-0.456,0.617-0.913,1.234-1.392,1.881
			c-0.685-1.554-1.279-2.9-1.874-4.248c-0.24,0.072-0.48,0.146-0.722,0.22c-0.14,0.842-0.277,1.684-0.344,2.091
			c-1.312,0.389-2.256,0.666-3.199,0.945c-0.326-1.26-0.651-2.518-0.932-3.592c-1.429,1.621-2.837,3.222-4.352,4.939
			c-0.346-0.66-0.63-1.204-0.938-1.79C160.072,123.953,159.458,124.214,155.066,122.226z M174.654,36.06
			c0.917,4.035,1.75,7.7,2.591,11.405c0.757-0.296,1.705-0.665,2.934-1.144c-0.923,2.8-1.756,5.402-2.646,7.986
			c-0.354,1.03-0.583,2.281-1.307,2.979c-2.72,2.617-3.858,5.827-4.396,9.458c-0.627,4.233,1.46,6.668,5.641,5.854
			c1.425-0.277,4.177,0.623,3.808-2.68c-0.558,0.053-1.112,0.107-1.669,0.158c-2.915,0.27-4.639-1.193-4.416-3.977
			c0.186-2.297,0.456-4.623,1.059-6.834c0.246-0.908,1.361-1.925,2.273-2.166c0.49-0.131,1.386,1.273,2.104,1.98
			c0.362,0.357,0.738,0.705,0.563,0.538c-1.076,1.319-1.881,2.655-3.013,3.598c-1.182,0.985-1.533,2.32-0.86,3.23
			c0.563,0.761,2.076,0.864,3.196,1.151c0.631,0.162,1.597-0.16,1.935,0.191c2.496,2.605,5.417,1.387,8.136,0.848
			c0.813-0.162,1.514-1.584,1.996-2.562c0.543-1.103,0.779-2.354,1.221-3.763c-0.184-0.027-0.903-0.322-1.074-0.129
			c-1.508,1.701-3.162,0.642-3.924-0.352c-1.661-2.166-3.209-4.589-4.029-7.154c-0.397-1.246-0.889-2.929-0.829-4.048
			c0.118-2.241,0.082-4.366-0.459-6.519c-0.13-0.52-0.224-1.484-0.385-1.495c-2.698-0.187-2.404-2.366-2.682-3.728
			C178.372,37.885,176.579,37.004,174.654,36.06z M163.777,96.829c6.761-1.527,12.927-3.369,19.228-4.211
			c5.812-0.777,11.825-1.303,17.394,1.835c3.34,1.882,6.86,3.446,10.672,5.339c-1.637-2.281-2.986-4.165-3.824-5.333
			c-1.908-1.379-3.263-2.315-4.57-3.312c-3.491-2.658-6.807-5.601-11.7-5.233c-1.56,0.116-3.16-0.464-4.741-0.458
			c-2.717,0.01-5.425-0.698-8.107,0.975c-2.246,1.402-5.521,0.469-7.642,2.734c0.519-0.75,1.035-1.5,1.552-2.249
			C167.776,88.879,165.657,92.499,163.777,96.829z M228.522,52.78c0.591-0.79,1.436-1.797,2.131-2.897
			c0.493-0.78,1.318-1.53-0.247-2.421c-1.314-0.749-2.85-1.982-3.247-3.312c-1.106-3.7-3.633-5.694-7.037-6.558
			c-4.416-1.118-8.921-2.272-13.021,1.263c-1.72,1.483-3.791,2.561-5.65,3.789c0.209,0.683,0.398,1.299,0.535,1.744
			c0.73-0.068,1.344-0.125,1.94-0.182c-0.096,0.794-0.169,1.418-0.243,2.041c0.915-0.368,1.83-0.736,3.005-1.208
			c1.228,1.478,2.949,2.248,4.95,0.323c1.116,2.445,2.346,2.012,4.014-0.107c-1.573-0.359-2.822-0.645-4.073-0.931
			c1.449-0.677,3.767-0.312,4.146-1.005c1.261-2.305,2.061-0.687,2.749,0.076c1.184,1.312,1.948,3.043,3.244,4.197
			C223.881,49.521,226.324,51.13,228.522,52.78z M198.711,60.47c-0.359-0.027-0.72-0.054-1.078-0.08
			c-1.096,1.608-2.624,3.088-3.153,4.864c-0.479,1.606,0.781,2.981,2.708,3.173c1.535,0.153,4.062-2.14,3.709-3.777
			C200.576,63.168,199.469,61.856,198.711,60.47z M230.026,189.884c0.23-0.501,0.459-1.001,0.689-1.502
			c-2.477-1.054-4.951-2.105-7.428-3.158c-0.144,0.293-0.289,0.588-0.434,0.883C225.246,187.365,227.636,188.625,230.026,189.884z
			 M172.208,33.181c-2.729-1.193-4.729-2.067-6.729-2.941c-0.133,0.293-0.265,0.585-0.397,0.877
			C167.181,31.83,168.22,34.785,172.208,33.181z"/>
		<path fill="#FFFFFF" d="M122.769,145.013c2.061,2.737,4.072,5.512,6.188,8.204c3.421,4.354,6.849,8.706,10.413,12.939
			c0.964,1.145,2.349,2.038,3.698,2.739c3.839,1.986,7.761,3.813,11.439,6.336c-1.146,0.095-2.288,0.188-3.214,0.266
			c-0.886-0.684-1.601-1.462-2.483-1.883c-3.864-1.832-7.777-3.561-11.671-5.329c-0.169-0.076-0.32-0.271-0.481-0.271
			c-6.128-0.072-12.259-0.295-18.38-0.132c-4.22,0.113-8.436,0.683-12.634,1.194c-3.757,0.458-7.486,1.242-9.981,4.455
			c-1.533,1.97-2.774,4.162-4.484,6.771c1.07-0.584,1.908-0.791,2.353-1.326c2.242-2.703,5.267-3.414,8.55-4.02
			c5.146-0.95,10.188-2.445,15.322-3.46c0.854-0.17,1.959,0.935,3.299,1.632c-0.002,0.002,0.311-0.535,0.793-1.372
			c1.223,0.757,2.698,1.287,3.623,2.313c3.271,3.627,7.979,4.96,11.822,7.658c0.716,0.502,2.059,0.016,3.041,0.265
			c0.877,0.224,1.776,0.696,2.458,1.295c3.824,3.354,7.586,6.778,11.312,10.131c-1.684,2.366-3.184,4.474-4.683,6.578
			c-29.035,0-58.07,0-87.105,0c1.955-2.813,3.842-5.677,5.881-8.429c3.117-4.211,6.209-8.452,9.556-12.48
			c3.278-3.947,6.703-7.802,10.356-11.398c2.91-2.864,6.902-4.816,9.228-8.032c2.084-2.882,4.784-3.915,7.491-5.485
			c1.167-0.678,1.725-2.378,2.609-3.574c3.053-4.132,6.129-8.246,8.993-12.097c2.129,2.065,4.079,3.959,6.028,5.851
			C122.327,144.572,122.549,144.792,122.769,145.013z"/>
		<path fill="#FFFFFF" d="M122.769,145.013c-0.22-0.221-0.441-0.439-0.662-0.66c-1.068-2.117-2.138-4.237-3.182-6.307
			c-0.099,0.178-0.305,0.551-0.648,1.176c-0.773-2.873,1.603-2.953,2.787-4.043c0.873,3.023,1.692,5.834,2.49,8.648
			C123.74,144.487,124.584,145.649,122.769,145.013z"/>
		<path fill="#FFFFFF" d="M189.871,179.224c-0.624-0.677-1.249-1.353-1.869-2.025c1.45-1.422,5.452-0.661,6.009,1.076
			c0.108,0.345-0.227,1.188-0.302,1.182c-0.877-0.077-1.745-0.266-2.611-0.441c-0.354-0.07-0.694-0.188-1.041-0.285
			C189.994,178.894,189.933,179.058,189.871,179.224z"/>
		<path fill="#FFFFFF" d="M181.741,187.06c-1.013-0.574-1.579-0.896-2.215-1.256c-0.447,0.689-0.848,1.307-1.229,1.896
			c-0.236-0.018-0.48,0.025-0.527-0.051c-0.456-0.741-0.878-1.506-1.615-2.799c-0.294,0.914-0.544,1.694-0.794,2.475
			c-0.176-0.002-0.351-0.004-0.524-0.008c0.063-0.869-0.21-2.08,0.259-2.545C176.368,183.506,179.953,184.664,181.741,187.06z"/>
		<path fill="#FFFFFF" d="M165.117,180.831c0.017,0.191-0.256-0.879-0.062-0.971c2.039-0.969,4.061-1.2,6.314,1.339
			c-1.758-0.293-2.851-0.534-3.956-0.636C166.814,180.511,166.194,180.694,165.117,180.831z"/>
		<path fill="#FFFFFF" d="M213.928,39.157c3.549-1.458,8.997,1.503,9.802,5.283C219.701,44.01,218.666,38.115,213.928,39.157z"/>
	</g>
</g>
</svg>
