<?xml version="1.0" encoding="utf-8"?>
<!-- Generator: Adobe Illustrator 16.0.0, SVG Export Plug-In . SVG Version: 6.00 Build 0)  -->
<!DOCTYPE svg PUBLIC "-//W3C//DTD SVG 1.1//EN" "http://www.w3.org/Graphics/SVG/1.1/DTD/svg11.dtd">
<svg version="1.1" xmlns="http://www.w3.org/2000/svg" xmlns:xlink="http://www.w3.org/1999/xlink" x="0px" y="0px" width="720px"
	 height="200px" viewBox="0 0 720 200" enable-background="new 0 0 720 200" xml:space="preserve">
<g id="Layer_2">
</g>
<g id="Layer_1">
	<path opacity="0.4" fill="#F2F2F2" d="M217.149,94.012c2.598,2.621,3.899,7.068,3.899,13.343c0,6.227-1.536,10.987-4.607,14.283
		c3.537-3.307,5.307-8.3,5.307-14.983c0-6.274-1.3-10.723-3.898-13.343c-2.596-2.62-7.023-3.931-13.28-3.931h-7.528v0.701h6.829
		C210.126,90.081,214.553,91.391,217.149,94.012z M267.915,114.51c2.398,3.831,3.598,9.587,3.598,17.271
		c0,7.752-1.2,13.565-3.598,17.442c-0.469,0.756-0.983,1.437-1.543,2.045c0.839-0.771,1.587-1.685,2.244-2.745
		c2.399-3.877,3.599-9.69,3.599-17.442c0-7.685-1.2-13.441-3.599-17.272c-2.4-3.83-6.011-5.745-10.832-5.745
		c-3.901,0-7.012,1.265-9.335,3.795c2.236-2.062,5.113-3.096,8.634-3.096C261.905,108.763,265.514,110.68,267.915,114.51z
		 M286.989,111.075c0.444,0.608,0.665,2.428,0.665,5.458v30.735c0,2.69-0.18,4.429-0.538,5.221c0.25-0.133,0.437-0.28,0.557-0.445
		c0.455-0.622,0.682-2.446,0.682-5.475v-30.737c0-3.029-0.222-4.848-0.665-5.457c-0.442-0.61-1.823-1.006-4.14-1.188l-0.647-0.032
		v-2.47h-0.7v3.17l0.648,0.034C285.167,110.068,286.547,110.465,286.989,111.075z M308.424,135.973
		c2.191,2.01,3.287,4.65,3.287,7.923c0,2.731-0.759,4.948-2.274,6.649c0.179-0.159,0.353-0.324,0.521-0.501
		c1.637-1.727,2.453-4.01,2.453-6.85c0-3.271-1.095-5.911-3.288-7.922c-2.191-2.011-5.048-3.017-8.57-3.017h-2.112v0.7h1.412
		C303.374,132.956,306.231,133.963,308.424,135.973z M309.838,130.4c3.221-1.309,5.697-2.895,7.435-4.755
		c-1.958,1.817-4.68,3.354-8.167,4.601C309.355,130.295,309.597,130.348,309.838,130.4z M307.418,112.38
		c1.681,1.569,2.521,3.925,2.521,7.065c0,3.166-0.734,5.593-2.199,7.281c0.129-0.113,0.256-0.23,0.377-0.353
		c1.682-1.696,2.521-4.239,2.521-7.629c0-3.14-0.84-5.496-2.521-7.066c-1.681-1.569-4.202-2.354-7.564-2.354h-2.112v0.7h1.412
		C303.215,110.024,305.736,110.81,307.418,112.38z M183.906,91.73c0.804,0.923,1.204,3.795,1.204,8.619v51.447
		c0,4.408-0.337,7.193-1.01,8.356c0.212-0.131,0.381-0.271,0.506-0.419c0.803-0.946,1.205-3.824,1.205-8.638V99.647
		c0-4.822-0.401-7.695-1.205-8.618c-0.8-0.923-3.36-1.527-7.674-1.811l-1.016-0.106v-2.615h-0.7v3.316l1.017,0.104
		C180.546,90.204,183.105,90.807,183.906,91.73z M239.024,150.572c-4.565-4.737-6.848-11.194-6.848-19.372
		c0-8.148,2.255-14.581,6.763-19.298c-0.208,0.198-0.414,0.401-0.615,0.609c-4.566,4.726-6.849,11.188-6.849,19.388
		c0,8.18,2.282,14.637,6.849,19.373c4.566,4.736,10.813,7.104,18.741,7.104c7.906,0,14.142-2.367,18.708-7.104
		c0.023-0.024,0.045-0.05,0.069-0.075c-4.504,4.319-10.529,6.479-18.076,6.479C249.838,157.677,243.591,155.309,239.024,150.572z
		 M319.022,153.264c-2.771,2.101-6.939,3.151-12.505,3.151h-23.614v-2.506c-0.018,0.001-0.035,0.003-0.052,0.004l-0.648,0.034v3.169
		h23.614c5.566,0,9.734-1.051,12.506-3.151c0.529-0.402,1.006-0.842,1.435-1.318C319.523,152.86,319.281,153.068,319.022,153.264z
		 M217.215,127.978c3.971-1.496,7.168-3.518,9.59-6.064c-2.527,2.409-5.801,4.311-9.827,5.703L217.215,127.978z M175.916,162.294
		l-0.7,0.037v3.315h29.627v-0.699h-28.927V162.294z M206.106,130.078h-9.173v0.701h8.474l21.47,34.867h20.179v-0.699h-19.479
		L206.106,130.078z"/>
	<g>
		<path opacity="0.4" fill="#F2F2F2" d="M188.919,39.149c0.11,0.096,0.199,0.746,0.27,1.949l0.026,0.249h1.452v-0.276h-1.176
			l-0.026-0.249c-0.07-1.204-0.159-1.854-0.269-1.949c-0.108-0.096-0.808-0.145-2.099-0.145h-4.227v0.276h3.95
			C188.111,39.005,188.811,39.054,188.919,39.149z M189.659,55.752c0.054-0.018,0.096-0.037,0.125-0.058
			c0.212-0.15,0.348-0.79,0.41-1.916h-0.261l-0.012,0.235C189.875,54.869,189.788,55.448,189.659,55.752z M172.445,39.238
			c0.196,0.226,0.294,0.929,0.294,2.109v5.076h0.276v-5.352c0-1.181-0.099-1.884-0.294-2.11c-0.197-0.225-0.827-0.373-1.892-0.442
			l-0.235-0.025v-0.535h-0.275v0.812l0.235,0.025C171.618,38.866,172.249,39.013,172.445,39.238z M187.586,47.986
			c0.178,0.126,0.284,0.517,0.319,1.175l0.014,0.234h1.046v-0.276h-0.769l-0.014-0.234c-0.035-0.657-0.142-1.048-0.32-1.174
			c-0.179-0.125-0.661-0.189-1.446-0.189h-3.546v0.276h3.271C186.925,47.798,187.407,47.861,187.586,47.986z M177.666,38.794
			l0.007,0.001c1.056,0.07,1.682,0.218,1.879,0.443c0.195,0.226,0.294,0.929,0.294,2.109v12.588c0,1.004-0.072,1.663-0.215,1.979
			c0.086-0.043,0.152-0.09,0.196-0.142c0.196-0.231,0.294-0.936,0.294-2.113V41.072c0-1.181-0.098-1.884-0.294-2.11
			c-0.197-0.225-0.822-0.373-1.878-0.442l-0.007-0.001l-0.007,0.001c-1.064,0.07-1.692,0.218-1.885,0.442
			c-0.028,0.035-0.055,0.081-0.08,0.137c0.3-0.148,0.862-0.25,1.688-0.304L177.666,38.794z M160.486,39.238
			c0.196,0.226,0.294,0.929,0.294,2.109v12.588c0,1.004-0.072,1.663-0.215,1.979c0.087-0.043,0.152-0.09,0.196-0.142
			c0.196-0.231,0.295-0.936,0.295-2.113V41.072c0-1.181-0.099-1.884-0.295-2.11c-0.196-0.225-0.822-0.373-1.878-0.442l-0.249-0.025
			v-0.535h-0.065v0.833l0.039,0.004C159.663,38.866,160.29,39.013,160.486,39.238z M187.759,46.372
			c0.04-0.01,0.075-0.021,0.103-0.034c0.175-0.082,0.28-0.481,0.316-1.196h-0.259l-0.014,0.235
			C187.884,45.834,187.835,46.165,187.759,46.372z M172.739,53.936c0,1.008-0.069,1.669-0.208,1.983
			c0.087-0.043,0.153-0.089,0.196-0.14c0.191-0.228,0.288-0.934,0.288-2.12v-6.111h-9.212v0.276h8.936V53.936z M158.634,56.498
			c-0.008,0-0.018,0.001-0.026,0.002l-0.25,0.013v0.811h7.589v-0.276h-7.313V56.498z M157.182,40.967
			c-0.026-0.322-0.039-0.707-0.039-1.151c0-0.593-0.174-0.916-0.523-0.968c-0.55-0.079-1.182-0.119-1.895-0.119h-3.091v0.276h2.815
			c0.713,0,1.344,0.04,1.894,0.118c0.349,0.053,0.523,0.375,0.523,0.969c0,0.445,0.013,0.829,0.04,1.151l0.013,0.262h1.374v-0.276
			h-1.098L157.182,40.967z M170.594,57.048v-0.551c-0.014,0.001-0.026,0.002-0.041,0.003l-0.235,0.013v0.811h21.067v-0.276H170.594z
			 M165.947,38.771v-0.249c-1.047,0.071-1.666,0.218-1.855,0.44c-0.029,0.035-0.056,0.081-0.08,0.137
			c0.3-0.148,0.863-0.25,1.688-0.304L165.947,38.771z M141.951,37.959h-0.276v3.545h1.375l0.012-0.262c0-0.004,0-0.01,0.001-0.014
			h-1.112V37.959z M148.61,53.936c0,1.004-0.078,1.667-0.231,1.987c0.087-0.045,0.153-0.095,0.2-0.15
			c0.205-0.249,0.308-0.954,0.308-2.113v-14.93h-3.088c-0.724,0-1.357,0.04-1.897,0.119c-0.191,0.028-0.329,0.135-0.419,0.317
			c0.045-0.019,0.091-0.034,0.143-0.042c0.541-0.078,1.173-0.118,1.898-0.118h3.088V53.936z M146.151,56.506l-0.276,0.007v0.811
			h8.23v-0.276h-7.955V56.506z"/>
		<g>
			<path fill="#FFFFFF" d="M149.301,38.315h-3.089c-0.724,0-1.357,0.04-1.896,0.119c-0.358,0.052-0.537,0.375-0.537,0.968
				c0,0.445-0.008,0.829-0.026,1.152l-0.013,0.261h-1.375v-3.545h16.618v3.545h-1.374l-0.012-0.261
				c-0.026-0.323-0.039-0.707-0.039-1.152c0-0.593-0.175-0.916-0.524-0.968c-0.55-0.079-1.181-0.119-1.894-0.119h-3.092v14.93
				c0,1.16,0.105,1.864,0.314,2.113c0.21,0.249,0.833,0.399,1.872,0.452l0.563,0.012v0.812h-8.231v-0.812l0.563-0.012
				c1.038-0.053,1.659-0.203,1.864-0.452s0.309-0.953,0.309-2.113V38.315z"/>
			<path fill="#FFFFFF" d="M164.217,47.134v6.111c0,1.177,0.097,1.882,0.288,2.113c0.192,0.231,0.821,0.382,1.885,0.452l0.248,0.012
				v0.812h-7.588v-0.812l0.249-0.012c1.056-0.07,1.682-0.221,1.877-0.452c0.196-0.231,0.295-0.936,0.295-2.113V40.658
				c0-1.18-0.099-1.883-0.295-2.109c-0.196-0.226-0.822-0.374-1.877-0.444l-0.249-0.024v-0.812h7.588v0.812l-0.248,0.024
				c-1.064,0.07-1.693,0.218-1.885,0.444c-0.191,0.226-0.288,0.929-0.288,2.109v5.352h9.212v-5.352c0-1.18-0.099-1.883-0.295-2.109
				c-0.196-0.226-0.826-0.374-1.891-0.444l-0.235-0.024v-0.812h7.589v0.812l-0.249,0.024c-1.065,0.07-1.692,0.218-1.884,0.444
				s-0.289,0.929-0.289,2.109v12.587c0,1.177,0.097,1.882,0.289,2.113c0.192,0.231,0.819,0.382,1.884,0.452l0.249,0.012v0.812
				h-7.589v-0.812l0.235-0.012c1.074-0.07,1.706-0.219,1.897-0.445s0.289-0.933,0.289-2.12v-6.111H164.217z"/>
			<path fill="#FFFFFF" d="M192.077,56.634h-13.962v-0.812l0.249-0.012c1.055-0.07,1.681-0.221,1.877-0.452
				c0.197-0.231,0.295-0.936,0.295-2.113V40.658c0-1.18-0.098-1.883-0.295-2.109s-0.822-0.374-1.877-0.444l-0.249-0.024v-0.812
				h13.241v3.389h-1.451l-0.026-0.249c-0.07-1.204-0.16-1.853-0.269-1.949c-0.108-0.096-0.808-0.145-2.099-0.145h-4.228v7.747
				l3.546-0.013c0.785,0,1.268-0.042,1.446-0.124c0.179-0.083,0.285-0.496,0.32-1.237l0.014-0.235h1.045v4.252h-1.045l-0.014-0.234
				c-0.035-0.657-0.142-1.048-0.32-1.174c-0.179-0.125-0.661-0.188-1.446-0.188h-3.546v6.137c0,1.012,0.121,1.642,0.36,1.891
				c0.24,0.248,0.862,0.373,1.865,0.373h2.067c1.536,0,2.41-0.076,2.623-0.229c0.215-0.152,0.352-0.804,0.413-1.956l0.013-0.236
				h1.453V56.634z"/>
		</g>
	</g>
	<path opacity="0.4" fill="#F2F2F2" d="M269.645,34.278c0,4.363-1.205,7.836-3.609,10.422c0.146-0.135,0.292-0.272,0.433-0.414
		c2.585-2.614,3.877-6.183,3.877-10.708c0-8.095-3.99-12.143-11.973-12.143h-4.723v0.701h4.022
		C265.654,22.136,269.645,26.183,269.645,34.278z M278.13,46.452c-1.78,1.684-4.004,3.07-6.683,4.156l0.22,0.305
		C274.287,49.736,276.442,48.249,278.13,46.452z M176.111,18.003h-0.7v12.986h6.24l0.025-0.7h-5.565V18.003z M190.953,76.442
		l-0.701,0.04v3.92h28.627v-0.7h-27.927V76.442z M239.646,23.436c0.549,0.754,0.823,3.005,0.823,6.752v38.029
		c0,3.45-0.238,5.634-0.715,6.56c0.25-0.146,0.443-0.309,0.573-0.486c0.562-0.768,0.843-3.027,0.843-6.774V29.488
		c0-3.748-0.274-5.999-0.824-6.753c-0.547-0.755-2.254-1.245-5.121-1.469l-0.801-0.042v-3.22h-0.004v3.958l0.105,0.006
		C237.392,22.19,239.099,22.68,239.646,23.436z M198.052,68.217c0,3.346-0.25,5.498-0.747,6.46c0.214-0.119,0.38-0.248,0.498-0.386
		c0.632-0.741,0.948-2.999,0.948-6.774V21.435h-10.16c-2.614,0-4.294,0.359-5.038,1.076c-0.106,0.102-0.206,0.238-0.297,0.401
		c0.873-0.517,2.417-0.776,4.636-0.776h10.16V68.217z M453.207,23.436c0.547,0.754,0.82,3.005,0.82,6.752v14.478h0.702V29.488
		c0-3.748-0.273-5.999-0.822-6.753c-0.548-0.755-2.256-1.245-5.122-1.469l-0.802-0.042v-3.22h-0.701v3.92l0.803,0.043
		C450.951,22.19,452.659,22.68,453.207,23.436z M473.743,21.266c-2.895,0.224-4.616,0.713-5.164,1.469
		c-0.046,0.062-0.088,0.137-0.13,0.22c0.839-0.486,2.368-0.816,4.594-0.987l0.759-0.043v-0.66L473.743,21.266z M435.015,21.924
		v-0.66l-0.059,0.002c-2.896,0.224-4.618,0.713-5.166,1.469c-0.045,0.062-0.087,0.137-0.127,0.22
		c0.838-0.486,2.367-0.816,4.593-0.987L435.015,21.924z M454.027,68.217c0,3.45-0.238,5.634-0.714,6.56
		c0.25-0.146,0.442-0.309,0.572-0.486c0.562-0.768,0.844-3.027,0.844-6.774V49.093h-25.761v0.7h25.059V68.217z M414.418,23.436
		c0.549,0.754,0.822,3.005,0.822,6.752v38.029c0,3.45-0.238,5.634-0.715,6.56c0.25-0.146,0.443-0.309,0.572-0.486
		c0.562-0.768,0.843-3.027,0.843-6.774V29.488c0-3.748-0.274-5.999-0.822-6.753c-0.548-0.755-2.257-1.245-5.122-1.469l-0.801-0.042
		v-3.22h-0.005v3.958l0.104,0.006C412.161,22.19,413.87,22.68,414.418,23.436z M447.983,76.444l-0.701,0.038v3.92h26.52v-0.7
		h-25.818V76.444z M343.334,22.735c-0.042,0.058-0.081,0.129-0.119,0.206c0.826-0.479,2.316-0.803,4.479-0.973l0.758-0.043v-0.66
		l-0.058,0.002C345.556,21.49,343.869,21.979,343.334,22.735z M373.505,68.99c0.011-0.463,0.019-0.952,0.019-1.473V21.435h-10.16
		c-2.615,0-4.295,0.359-5.04,1.076c-0.106,0.102-0.204,0.238-0.296,0.401c0.872-0.517,2.416-0.776,4.636-0.776h10.16v46.082
		c0,0.521-0.007,1.01-0.02,1.473h13.129c-0.014-0.227-0.027-0.46-0.041-0.7H373.505z M350.883,18.003h-0.702v12.986h6.241l0.024-0.7
		h-5.564V18.003z M402.909,29.108c-0.028-3.682-0.414-5.881-1.159-6.597c-0.745-0.717-2.424-1.076-5.038-1.076h-10.16v0.701h9.46
		c2.615,0,4.293,0.358,5.038,1.075c0.746,0.716,1.13,2.916,1.159,6.598l0.043,1.181h6.238v-0.7h-5.538L402.909,29.108z
		 M409.195,76.444l-0.7,0.038v3.92h26.52v-0.7h-25.819V76.444z M307.819,22.735c-0.045,0.062-0.089,0.139-0.13,0.221
		c0.838-0.486,2.364-0.817,4.584-0.988l0.764-0.043v-0.661l-0.064,0.003C310.088,21.49,308.371,21.979,307.819,22.735z
		 M234.425,76.444l-0.7,0.038v3.92h19.206v-0.7h-18.506V76.444z M336.293,56.134V29.488c0-3.748-0.274-5.999-0.822-6.753
		c-0.547-0.755-2.27-1.245-5.165-1.469l-0.759-0.042v-3.22h-0.7v3.92l0.758,0.043c2.896,0.223,4.618,0.712,5.165,1.468
		c0.549,0.754,0.822,3.005,0.822,6.752v26.646c0,5.354-0.648,9.638-1.945,12.856h6.033c0.088-0.229,0.175-0.463,0.256-0.7h-5.588
		C335.645,65.772,336.293,61.488,336.293,56.134z M269.523,68.99l-10.519-16.651h-5.355v0.701h4.655l10.519,16.65h15.148
		c-0.17-0.227-0.346-0.46-0.525-0.7H269.523z M296.291,68.99c-1.549-3.565-2.326-7.906-2.326-13.025V29.783
		c0-3.766-0.282-6.043-0.844-6.83c-0.562-0.787-2.262-1.265-5.101-1.433l-0.801-0.085v-3.432h-0.7v4.132l0.8,0.084
		c2.84,0.168,4.54,0.646,5.102,1.433c0.562,0.787,0.845,3.064,0.845,6.831v26.182c0,5.119,0.776,9.46,2.326,13.025h12.251
		c-0.075-0.228-0.147-0.462-0.217-0.7H296.291z M228.139,29.108c-0.028-3.682-0.415-5.881-1.159-6.597
		c-0.745-0.717-2.424-1.076-5.038-1.076h-10.16v0.701h9.459c2.614,0,4.293,0.358,5.039,1.075c0.745,0.716,1.132,2.916,1.16,6.598
		l0.042,1.181h6.239v-0.7h-5.54L228.139,29.108z"/>
	<path fill="#FFFFFF" d="M330.423,20.349l0.759,0.042c2.896,0.224,4.617,0.712,5.166,1.468c0.548,0.754,0.822,3.006,0.822,6.753
		v26.646c0,5.354-0.649,9.639-1.945,12.856h6.032c1.436-3.721,2.154-8.343,2.154-13.868V28.612c0-3.747,0.267-5.999,0.8-6.753
		c0.535-0.756,2.221-1.245,5.061-1.468l0.758-0.042v-3.921h-19.605V20.349z M176.988,29.413h6.239l0.042-1.18
		c0.029-3.682,0.415-5.882,1.16-6.597c0.745-0.717,2.424-1.076,5.039-1.076h10.161v46.082c0,3.776-0.317,6.034-0.949,6.775
		c-0.632,0.741-2.663,1.223-6.092,1.447l-0.759,0.042v3.921h28.627v-3.921l-0.759-0.042c-3.599-0.253-5.62-0.648-6.072-1.181
		c-0.45-0.534-0.772-2.895-0.969-7.083V20.56h10.161c2.614,0,4.293,0.359,5.039,1.076c0.744,0.715,1.132,2.916,1.159,6.597
		l0.042,1.18h6.239V16.427h-58.308V29.413z M288.094,20.56l0.8,0.084c2.84,0.168,4.54,0.646,5.101,1.433
		c0.562,0.787,0.845,3.064,0.845,6.831V55.09c0,5.119,0.775,9.46,2.326,13.024h12.251c-1.034-3.11-1.551-7.283-1.551-12.518V28.612
		c0-3.747,0.275-5.999,0.827-6.753c0.552-0.756,2.271-1.245,5.155-1.468l0.764-0.042v-3.921h-26.519V20.56z M351.757,29.413h6.241
		l0.042-1.18c0.03-3.682,0.415-5.882,1.159-6.597c0.745-0.717,2.425-1.076,5.041-1.076h10.159v46.082
		c0,0.521-0.007,1.009-0.019,1.473h13.129c-0.03-0.475-0.058-0.98-0.083-1.515V20.56h10.162c2.614,0,4.293,0.359,5.037,1.076
		c0.745,0.715,1.132,2.916,1.16,6.597l0.042,1.18h6.239V16.427h-58.309V29.413z M272.323,49.731c4.018-1.628,7.023-3.93,9.018-6.905
		c1.994-2.974,2.992-6.609,2.992-10.905c0-10.525-6.437-15.789-19.31-15.789l-3.837,0.084l-7.717,0.21h-18.17v3.921l0.801,0.042
		c2.867,0.224,4.574,0.712,5.122,1.468c0.548,0.754,0.822,3.006,0.822,6.753v38.029c0,3.748-0.28,6.005-0.842,6.775
		c-0.563,0.77-2.264,1.253-5.102,1.447l-0.801,0.042v3.921h19.207V68.114h0.034c-0.01-0.463-0.015-0.953-0.015-1.473V51.464h5.354
		l10.519,16.65h15.148c-0.33-0.438-0.677-0.901-1.04-1.391L272.323,49.731z M267.342,43.41c-2.585,2.615-6.084,3.922-10.498,3.922
		h-2.319V20.56h4.722c7.983,0,11.974,4.048,11.974,12.142C271.221,37.227,269.929,40.797,267.342,43.41z M469.453,21.859
		c0.549-0.756,2.271-1.245,5.165-1.468l0.759-0.042v-3.921h-26.52v3.921l0.803,0.042c2.867,0.224,4.574,0.712,5.122,1.468
		c0.547,0.754,0.821,3.006,0.821,6.753v15.178h-25.759V28.612c0-3.747,0.273-5.999,0.821-6.753c0.549-0.756,2.271-1.245,5.166-1.468
		l0.759-0.042v-3.921H410.07v3.921l0.801,0.042c2.867,0.224,4.574,0.712,5.122,1.468c0.549,0.754,0.823,3.006,0.823,6.753v38.029
		c0,3.748-0.282,6.005-0.844,6.775c-0.562,0.77-2.262,1.253-5.102,1.447l-0.801,0.042v3.921h26.521v-3.921l-0.759-0.042
		c-2.869-0.194-4.583-0.678-5.145-1.447c-0.562-0.77-0.843-3.027-0.843-6.775V48.218h25.759v18.424c0,3.748-0.28,6.005-0.842,6.775
		c-0.562,0.77-2.263,1.253-5.102,1.447l-0.803,0.042v3.921h26.52v-3.921l-0.759-0.042c-2.867-0.194-4.581-0.678-5.143-1.447
		c-0.562-0.77-0.844-3.027-0.844-6.775V28.612C468.632,24.865,468.905,22.614,469.453,21.859z"/>
	<path opacity="0.4" fill="#F2F2F2" d="M369.331,111.802c0.469,0.395,0.848,3.066,1.138,8.019l0.054,1.022h5.974v-0.701h-5.273
		l-0.054-1.022c-0.29-4.951-0.669-7.622-1.138-8.02c-0.469-0.394-3.355-0.591-8.657-0.591H344.69v0.7h15.983
		C365.976,111.209,368.862,111.406,369.331,111.802z M455.865,144.56c-1.456,1.358-3.269,2.48-5.442,3.361l0.216,0.303
		C452.756,147.251,454.499,146.031,455.865,144.56z M402.944,166.675c0.854-0.785,1.616-1.718,2.284-2.798
		c2.45-3.958,3.677-9.896,3.677-17.815c0-7.848-1.227-13.728-3.677-17.64c-2.45-3.913-6.138-5.869-11.062-5.869
		c-3.979,0-7.153,1.29-9.525,3.866c2.284-2.11,5.226-3.167,8.825-3.167c4.925,0,8.612,1.958,11.062,5.87
		c2.451,3.912,3.677,9.792,3.677,17.64c0,7.919-1.226,13.857-3.677,17.815C404.048,165.353,403.52,166.052,402.944,166.675z
		 M424.174,167.922c0.25-0.134,0.438-0.283,0.561-0.448c0.461-0.637,0.694-2.5,0.694-5.595v-31.392c0-3.092-0.227-4.95-0.679-5.574
		c-0.453-0.623-1.862-1.027-4.228-1.212l-0.662-0.036v-2.535h-0.7v3.236l0.662,0.035c2.365,0.186,3.775,0.589,4.227,1.213
		c0.454,0.623,0.68,2.481,0.68,5.574v31.393C424.729,165.34,424.542,167.118,424.174,167.922z M466.688,114.536h14.573v-0.008h8.987
		c5.787,0.631,10.055,2.515,12.795,5.655c3.432,3.929,5.147,10.57,5.147,19.924c0,9.38-1.545,16.416-4.634,21.106
		c-0.538,0.815-1.123,1.559-1.753,2.231c0.904-0.847,1.723-1.822,2.453-2.932c3.089-4.69,4.634-11.727,4.634-21.106
		c0-9.354-1.715-15.995-5.146-19.924c-2.741-3.14-7.008-5.024-12.796-5.657h-8.987v0.011h-14.573
		c-0.011-0.003-0.021-0.007-0.032-0.011h-84.707v-3.737h-0.701v4.439h84.707C466.668,114.53,466.678,114.533,466.688,114.536z
		 M468.74,167.102c0.27-0.16,0.474-0.34,0.606-0.537c0.514-0.771,0.771-3.034,0.771-6.79v-38.115c0-0.093-0.001-0.184-0.001-0.274
		h-0.707c0.005,0.315,0.008,0.637,0.008,0.975v38.114C469.417,163.993,469.191,166.203,468.74,167.102z M375.007,165.97
		c-4.663-4.838-6.995-11.433-6.995-19.786c0-8.326,2.305-14.897,6.913-19.716c-0.209,0.2-0.416,0.404-0.618,0.613
		c-4.664,4.827-6.995,11.428-6.995,19.803c0,8.354,2.331,14.948,6.995,19.786c4.663,4.838,11.044,7.257,19.142,7.257
		c8.073,0,14.443-2.419,19.106-7.257c0.023-0.023,0.044-0.046,0.065-0.069c-4.601,4.416-10.758,6.626-18.472,6.626
		C386.051,173.227,379.67,170.808,375.007,165.97z M494.641,171.986h-30.696v-0.049h-9.524l-14.27-22.586h-4.42v0.7h3.721
		l14.27,22.586h9.522v0.049h30.696c7.433,0,13.497-2.446,18.191-7.336C507.538,169.772,501.709,171.986,494.641,171.986z
		 M446.311,142.703c2.134-2.157,3.202-5.104,3.202-8.839c0-6.682-3.295-10.024-9.884-10.024h-3.898v0.7h3.197
		c6.59,0,9.885,3.342,9.885,10.023c0,3.567-0.976,6.413-2.922,8.541C446.033,142.976,446.174,142.842,446.311,142.703z
		 M359.274,147.213H344.69v0.701h13.884c1.766,0,3.153,0.077,4.167,0.234c-0.008-0.263-0.012-0.526-0.016-0.792
		C361.804,147.262,360.657,147.213,359.274,147.213z M419.86,169.363c-0.013,0.002-0.025,0.003-0.038,0.004l-0.662,0.035v3.235
		h20.604v-0.7H419.86V169.363z M331.477,112.169c0.807,0.929,1.21,3.818,1.21,8.674v51.773c0,4.44-0.339,7.243-1.017,8.412
		c0.212-0.132,0.381-0.272,0.507-0.421c0.807-0.95,1.21-3.848,1.21-8.691v-51.774c0-4.854-0.403-7.745-1.21-8.675
		c-0.808-0.927-3.383-1.533-7.724-1.82l-1.023-0.107v-2.636h-0.7v3.337l1.022,0.107
		C328.094,110.633,330.669,111.239,331.477,112.169z M323.431,183.181l-0.7,0.038v3.336h32.561v-0.7h-31.861V183.181z"/>
	<path opacity="0.4" fill="#F2F2F2" d="M299.386,94.067c0,1.523-0.451,2.775-1.351,3.756c0.065-0.06,0.13-0.121,0.192-0.184
		c0.995-1.002,1.493-2.306,1.493-3.907c0-4.494-2.8-6.741-8.397-6.741v0.339C296.696,87.419,299.386,89.664,299.386,94.067z
		 M286.808,75.518c0.271,0.316,0.41,1.294,0.41,2.937v17.525c0,1.433-0.105,2.361-0.313,2.789c0.104-0.056,0.182-0.116,0.238-0.181
		c0.272-0.322,0.409-1.302,0.409-2.942V78.12c0-1.643-0.137-2.622-0.409-2.936c-0.274-0.314-1.145-0.519-2.615-0.616l-0.345-0.036
		v-0.795h-0.334v1.129l0.345,0.036C285.663,74.999,286.534,75.204,286.808,75.518z M270.978,78.865l4.89,11.715h0.474l-5.125-12.28
		L270.978,78.865z M296.87,76.116c0.961,0.771,1.441,2.101,1.441,3.986c0,1.844-0.446,3.265-1.338,4.261
		c0.036-0.032,0.074-0.064,0.108-0.098c1.043-1.004,1.565-2.503,1.565-4.499c0-1.884-0.48-3.214-1.442-3.987
		c-0.961-0.773-2.625-1.159-4.99-1.159h-0.891v0.335h0.557C294.245,74.957,295.908,75.343,296.87,76.116z M278.177,95.979
		c0.511,1.189,0.766,2.145,0.766,2.861c0,0.037-0.007,0.071-0.017,0.105c0.233-0.113,0.351-0.26,0.351-0.44
		c0-0.716-0.255-1.67-0.765-2.86l-1.51-3.588h-11.573l-0.146,0.335h11.385L278.177,95.979z M339.726,74.865v-0.297
		c-1.49,0.097-2.369,0.299-2.634,0.605c-0.036,0.042-0.07,0.098-0.102,0.165c0.41-0.213,1.212-0.358,2.408-0.437L339.726,74.865z
		 M347.309,74.567l-0.327-0.036v-0.795h-0.334v1.129l0.326,0.036c1.483,0.098,2.36,0.303,2.634,0.616
		c0.272,0.316,0.41,1.294,0.41,2.937v12.333c0,2.34-0.112,3.964-0.337,4.874c-0.211,0.856-0.655,1.641-1.325,2.357
		c0.071-0.066,0.142-0.132,0.211-0.201c0.74-0.751,1.224-1.582,1.448-2.491c0.225-0.91,0.337-2.534,0.337-4.874V78.12
		c0-1.643-0.137-2.622-0.41-2.936C349.669,74.869,348.793,74.665,347.309,74.567z M296.911,86.461
		c1.53-0.652,2.729-1.443,3.599-2.372c-0.971,0.914-2.285,1.685-3.944,2.31C296.683,86.418,296.797,86.439,296.911,86.461z
		 M323.652,77.72c1.521,2.291,2.28,5.458,2.28,9.507c0,4.046-0.76,7.213-2.28,9.497c-0.29,0.435-0.6,0.827-0.931,1.178
		c0.459-0.432,0.881-0.935,1.266-1.513c1.52-2.285,2.279-5.451,2.279-9.498c0-4.048-0.759-7.217-2.279-9.508
		c-1.521-2.291-3.624-3.437-6.31-3.437c-2.171,0-3.961,0.75-5.37,2.246c1.354-1.273,3.034-1.911,5.036-1.911
		C320.029,74.283,322.131,75.428,323.652,77.72z M354.509,74.631c-1.033,0.111-1.658,0.292-1.87,0.542
		c-0.035,0.041-0.066,0.095-0.097,0.159c0.314-0.162,0.858-0.283,1.633-0.367v3.707h1.912l0.018-0.335h-1.596V74.631z
		 M363.83,95.979c0,1.433-0.113,2.365-0.339,2.799c0.105-0.057,0.187-0.121,0.244-0.191c0.287-0.346,0.43-1.328,0.43-2.942V74.858
		h-4.3c-1.008,0-1.889,0.056-2.642,0.165c-0.255,0.038-0.445,0.175-0.569,0.411c0.071-0.035,0.147-0.063,0.234-0.076
		c0.753-0.108,1.634-0.164,2.641-0.164h4.3V95.979z M360.355,99.56l-0.334,0.008v1.13h11.46v-0.334h-11.126V99.56z M332.81,90.271
		V78.12c0-1.643-0.138-2.622-0.411-2.936c-0.273-0.314-1.144-0.519-2.614-0.616l-0.347-0.036v-0.795h-0.334v1.129l0.347,0.036
		c1.469,0.098,2.341,0.303,2.614,0.616c0.273,0.316,0.411,1.294,0.411,2.937v12.152c0,7.177,3.339,10.765,10.019,10.765
		c3.109,0,5.453-0.843,7.034-2.533c-1.57,1.466-3.803,2.198-6.699,2.198C336.149,101.036,332.81,97.448,332.81,90.271z
		 M375.731,78.338l-0.019-0.364c-0.035-0.45-0.054-0.983-0.054-1.603c0-0.827-0.243-1.275-0.728-1.349
		c-0.766-0.109-1.646-0.165-2.638-0.165h-4.305v0.335h3.971c0.992,0,1.872,0.056,2.637,0.164c0.485,0.073,0.729,0.522,0.729,1.349
		c0,0.62,0.018,1.153,0.053,1.604l0.019,0.363h1.914v-0.335H375.731z M308.425,97.248c-2.255-2.526-3.382-5.982-3.382-10.365
		c0-4.385,1.127-7.84,3.382-10.366c0.091-0.103,0.186-0.2,0.281-0.298c-0.211,0.203-0.418,0.411-0.616,0.633
		c-2.254,2.526-3.381,5.981-3.381,10.366c0,4.384,1.127,7.839,3.381,10.366c2.256,2.525,5.339,3.788,9.253,3.788
		c3.754,0,6.742-1.164,8.97-3.489c-2.19,2.101-5.066,3.154-8.636,3.154C313.764,101.036,310.68,99.775,308.425,97.248z
		 M258.62,99.552l-0.335,0.016v1.13h6.995v-0.334h-6.66V99.552z M262.391,95.645l9.371-22.256h-0.193l-9.513,22.59
		c-0.661,1.55-1.12,2.539-1.375,2.97c0.083-0.038,0.146-0.08,0.189-0.125C261.069,98.611,261.577,97.552,262.391,95.645z
		 M294.582,100.363h-18.183v-0.795c-0.002,0-0.005,0-0.008,0h-0.327v1.13h18.184c3.072,0,5.355-0.558,6.85-1.674
		c0.283-0.213,0.54-0.445,0.769-0.7c-0.137,0.128-0.281,0.25-0.435,0.365C299.938,99.805,297.653,100.363,294.582,100.363z"/>
	<g>
		<path fill="#FFFFFF" d="M265.763,91.721l-1.557,3.583c-0.6,1.413-0.898,2.355-0.898,2.829c0,0.511,0.783,0.767,2.35,0.767h0.292
			v1.128h-6.995V98.9l0.382-0.02c1.045-0.047,1.667-0.179,1.869-0.391c0.2-0.213,0.707-1.272,1.52-3.179l9.512-22.59h1.27
			l9.458,22.717c0.742,1.627,1.263,2.596,1.568,2.906c0.303,0.309,0.898,0.489,1.784,0.536l0.419,0.02v1.128h-10.002V98.9h0.327
			c1.701,0,2.551-0.243,2.551-0.73c0-0.715-0.255-1.671-0.766-2.86l-1.509-3.588H265.763z M266.349,90.246h10.328l-5.126-12.279
			L266.349,90.246z"/>
		<path fill="#FFFFFF" d="M296.9,86.065c2.219,0.364,3.957,1.183,5.22,2.458c1.259,1.273,1.888,2.854,1.888,4.733
			c0,2.282-0.747,3.98-2.242,5.098c-1.493,1.117-3.777,1.674-6.85,1.674h-10.399V98.9l0.345-0.02c1.47-0.096,2.34-0.306,2.614-0.628
			c0.272-0.321,0.41-1.302,0.41-2.941V77.785c0-1.642-0.138-2.621-0.41-2.936c-0.274-0.314-1.144-0.52-2.614-0.617l-0.345-0.036
			v-1.129h10.892c2.437,0,4.293,0.51,5.572,1.531c1.278,1.021,1.917,2.503,1.917,4.448c0,1.58-0.5,2.956-1.499,4.129
			C300.399,84.348,298.899,85.311,296.9,86.065z M291.658,85.437h1.066c2.085,0,3.65-0.502,4.691-1.505
			c1.044-1.004,1.565-2.503,1.565-4.498c0-1.886-0.48-3.214-1.441-3.987c-0.961-0.773-2.625-1.16-4.99-1.16h-0.891V85.437z
			 M291.658,86.657v8.654c0,1.858,0.152,2.865,0.456,3.023c0.575,0.316,1.429,0.473,2.566,0.473c1.593,0,2.886-0.5,3.882-1.502
			s1.494-2.305,1.494-3.908C300.055,88.904,297.254,86.657,291.658,86.657z"/>
		<path fill="#FFFFFF" d="M318.012,100.702c-3.913,0-6.997-1.262-9.253-3.789c-2.254-2.526-3.381-5.981-3.381-10.365
			c0-4.386,1.127-7.84,3.381-10.367c2.256-2.526,5.34-3.788,9.253-3.788s6.997,1.262,9.25,3.788
			c2.255,2.527,3.383,5.981,3.383,10.367c0,4.383-1.128,7.839-3.383,10.365C325.009,99.44,321.925,100.702,318.012,100.702z
			 M318.012,99.482c2.685,0,4.789-1.142,6.309-3.427c1.52-2.285,2.28-5.45,2.28-9.498c0-4.048-0.76-7.216-2.28-9.507
			c-1.52-2.291-3.624-3.437-6.309-3.437c-2.687,0-4.79,1.146-6.309,3.437c-1.52,2.292-2.281,5.459-2.281,9.507
			c0,4.047,0.761,7.212,2.281,9.498C313.222,98.34,315.325,99.482,318.012,99.482z"/>
		<path fill="#FFFFFF" d="M329.772,74.196v-1.129h10.622v1.129l-0.328,0.036c-1.494,0.097-2.374,0.301-2.641,0.608
			c-0.268,0.308-0.401,1.289-0.401,2.945v11.532c0,2.788,0.071,4.606,0.217,5.455c0.147,0.85,0.511,1.655,1.094,2.419
			c1.178,1.528,2.939,2.291,5.283,2.291c2.198,0,3.959-0.667,5.283-2c0.74-0.752,1.224-1.582,1.449-2.491
			c0.225-0.909,0.337-2.533,0.337-4.874V77.785c0-1.642-0.137-2.621-0.41-2.936c-0.273-0.314-1.15-0.52-2.634-0.617l-0.326-0.036
			v-1.129h8.634v1.129l-0.345,0.036c-1.494,0.097-2.372,0.301-2.633,0.608c-0.261,0.308-0.39,1.289-0.39,2.945v11.294
			c0,2.502-0.141,4.336-0.419,5.502c-0.281,1.167-0.839,2.253-1.677,3.26c-1.578,1.907-4.019,2.86-7.323,2.86
			c-6.68,0-10.02-3.588-10.02-10.766V77.785c0-1.642-0.137-2.621-0.411-2.936c-0.272-0.314-1.144-0.52-2.613-0.617L329.772,74.196z"
			/>
		<path fill="#FFFFFF" d="M364.499,74.524h-4.3c-1.008,0-1.888,0.055-2.641,0.164c-0.498,0.073-0.749,0.523-0.749,1.349
			c0,0.619-0.01,1.154-0.035,1.604l-0.018,0.364h-1.914v-4.937h23.136v4.937h-1.913l-0.018-0.364
			c-0.036-0.45-0.054-0.985-0.054-1.604c0-0.826-0.243-1.276-0.729-1.349c-0.766-0.108-1.646-0.164-2.637-0.164h-4.305v20.787
			c0,1.615,0.146,2.595,0.438,2.941c0.292,0.348,1.16,0.555,2.604,0.628l0.784,0.02v1.128h-11.459V98.9l0.783-0.02
			c1.445-0.073,2.311-0.28,2.595-0.628c0.288-0.346,0.43-1.327,0.43-2.941V74.524z"/>
	</g>
	<path fill="#FFFFFF" d="M277.174,111.111c-4.566-4.726-10.802-7.088-18.707-7.088c-7.928,0-14.176,2.362-18.741,7.088
		c-4.566,4.726-6.85,11.188-6.85,19.389c0,8.178,2.283,14.635,6.85,19.372c4.565,4.736,10.813,7.104,18.741,7.104
		c7.905,0,14.141-2.368,18.707-7.104c4.566-4.737,6.849-11.194,6.849-19.372C284.023,122.3,281.74,115.837,277.174,111.111z
		 M269.315,147.822c-2.4,3.876-6.011,5.814-10.832,5.814c-4.8,0-8.404-1.938-10.815-5.814c-2.411-3.876-3.616-9.689-3.616-17.441
		c0-7.685,1.205-13.44,3.616-17.272c2.411-3.829,6.015-5.745,10.815-5.745c4.821,0,8.431,1.916,10.832,5.745
		c2.398,3.832,3.599,9.588,3.599,17.272C272.915,138.133,271.714,143.946,269.315,147.822z M243.805,160.662
		c-1.676-0.07-3.03-0.589-4.064-1.555c-1.035-0.967-3.263-3.917-6.685-8.852l-15.377-23.341
		c10.811-3.736,16.214-11.144,16.214-22.217c0-13.316-8.153-19.976-24.457-19.976l-4.261,0.106l-9.591,0.268h-18.967v3.315
		l1.016,0.105c4.314,0.285,6.873,0.889,7.674,1.811c0.803,0.922,1.205,3.795,1.205,8.618v51.448c0,4.812-0.401,7.691-1.205,8.637
		c-0.802,0.945-3.36,1.56-7.674,1.845l-1.016,0.053v3.316h29.628v-3.316l-1.017-0.053c-3.601-0.249-5.767-0.865-6.498-1.845
		c-0.73-0.98-1.096-3.859-1.096-8.637v-21.018h9.173l21.471,34.868h20.179v-3.316l-1.07-0.053
		C245.498,160.806,244.303,160.733,243.805,160.662z M201.664,125.795h-3.923V88.68h7.529c6.257,0,10.684,1.311,13.28,3.931
		c2.598,2.621,3.898,7.069,3.898,13.343C222.448,119.181,215.52,125.795,201.664,125.795z M309.807,129.546
		c3.998-1.431,6.991-3.237,8.978-5.419c1.989-2.181,2.982-4.725,2.982-7.632c0-3.748-1.221-6.554-3.663-8.417
		c-2.442-1.862-6.105-2.794-10.989-2.794h-23.512v3.169l0.647,0.034c2.317,0.18,3.698,0.577,4.14,1.188
		c0.443,0.609,0.665,2.429,0.665,5.457v30.737c0,3.028-0.228,4.853-0.682,5.475c-0.454,0.621-1.829,1.012-4.123,1.169l-0.647,0.033
		v3.169h23.614c5.566,0,9.734-1.05,12.506-3.151c2.771-2.102,4.157-5.241,4.157-9.422c0-3.59-1.171-6.52-3.51-8.792
		C318.03,132.079,314.509,130.478,309.807,129.546z M299.142,108.623h2.112c3.362,0,5.884,0.786,7.564,2.355
		c1.681,1.571,2.521,3.927,2.521,7.066c0,3.39-0.84,5.933-2.521,7.629c-1.681,1.694-4.214,2.542-7.599,2.542h-2.078V108.623z
		 M310.659,149.344c-1.635,1.726-3.805,2.589-6.508,2.589c-2.112,0-3.477-0.369-4.089-1.106c-0.613-0.738-0.919-2.392-0.919-4.957
		v-14.312h2.112c3.521,0,6.378,1.004,8.57,3.016c2.192,2.01,3.289,4.65,3.289,7.922
		C313.112,145.334,312.295,147.616,310.659,149.344z M414.131,125.505c-4.664-4.825-11.033-7.238-19.106-7.238
		c-8.098,0-14.479,2.413-19.143,7.238c-4.663,4.827-6.995,11.428-6.995,19.803c0,8.354,2.332,14.948,6.995,19.787
		c4.664,4.837,11.045,7.256,19.143,7.256c8.073,0,14.442-2.419,19.106-7.256c4.665-4.839,6.995-11.434,6.995-19.787
		C421.126,136.933,418.796,130.332,414.131,125.505z M406.104,163.001c-2.451,3.96-6.139,5.939-11.063,5.939
		c-4.901,0-8.583-1.979-11.045-5.939c-2.462-3.958-3.693-9.896-3.693-17.814c0-7.849,1.231-13.729,3.693-17.641
		s6.144-5.869,11.045-5.869c4.925,0,8.612,1.957,11.063,5.869s3.676,9.792,3.676,17.641
		C409.78,153.104,408.556,159.043,406.104,163.001z M515.188,116.221c-4.798-5.213-11.648-7.818-20.553-7.818l-3.023,0.042
		l-4.386,0.068H383.524v4.438h84.708c0.011,0.003,0.021,0.007,0.032,0.01h14.573v-0.01h8.987c5.788,0.631,10.054,2.517,12.795,5.656
		c3.431,3.93,5.147,10.57,5.147,19.924c0,9.381-1.545,16.416-4.635,21.107c-3.088,4.689-7.734,7.036-13.938,7.036
		c-3.672,0-5.982-0.444-6.932-1.332c-0.95-0.887-1.425-3.05-1.425-6.486V119.81h-11.853c0.004,0.314,0.008,0.636,0.008,0.975v38.113
		c0,3.757-0.257,6.021-0.772,6.791c-0.456,0.684-1.73,1.141-3.821,1.371c-0.124-0.065-0.234-0.135-0.329-0.208
		c-0.661-0.511-2.233-2.438-4.716-5.779l-10.057-14.027c3.315-1.344,5.798-3.243,7.444-5.698c1.647-2.456,2.47-5.456,2.47-9.003
		c0-8.688-5.313-13.033-15.94-13.033l-3.166,0.069l-6.369,0.175h-15.001v3.236l0.662,0.034c2.366,0.185,3.776,0.59,4.229,1.213
		c0.452,0.622,0.678,2.481,0.678,5.575v31.392c0,3.092-0.231,4.957-0.695,5.593c-0.465,0.635-1.868,1.033-4.211,1.194l-0.662,0.034
		v3.236h20.604v-3.236l-0.627-0.034c-1.927-0.115-3.092-0.508-3.497-1.177c-0.407-0.669-0.609-2.54-0.609-5.61v-12.529h4.42
		l14.27,22.587h9.523v0.049h30.696c8.164,0,14.677-2.952,19.539-8.853c4.86-5.902,7.291-13.812,7.291-23.728
		C522.346,128.869,519.959,121.432,515.188,116.221z M447.188,141.829c-2.137,2.157-5.024,3.235-8.667,3.235h-1.914v-22.101h3.897
		c6.589,0,9.885,3.342,9.885,10.024C450.389,136.724,449.32,139.671,447.188,141.829z M360.15,141.979h-14.585v-32.346h16.684
		c5.303,0,8.189,0.197,8.658,0.593c0.468,0.396,0.848,3.067,1.138,8.019l0.053,1.023h5.974v-13.939h-53.764v3.336l1.022,0.107
		c4.34,0.286,6.916,0.893,7.723,1.822c0.807,0.928,1.211,3.818,1.211,8.674v51.772c0,4.843-0.404,7.742-1.211,8.692
		c-0.808,0.951-3.383,1.569-7.723,1.856l-1.022,0.054v3.337h32.561v-3.337l-1.024-0.054c-2.655-0.18-4.055-0.27-4.197-0.27
		c-2.512,0-4.153-0.654-4.924-1.965c-0.771-1.309-1.157-4.08-1.157-8.314v-24.703h14.585c1.765,0,3.151,0.079,4.166,0.234
		c-0.013-0.416-0.02-0.838-0.02-1.264c0-1.198,0.049-2.36,0.144-3.486C363.417,141.926,361.989,141.979,360.15,141.979z"/>
	<g opacity="0.3">
		<rect x="383.777" y="105.141" fill="#F2F2F2" width="109.847" height="0.356"/>
		<rect x="383.777" y="103.391" fill="#F2F2F2" width="109.847" height="0.356"/>
		<rect x="383.777" y="101.639" fill="#F2F2F2" width="109.847" height="0.357"/>
		<rect x="383.777" y="99.89" fill="#F2F2F2" width="109.847" height="0.356"/>
		<rect x="383.777" y="98.139" fill="#F2F2F2" width="109.847" height="0.356"/>
		<rect x="383.777" y="96.388" fill="#F2F2F2" width="109.847" height="0.355"/>
		<rect x="383.777" y="94.638" fill="#F2F2F2" width="109.847" height="0.356"/>
		<rect x="383.777" y="92.888" fill="#F2F2F2" width="109.847" height="0.355"/>
		<rect x="383.777" y="91.137" fill="#F2F2F2" width="109.847" height="0.356"/>
		<rect x="383.777" y="89.386" fill="#F2F2F2" width="109.847" height="0.355"/>
		<rect x="383.777" y="87.635" fill="#F2F2F2" width="109.847" height="0.356"/>
		<rect x="383.777" y="85.885" fill="#F2F2F2" width="109.847" height="0.356"/>
		<rect x="383.777" y="84.134" fill="#F2F2F2" width="109.847" height="0.356"/>
		<rect x="383.777" y="82.384" fill="#F2F2F2" width="109.847" height="0.355"/>
	</g>
	<g opacity="0.3">
		<rect x="175.276" y="185.667" fill="#F2F2F2" width="143.782" height="0.355"/>
		<rect x="175.276" y="183.915" fill="#F2F2F2" width="143.782" height="0.356"/>
		<rect x="175.276" y="182.165" fill="#F2F2F2" width="143.782" height="0.356"/>
		<rect x="175.276" y="180.414" fill="#F2F2F2" width="143.782" height="0.356"/>
		<rect x="175.276" y="178.664" fill="#F2F2F2" width="154.252" height="0.355"/>
		<rect x="175.276" y="176.914" fill="#F2F2F2" width="154.252" height="0.356"/>
		<rect x="175.276" y="175.162" fill="#F2F2F2" width="154.252" height="0.356"/>
		<rect x="175.276" y="173.412" fill="#F2F2F2" width="154.252" height="0.356"/>
		<rect x="175.276" y="171.662" fill="#F2F2F2" width="154.252" height="0.356"/>
		<rect x="175.276" y="169.912" fill="#F2F2F2" width="154.252" height="0.355"/>
		<rect x="175.276" y="168.161" fill="#F2F2F2" width="154.252" height="0.356"/>
	</g>
	<g opacity="0.3">
		<rect x="250.729" y="166.41" fill="#F2F2F2" width="78.8" height="0.356"/>
		<rect x="250.729" y="164.66" fill="#F2F2F2" width="78.8" height="0.354"/>
		<rect x="250.729" y="162.909" fill="#F2F2F2" width="78.8" height="0.356"/>
		<rect x="250.729" y="161.159" fill="#F2F2F2" width="78.8" height="0.355"/>
		<rect x="250.729" y="159.408" fill="#F2F2F2" width="78.8" height="0.356"/>
	</g>
</g>
</svg>
