<?xml version="1.0" encoding="utf-8"?>
<!-- Generator: Adobe Illustrator 16.0.0, SVG Export Plug-In . SVG Version: 6.00 Build 0)  -->
<!DOCTYPE svg PUBLIC "-//W3C//DTD SVG 1.1//EN" "http://www.w3.org/Graphics/SVG/1.1/DTD/svg11.dtd">
<svg version="1.1" xmlns="http://www.w3.org/2000/svg" xmlns:xlink="http://www.w3.org/1999/xlink" x="0px" y="0px" width="330px"
	 height="200px" viewBox="0 0 330 200" enable-background="new 0 0 330 200" xml:space="preserve">
<g id="Layer_3" display="none">
	<rect display="inline" fill="#1E76BA" width="330.249" height="200"/>
</g>
<g id="Layer_1">
	<path opacity="0.4" fill="#F2F2F2" d="M72.68,94.514c2.066,2.084,3.101,5.621,3.101,10.609c0,4.951-1.222,8.736-3.663,11.356
		c2.812-2.628,4.219-6.599,4.219-11.913c0-4.99-1.034-8.526-3.099-10.609c-2.064-2.083-5.585-3.126-10.56-3.126h-5.986v0.557h5.43
		C67.097,91.388,70.616,92.43,72.68,94.514z M113.046,110.812c1.907,3.046,2.862,7.623,2.862,13.732
		c0,6.164-0.955,10.787-2.862,13.869c-0.373,0.602-0.782,1.143-1.227,1.626c0.667-0.612,1.262-1.339,1.784-2.183
		c1.908-3.082,2.862-7.704,2.862-13.868c0-6.11-0.954-10.688-2.862-13.734s-4.779-4.568-8.612-4.568
		c-3.102,0-5.575,1.006-7.423,3.018c1.777-1.639,4.065-2.462,6.865-2.462C108.267,106.242,111.137,107.767,113.046,110.812z
		 M128.213,108.081c0.353,0.484,0.528,1.931,0.528,4.34v24.439c0,2.14-0.143,3.521-0.428,4.15c0.198-0.104,0.347-0.223,0.443-0.354
		c0.361-0.494,0.542-1.944,0.542-4.352v-24.441c0-2.408-0.176-3.854-0.529-4.339c-0.351-0.484-1.449-0.799-3.291-0.945l-0.515-0.025
		v-1.963h-0.556v2.52l0.515,0.027C126.764,107.281,127.861,107.597,128.213,108.081z M145.256,127.879
		c1.743,1.597,2.614,3.697,2.614,6.299c0,2.172-0.604,3.935-1.808,5.288c0.141-0.127,0.28-0.259,0.414-0.399
		c1.301-1.373,1.95-3.188,1.95-5.445c0-2.602-0.871-4.701-2.614-6.3c-1.742-1.598-4.014-2.398-6.815-2.398h-1.678v0.557h1.123
		C141.241,125.479,143.512,126.28,145.256,127.879z M146.38,123.447c2.561-1.04,4.53-2.301,5.912-3.781
		c-1.557,1.445-3.721,2.667-6.493,3.658C145.997,123.363,146.189,123.406,146.38,123.447z M144.456,109.119
		c1.337,1.247,2.005,3.12,2.005,5.617c0,2.519-0.584,4.447-1.749,5.79c0.103-0.09,0.204-0.183,0.299-0.28
		c1.337-1.349,2.005-3.37,2.005-6.066c0-2.496-0.668-4.37-2.005-5.618c-1.335-1.248-3.34-1.872-6.015-1.872h-1.678v0.557h1.123
		C141.114,107.246,143.119,107.87,144.456,109.119z M46.248,92.699c0.638,0.734,0.957,3.018,0.957,6.853v40.908
		c0,3.506-0.268,5.72-0.803,6.645c0.168-0.104,0.303-0.216,0.402-0.333c0.639-0.753,0.958-3.041,0.958-6.868V98.995
		c0-3.834-0.319-6.119-0.958-6.852c-0.636-0.733-2.671-1.214-6.101-1.44l-0.808-0.084v-2.08h-0.557v2.637l0.808,0.083
		C43.576,91.486,45.612,91.965,46.248,92.699z M90.074,139.487c-3.63-3.767-5.446-8.901-5.446-15.403
		c0-6.479,1.794-11.595,5.378-15.345c-0.166,0.157-0.33,0.319-0.49,0.484c-3.63,3.757-5.445,8.896-5.445,15.416
		c0,6.504,1.815,11.639,5.445,15.404c3.631,3.767,8.599,5.647,14.902,5.647c6.287,0,11.245-1.881,14.875-5.647
		c0.019-0.02,0.037-0.04,0.055-0.061c-3.582,3.435-8.372,5.152-14.373,5.152C98.672,145.136,93.706,143.253,90.074,139.487z
		 M153.683,141.627c-2.203,1.67-5.518,2.506-9.943,2.506h-18.777v-1.992c-0.014,0-0.028,0.002-0.041,0.003l-0.515,0.027v2.519
		h18.775c4.426,0,7.74-0.835,9.944-2.505c0.421-0.32,0.8-0.67,1.141-1.049C154.082,141.307,153.889,141.472,153.683,141.627z
		 M72.733,121.521c3.157-1.19,5.699-2.797,7.625-4.823c-2.009,1.916-4.612,3.429-7.814,4.535L72.733,121.521z M39.895,148.808
		l-0.557,0.029v2.636h23.558v-0.556H39.895V148.808z M63.9,123.191h-7.293v0.558h6.737l17.071,27.724h16.045v-0.556H80.973
		L63.9,123.191z"/>
	<g>
		<path opacity="0.4" fill="#F2F2F2" d="M50.234,50.891c0.088,0.076,0.158,0.593,0.214,1.55l0.021,0.198h1.154v-0.219h-0.935
			l-0.021-0.198c-0.055-0.958-0.126-1.474-0.213-1.55c-0.086-0.076-0.643-0.114-1.67-0.114h-3.36v0.219h3.141
			C49.592,50.776,50.147,50.815,50.234,50.891z M50.822,64.092c0.043-0.014,0.077-0.029,0.1-0.046
			c0.168-0.119,0.277-0.628,0.326-1.523h-0.208l-0.01,0.187C50.994,63.39,50.925,63.851,50.822,64.092z M37.135,50.962
			c0.155,0.179,0.233,0.738,0.233,1.677v4.036h0.221v-4.255c0-0.939-0.079-1.498-0.234-1.677c-0.156-0.179-0.657-0.296-1.503-0.352
			l-0.188-0.02v-0.425h-0.219v0.645l0.187,0.02C36.477,50.666,36.978,50.783,37.135,50.962z M49.174,57.917
			c0.141,0.1,0.226,0.411,0.254,0.935l0.011,0.186h0.831v-0.219h-0.612l-0.011-0.186c-0.028-0.523-0.113-0.834-0.255-0.934
			c-0.142-0.099-0.524-0.15-1.149-0.15h-2.82v0.22h2.6C48.648,57.768,49.031,57.818,49.174,57.917z M41.286,50.609l0.005,0
			c0.839,0.056,1.337,0.173,1.494,0.353c0.156,0.179,0.234,0.738,0.234,1.677v10.009c0,0.798-0.058,1.322-0.171,1.573
			c0.069-0.034,0.122-0.072,0.156-0.113c0.156-0.184,0.234-0.744,0.234-1.68V52.419c0-0.939-0.078-1.498-0.234-1.677
			c-0.156-0.179-0.654-0.296-1.493-0.352l-0.006-0.001L41.5,50.39c-0.846,0.056-1.346,0.173-1.499,0.352
			c-0.023,0.028-0.044,0.064-0.063,0.109c0.239-0.118,0.686-0.198,1.342-0.242L41.286,50.609z M27.625,50.962
			c0.156,0.179,0.234,0.738,0.234,1.677v10.009c0,0.798-0.057,1.322-0.171,1.573c0.069-0.034,0.121-0.072,0.156-0.113
			c0.156-0.184,0.234-0.744,0.234-1.68V52.419c0-0.939-0.078-1.498-0.234-1.677c-0.156-0.179-0.654-0.296-1.493-0.352l-0.198-0.02
			v-0.425h-0.052v0.662l0.031,0.003C26.972,50.666,27.47,50.783,27.625,50.962z M49.312,56.634c0.031-0.008,0.059-0.017,0.08-0.027
			c0.14-0.065,0.224-0.382,0.252-0.951h-0.206l-0.011,0.187C49.412,56.206,49.373,56.469,49.312,56.634z M37.368,62.648
			c0,0.802-0.054,1.327-0.164,1.577c0.069-0.034,0.121-0.071,0.156-0.111c0.152-0.181,0.229-0.743,0.229-1.686v-4.859h-7.325v0.22
			h7.104V62.648z M26.153,64.686c-0.006,0-0.014,0.001-0.021,0.001l-0.199,0.01v0.645h6.034v-0.219h-5.815V64.686z M24.999,52.336
			c-0.021-0.257-0.031-0.562-0.031-0.916c0-0.471-0.139-0.728-0.416-0.769c-0.438-0.062-0.94-0.094-1.507-0.094h-2.457v0.219h2.238
			c0.567,0,1.069,0.032,1.506,0.094c0.277,0.042,0.416,0.298,0.416,0.77c0,0.354,0.011,0.659,0.031,0.916l0.011,0.208h1.092v-0.219
			h-0.873L24.999,52.336z M35.663,65.123v-0.438c-0.011,0.001-0.021,0.002-0.032,0.002l-0.187,0.01v0.645h16.752v-0.219H35.663z
			 M31.968,50.59v-0.198c-0.833,0.057-1.325,0.173-1.475,0.351c-0.023,0.028-0.045,0.064-0.063,0.109
			c0.238-0.118,0.686-0.198,1.342-0.242L31.968,50.59z M12.888,49.945h-0.22v2.818h1.093l0.009-0.208c0-0.003,0-0.008,0.001-0.012
			h-0.884V49.945z M18.184,62.648c0,0.798-0.062,1.325-0.185,1.58c0.069-0.035,0.122-0.076,0.159-0.12
			c0.163-0.198,0.245-0.758,0.245-1.68V50.557h-2.456c-0.576,0-1.079,0.032-1.509,0.094c-0.152,0.022-0.262,0.107-0.333,0.251
			c0.036-0.015,0.073-0.027,0.113-0.033c0.43-0.062,0.933-0.094,1.509-0.094h2.456V62.648z M16.228,64.692l-0.219,0.005v0.645h6.544
			v-0.219h-6.325V64.692z"/>
		<g>
			<path fill="#FFFFFF" d="M18.732,50.228h-2.456c-0.576,0-1.079,0.032-1.508,0.095c-0.285,0.041-0.427,0.298-0.427,0.769
				c0,0.354-0.007,0.659-0.021,0.916l-0.01,0.208h-1.093v-2.819h13.213v2.819h-1.093l-0.01-0.208
				c-0.021-0.257-0.031-0.562-0.031-0.916c0-0.471-0.139-0.728-0.417-0.769c-0.437-0.063-0.939-0.095-1.506-0.095h-2.458v11.872
				c0,0.922,0.083,1.482,0.25,1.68s0.662,0.317,1.488,0.359l0.448,0.009v0.646h-6.544v-0.646l0.447-0.009
				c0.825-0.042,1.319-0.162,1.482-0.359s0.246-0.758,0.246-1.68V50.228z"/>
			<path fill="#FFFFFF" d="M30.593,57.24v4.859c0,0.936,0.077,1.496,0.229,1.68c0.153,0.184,0.653,0.304,1.5,0.359l0.197,0.009
				v0.646h-6.034v-0.646l0.198-0.009c0.839-0.056,1.337-0.176,1.493-0.359c0.156-0.184,0.235-0.744,0.235-1.68V52.09
				c0-0.938-0.079-1.498-0.235-1.677c-0.156-0.18-0.653-0.297-1.493-0.353l-0.198-0.019v-0.646h6.034v0.646l-0.197,0.019
				c-0.847,0.056-1.347,0.173-1.5,0.353c-0.152,0.179-0.229,0.739-0.229,1.677v4.255h7.325V52.09c0-0.938-0.079-1.498-0.235-1.677
				c-0.156-0.18-0.657-0.297-1.503-0.353l-0.188-0.019v-0.646h6.035v0.646l-0.197,0.019c-0.847,0.056-1.347,0.173-1.499,0.353
				c-0.153,0.179-0.23,0.739-0.23,1.677v10.009c0,0.936,0.078,1.496,0.23,1.68c0.152,0.184,0.651,0.304,1.499,0.359l0.197,0.009
				v0.646h-6.035v-0.646l0.188-0.009c0.854-0.056,1.356-0.174,1.508-0.354c0.153-0.181,0.23-0.742,0.23-1.686V57.24H30.593z"/>
			<path fill="#FFFFFF" d="M52.744,64.793H41.644v-0.646l0.197-0.009c0.839-0.056,1.337-0.176,1.493-0.359
				c0.156-0.184,0.235-0.744,0.235-1.68V52.09c0-0.938-0.079-1.498-0.235-1.677c-0.156-0.18-0.653-0.297-1.493-0.353l-0.197-0.019
				v-0.646h10.528v2.694h-1.154l-0.02-0.198c-0.056-0.958-0.127-1.473-0.214-1.55c-0.085-0.076-0.643-0.115-1.669-0.115h-3.36v6.16
				l2.819-0.01c0.624,0,1.007-0.033,1.15-0.099c0.142-0.066,0.227-0.394,0.254-0.984l0.011-0.187h0.831v3.381h-0.831l-0.011-0.186
				c-0.028-0.522-0.112-0.833-0.254-0.934c-0.143-0.099-0.526-0.15-1.15-0.15h-2.819v4.88c0,0.805,0.096,1.305,0.285,1.503
				c0.191,0.198,0.686,0.297,1.483,0.297h1.644c1.221,0,1.916-0.061,2.085-0.183c0.171-0.121,0.281-0.639,0.328-1.555l0.011-0.188
				h1.154V64.793z"/>
		</g>
	</g>
	<path opacity="0.4" fill="#F2F2F2" d="M114.421,47.018c0,3.469-0.958,6.23-2.87,8.287c0.116-0.107,0.231-0.216,0.344-0.329
		c2.055-2.078,3.083-4.916,3.083-8.514c0-6.437-3.173-9.655-9.52-9.655h-3.756v0.557h3.199
		C111.249,37.363,114.421,40.581,114.421,47.018z M121.169,56.697c-1.415,1.339-3.184,2.441-5.314,3.305l0.175,0.242
		C118.113,59.309,119.827,58.126,121.169,56.697z M40.05,34.077h-0.557v10.326h4.962l0.019-0.557H40.05V34.077z M51.851,80.544
		l-0.557,0.032v3.116h22.763v-0.556H51.851V80.544z M90.569,38.396c0.437,0.6,0.654,2.39,0.654,5.369v30.238
		c0,2.744-0.189,4.48-0.568,5.216c0.2-0.116,0.353-0.245,0.456-0.386c0.448-0.611,0.67-2.407,0.67-5.386V43.209
		c0-2.98-0.218-4.77-0.655-5.37c-0.436-0.601-1.793-0.99-4.072-1.167l-0.637-0.034v-2.561h-0.004v3.146l0.084,0.005
		C88.777,37.406,90.133,37.795,90.569,38.396z M57.497,74.003c0,2.661-0.199,4.373-0.594,5.138c0.17-0.095,0.302-0.198,0.396-0.308
		c0.502-0.589,0.754-2.384,0.754-5.386V36.806h-8.079c-2.078,0-3.414,0.286-4.006,0.855c-0.085,0.081-0.164,0.189-0.237,0.319
		c0.694-0.412,1.922-0.618,3.687-0.618h8.079V74.003z M260.378,38.396c0.435,0.6,0.651,2.39,0.651,5.369v11.512h0.559V43.209
		c0-2.98-0.218-4.77-0.653-5.37c-0.436-0.601-1.794-0.99-4.072-1.167l-0.638-0.034v-2.561h-0.558v3.117l0.638,0.035
		C258.584,37.406,259.942,37.795,260.378,38.396z M276.706,36.672c-2.301,0.177-3.67,0.567-4.105,1.167
		c-0.036,0.049-0.07,0.109-0.104,0.175c0.667-0.387,1.884-0.649,3.652-0.785l0.604-0.035v-0.525L276.706,36.672z M245.912,37.194
		v-0.525l-0.046,0.002c-2.303,0.177-3.673,0.567-4.108,1.167c-0.036,0.049-0.069,0.109-0.101,0.175
		c0.666-0.387,1.882-0.649,3.651-0.785L245.912,37.194z M261.029,74.003c0,2.744-0.189,4.48-0.567,5.216
		c0.199-0.116,0.353-0.245,0.456-0.386c0.445-0.611,0.67-2.407,0.67-5.386V58.798h-20.482v0.557h19.924V74.003z M229.535,38.396
		c0.437,0.6,0.653,2.39,0.653,5.369v30.238c0,2.744-0.189,4.48-0.567,5.216c0.198-0.116,0.352-0.245,0.454-0.386
		c0.448-0.611,0.671-2.407,0.671-5.386V43.209c0-2.98-0.218-4.77-0.653-5.37c-0.437-0.601-1.795-0.99-4.073-1.167l-0.638-0.034
		v-2.561h-0.004v3.146l0.084,0.005C227.741,37.406,229.1,37.795,229.535,38.396z M256.225,80.545l-0.558,0.03v3.116h21.086v-0.556
		h-20.528V80.545z M173.015,37.839c-0.033,0.046-0.064,0.103-0.095,0.163c0.656-0.38,1.842-0.639,3.562-0.773l0.602-0.035v-0.525
		l-0.045,0.002C174.78,36.849,173.439,37.239,173.015,37.839z M197.004,74.619c0.008-0.368,0.015-0.757,0.015-1.171V36.806h-8.078
		c-2.08,0-3.416,0.286-4.008,0.855c-0.085,0.081-0.163,0.189-0.235,0.319c0.693-0.412,1.921-0.618,3.687-0.618h8.078v36.641
		c0,0.415-0.006,0.803-0.015,1.171h10.438c-0.01-0.18-0.021-0.365-0.032-0.556H197.004z M179.017,34.077h-0.559v10.326h4.963
		l0.021-0.557h-4.425V34.077z M220.384,42.907c-0.022-2.927-0.329-4.676-0.921-5.246c-0.593-0.57-1.928-0.855-4.007-0.855h-8.078
		v0.557h7.522c2.078,0,3.413,0.285,4.006,0.855c0.593,0.569,0.898,2.318,0.921,5.246l0.034,0.939h4.96v-0.557h-4.403L220.384,42.907
		z M225.382,80.545l-0.557,0.03v3.116h21.087v-0.556h-20.53V80.545z M144.775,37.839c-0.036,0.05-0.07,0.11-0.104,0.176
		c0.667-0.387,1.88-0.65,3.646-0.786l0.607-0.035v-0.525l-0.052,0.002C146.579,36.849,145.214,37.239,144.775,37.839z
		 M86.417,80.545l-0.557,0.03v3.116h15.271v-0.556H86.417V80.545z M167.416,64.396V43.209c0-2.98-0.218-4.77-0.654-5.37
		c-0.435-0.601-1.805-0.99-4.106-1.167l-0.604-0.034v-2.561h-0.557v3.117l0.602,0.035c2.303,0.177,3.673,0.566,4.107,1.167
		c0.437,0.6,0.654,2.39,0.654,5.369v21.188c0,4.256-0.516,7.664-1.548,10.222h4.797c0.071-0.182,0.14-0.368,0.204-0.556h-4.443
		C166.899,72.06,167.416,68.653,167.416,64.396z M114.325,74.619l-8.364-13.24h-4.259v0.558h3.702l8.364,13.239h12.045
		c-0.135-0.18-0.275-0.365-0.418-0.556H114.325z M135.608,74.619c-1.232-2.835-1.849-6.287-1.849-10.357V43.443
		c0-2.995-0.226-4.805-0.671-5.43c-0.448-0.626-1.799-1.006-4.056-1.14l-0.637-0.068v-2.729h-0.557v3.286l0.636,0.067
		c2.258,0.134,3.61,0.514,4.056,1.139c0.448,0.625,0.672,2.437,0.672,5.431v20.818c0,4.07,0.618,7.522,1.849,10.356h9.742
		c-0.06-0.181-0.116-0.367-0.172-0.556H135.608z M81.418,42.907c-0.021-2.927-0.329-4.676-0.921-5.246s-1.928-0.855-4.006-0.855
		h-8.078v0.557h7.521c2.08,0,3.415,0.285,4.007,0.855c0.592,0.569,0.9,2.318,0.922,5.246l0.032,0.939h4.961v-0.557h-4.405
		L81.418,42.907z"/>
	<path fill="#FFFFFF" d="M162.749,35.942l0.603,0.034c2.302,0.178,3.672,0.566,4.107,1.167c0.436,0.6,0.653,2.39,0.653,5.37V63.7
		c0,4.257-0.517,7.664-1.547,10.222h4.797c1.141-2.959,1.712-6.634,1.712-11.026V42.513c0-2.979,0.212-4.77,0.635-5.37
		c0.427-0.601,1.767-0.989,4.025-1.167l0.602-0.034v-3.118h-15.587V35.942z M40.748,43.149h4.96l0.034-0.938
		c0.023-2.928,0.329-4.677,0.922-5.246c0.592-0.57,1.928-0.855,4.006-0.855h8.079v36.641c0,3.002-0.252,4.797-0.753,5.387
		c-0.503,0.589-2.119,0.972-4.844,1.15l-0.604,0.034v3.118h22.762v-3.118l-0.602-0.034c-2.862-0.201-4.47-0.515-4.829-0.939
		c-0.357-0.425-0.613-2.301-0.771-5.632V36.11h8.079c2.079,0,3.413,0.285,4.006,0.855c0.592,0.569,0.9,2.318,0.921,5.246
		l0.034,0.938h4.961V32.824H40.748V43.149z M129.091,36.11l0.637,0.067c2.258,0.134,3.609,0.514,4.056,1.14
		c0.447,0.625,0.672,2.437,0.672,5.431v20.818c0,4.07,0.617,7.521,1.849,10.356h9.742c-0.821-2.473-1.233-5.791-1.233-9.954V42.513
		c0-2.979,0.219-4.77,0.657-5.37c0.439-0.601,1.806-0.989,4.1-1.167l0.607-0.034v-3.118h-21.087V36.11z M179.712,43.149h4.962
		l0.032-0.938c0.025-2.928,0.331-4.677,0.923-5.246c0.592-0.57,1.928-0.855,4.008-0.855h8.078v36.641
		c0,0.414-0.006,0.802-0.016,1.171h10.439c-0.023-0.377-0.045-0.779-0.066-1.204V36.11h8.081c2.078,0,3.413,0.285,4.006,0.855
		c0.592,0.569,0.899,2.318,0.922,5.246l0.033,0.938h4.961V32.824h-46.363V43.149z M116.551,59.305
		c3.194-1.294,5.583-3.125,7.171-5.491c1.585-2.365,2.378-5.255,2.378-8.671c0-8.369-5.118-12.554-15.354-12.554l-3.05,0.067
		l-6.136,0.167H87.112v3.118l0.638,0.034c2.28,0.178,3.637,0.566,4.073,1.167c0.437,0.6,0.654,2.39,0.654,5.37v30.238
		c0,2.98-0.222,4.775-0.669,5.387c-0.448,0.612-1.8,0.996-4.057,1.15l-0.638,0.034v3.118h15.272v-8.518h0.027
		c-0.009-0.369-0.011-0.757-0.011-1.171V60.683h4.256l8.365,13.239h12.044c-0.262-0.349-0.539-0.716-0.828-1.106L116.551,59.305z
		 M112.59,54.279c-2.056,2.079-4.837,3.119-8.347,3.119H102.4V36.11h3.753c6.348,0,9.522,3.219,9.522,9.654
		C115.675,49.362,114.647,52.201,112.59,54.279z M273.295,37.143c0.438-0.601,1.807-0.989,4.107-1.167l0.604-0.034v-3.118h-21.087
		v3.118l0.639,0.034c2.279,0.178,3.637,0.566,4.072,1.167c0.436,0.6,0.653,2.39,0.653,5.37v12.069h-20.481V42.513
		c0-2.979,0.218-4.77,0.653-5.37c0.437-0.601,1.805-0.989,4.106-1.167l0.604-0.034v-3.118h-21.088v3.118l0.638,0.034
		c2.279,0.178,3.636,0.566,4.071,1.167c0.437,0.6,0.655,2.39,0.655,5.37v30.238c0,2.98-0.225,4.775-0.671,5.387
		c-0.447,0.612-1.799,0.996-4.056,1.15l-0.638,0.034v3.118h21.088v-3.118l-0.604-0.034c-2.281-0.154-3.644-0.539-4.09-1.15
		c-0.447-0.612-0.67-2.407-0.67-5.387V58.102h20.481v14.649c0,2.98-0.223,4.775-0.67,5.387c-0.446,0.612-1.799,0.996-4.056,1.15
		l-0.639,0.034v3.118h21.087v-3.118l-0.604-0.034c-2.28-0.154-3.643-0.539-4.089-1.15c-0.447-0.612-0.672-2.407-0.672-5.387V42.513
		C272.642,39.533,272.859,37.743,273.295,37.143z"/>
	<path opacity="0.4" fill="#F2F2F2" d="M193.686,108.659c0.372,0.314,0.673,2.438,0.904,6.376l0.043,0.813h4.75v-0.558h-4.193
		l-0.043-0.813c-0.23-3.937-0.532-6.061-0.904-6.376c-0.373-0.313-2.668-0.47-6.884-0.47h-13.267v0.557h12.709
		C191.017,108.188,193.312,108.345,193.686,108.659z M262.491,134.706c-1.158,1.08-2.599,1.973-4.327,2.672l0.171,0.242
		C260.019,136.846,261.405,135.877,262.491,134.706z M220.412,152.29c0.68-0.624,1.285-1.365,1.816-2.225
		c1.948-3.146,2.924-7.869,2.924-14.165c0-6.24-0.976-10.915-2.924-14.025c-1.948-3.112-4.881-4.667-8.796-4.667
		c-3.164,0-5.688,1.025-7.574,3.074c1.816-1.679,4.154-2.519,7.018-2.519c3.915,0,6.847,1.557,8.796,4.668
		c1.949,3.109,2.924,7.786,2.924,14.025c0,6.296-0.975,11.019-2.924,14.165C221.289,151.239,220.87,151.795,220.412,152.29z
		 M237.292,153.282c0.199-0.106,0.35-0.226,0.446-0.356c0.366-0.506,0.552-1.988,0.552-4.448v-24.961c0-2.458-0.18-3.937-0.54-4.433
		c-0.359-0.495-1.479-0.816-3.361-0.963l-0.525-0.029v-2.016h-0.557v2.573l0.526,0.028c1.881,0.147,3.002,0.468,3.359,0.964
		c0.362,0.495,0.541,1.974,0.541,4.433v24.961C237.733,151.229,237.586,152.644,237.292,153.282z M271.098,110.833h11.587v-0.006
		h7.146c4.602,0.501,7.994,1.999,10.173,4.496c2.729,3.124,4.093,8.405,4.093,15.843c0,7.459-1.228,13.053-3.684,16.782
		c-0.428,0.648-0.893,1.239-1.394,1.774c0.719-0.673,1.369-1.448,1.951-2.331c2.455-3.729,3.684-9.324,3.684-16.782
		c0-7.438-1.364-12.719-4.092-15.843c-2.181-2.496-5.572-3.995-10.175-4.498h-7.146v0.009h-11.587
		c-0.009-0.002-0.017-0.006-0.025-0.009h-67.354v-2.972h-0.558v3.53h67.354C271.08,110.828,271.089,110.831,271.098,110.833z
		 M272.729,152.63c0.215-0.128,0.377-0.271,0.482-0.427c0.408-0.614,0.613-2.413,0.613-5.399v-30.307
		c0-0.074-0.001-0.146-0.001-0.218h-0.562c0.003,0.251,0.006,0.506,0.006,0.774v30.307
		C273.267,150.158,273.087,151.915,272.729,152.63z M198.198,151.729c-3.708-3.847-5.562-9.09-5.562-15.731
		c0-6.621,1.832-11.846,5.497-15.678c-0.167,0.159-0.332,0.321-0.493,0.488c-3.708,3.838-5.562,9.086-5.562,15.746
		c0,6.642,1.854,11.885,5.562,15.731c3.709,3.848,8.782,5.771,15.221,5.771c6.42,0,11.484-1.923,15.192-5.771
		c0.019-0.018,0.035-0.036,0.052-0.055c-3.658,3.512-8.554,5.269-14.688,5.269C206.979,157.5,201.906,155.577,198.198,151.729z
		 M293.322,156.514h-24.406v-0.039h-7.574l-11.347-17.958h-3.514v0.557h2.958l11.347,17.958h7.572v0.039h24.406
		c5.91,0,10.733-1.945,14.465-5.832C303.578,154.753,298.942,156.514,293.322,156.514z M254.895,133.229
		c1.696-1.715,2.546-4.058,2.546-7.028c0-5.312-2.62-7.971-7.858-7.971h-3.101v0.558h2.542c5.24,0,7.86,2.656,7.86,7.97
		c0,2.837-0.775,5.099-2.324,6.791C254.674,133.446,254.785,133.341,254.895,133.229z M185.688,136.815h-11.597v0.559h11.04
		c1.404,0,2.507,0.061,3.313,0.186c-0.007-0.209-0.01-0.419-0.014-0.63C187.7,136.854,186.788,136.815,185.688,136.815z
		 M233.863,154.429c-0.011,0.002-0.021,0.002-0.03,0.003l-0.526,0.028v2.571h16.382v-0.557h-15.825V154.429z M163.585,108.951
		c0.642,0.738,0.963,3.036,0.963,6.897v41.166c0,3.531-0.27,5.759-0.809,6.689c0.169-0.105,0.303-0.217,0.403-0.336
		c0.641-0.755,0.961-3.06,0.961-6.91v-41.167c0-3.859-0.32-6.158-0.961-6.898c-0.643-0.736-2.69-1.219-6.142-1.446l-0.813-0.087
		v-2.096h-0.557v2.654l0.814,0.085C160.896,107.73,162.943,108.212,163.585,108.951z M157.188,165.415l-0.557,0.03v2.652h25.89
		v-0.557h-25.333V165.415z"/>
	<path opacity="0.4" fill="#F2F2F2" d="M138.07,94.558c0,1.211-0.359,2.207-1.075,2.987c0.052-0.047,0.103-0.096,0.153-0.146
		c0.792-0.797,1.188-1.833,1.188-3.107c0-3.573-2.228-5.36-6.678-5.36v0.27C135.931,89.272,138.07,91.057,138.07,94.558z
		 M128.068,79.809c0.216,0.251,0.326,1.029,0.326,2.335v13.935c0,1.139-0.083,1.877-0.249,2.217
		c0.083-0.044,0.145-0.093,0.189-0.145c0.216-0.256,0.324-1.035,0.324-2.339V81.877c0-1.306-0.108-2.084-0.324-2.334
		c-0.219-0.25-0.91-0.413-2.08-0.49l-0.274-0.028v-0.632h-0.266v0.898l0.274,0.028C127.157,79.396,127.85,79.56,128.068,79.809z
		 M115.481,82.47l3.888,9.315h0.377l-4.075-9.764L115.481,82.47z M136.068,80.284c0.765,0.614,1.146,1.671,1.146,3.17
		c0,1.466-0.354,2.596-1.064,3.388c0.029-0.025,0.059-0.051,0.086-0.078c0.83-0.798,1.245-1.99,1.245-3.577
		c0-1.498-0.382-2.556-1.147-3.17c-0.764-0.614-2.086-0.922-3.967-0.922h-0.709v0.267h0.443
		C133.981,79.363,135.304,79.67,136.068,80.284z M121.206,96.078c0.406,0.945,0.609,1.705,0.609,2.274
		c0,0.03-0.005,0.057-0.014,0.083c0.186-0.089,0.279-0.207,0.279-0.35c0-0.569-0.203-1.328-0.608-2.275l-1.201-2.853h-9.202
		l-0.116,0.267h9.052L121.206,96.078z M170.146,79.29v-0.236c-1.185,0.077-1.884,0.238-2.095,0.481
		c-0.029,0.033-0.057,0.078-0.082,0.131c0.327-0.169,0.964-0.285,1.914-0.348L170.146,79.29z M176.175,79.053l-0.26-0.028v-0.632
		h-0.266v0.898l0.26,0.028c1.178,0.078,1.876,0.241,2.093,0.49c0.218,0.251,0.327,1.029,0.327,2.335v9.806
		c0,1.861-0.091,3.152-0.269,3.875c-0.168,0.681-0.521,1.305-1.054,1.875c0.058-0.052,0.113-0.104,0.169-0.16
		c0.589-0.598,0.972-1.258,1.151-1.981c0.179-0.723,0.268-2.014,0.268-3.875v-9.806c0-1.306-0.109-2.084-0.325-2.334
		C178.052,79.293,177.354,79.13,176.175,79.053z M136.101,88.51c1.217-0.519,2.171-1.147,2.862-1.886
		c-0.772,0.727-1.817,1.34-3.136,1.837C135.92,88.476,136.011,88.493,136.101,88.51z M157.364,81.56
		c1.209,1.822,1.812,4.34,1.812,7.56c0,3.218-0.603,5.735-1.812,7.551c-0.23,0.346-0.477,0.658-0.74,0.937
		c0.365-0.343,0.7-0.744,1.006-1.203c1.209-1.816,1.812-4.334,1.812-7.551c0-3.219-0.603-5.739-1.812-7.56
		c-1.208-1.822-2.88-2.732-5.017-2.732c-1.726,0-3.15,0.596-4.27,1.786c1.077-1.012,2.412-1.519,4.004-1.519
		C154.484,78.827,156.155,79.737,157.364,81.56z M181.899,79.104c-0.82,0.088-1.317,0.232-1.486,0.431
		c-0.028,0.033-0.053,0.076-0.078,0.126c0.25-0.128,0.684-0.225,1.299-0.292v2.947h1.521l0.015-0.267h-1.27V79.104z M189.312,96.079
		c0,1.139-0.09,1.88-0.27,2.226c0.084-0.045,0.148-0.096,0.193-0.153c0.229-0.275,0.343-1.055,0.343-2.339V79.284h-3.42
		c-0.801,0-1.501,0.045-2.101,0.131c-0.202,0.03-0.354,0.139-0.452,0.326c0.057-0.028,0.117-0.05,0.187-0.061
		c0.6-0.086,1.3-0.13,2.1-0.13h3.42V96.079z M186.548,98.926l-0.265,0.006v0.899h9.111v-0.267h-8.847V98.926z M164.646,91.54v-9.662
		c0-1.306-0.11-2.084-0.328-2.334c-0.216-0.25-0.908-0.413-2.078-0.49l-0.276-0.028v-0.632h-0.265v0.898l0.276,0.028
		c1.168,0.078,1.86,0.241,2.078,0.49c0.218,0.251,0.327,1.029,0.327,2.335v9.663c0,5.707,2.655,8.56,7.967,8.56
		c2.472,0,4.335-0.67,5.593-2.014c-1.249,1.166-3.024,1.748-5.326,1.748C167.301,100.1,164.646,97.246,164.646,91.54z
		 M198.774,82.051l-0.015-0.289c-0.028-0.357-0.043-0.782-0.043-1.275c0-0.657-0.193-1.014-0.579-1.072
		c-0.608-0.086-1.308-0.131-2.097-0.131h-3.423v0.267h3.157c0.789,0,1.488,0.044,2.097,0.13c0.387,0.058,0.579,0.416,0.579,1.073
		c0,0.493,0.014,0.917,0.042,1.275l0.016,0.289h1.521v-0.267H198.774z M145.258,97.087c-1.794-2.009-2.69-4.757-2.69-8.242
		c0-3.487,0.896-6.234,2.69-8.242c0.072-0.082,0.147-0.159,0.222-0.237c-0.167,0.161-0.332,0.327-0.489,0.503
		c-1.792,2.008-2.688,4.756-2.688,8.243c0,3.486,0.896,6.233,2.688,8.242c1.793,2.008,4.246,3.013,7.357,3.013
		c2.985,0,5.36-0.925,7.132-2.775c-1.74,1.671-4.028,2.509-6.866,2.509C149.502,100.1,147.05,99.096,145.258,97.087z
		 M105.654,98.919l-0.265,0.013v0.899h5.561v-0.267h-5.296V98.919z M108.653,95.812l7.451-17.696h-0.153l-7.565,17.962
		c-0.525,1.232-0.89,2.019-1.093,2.362c0.065-0.03,0.117-0.064,0.151-0.1C107.603,98.171,108.006,97.329,108.653,95.812z
		 M134.25,99.563h-14.458v-0.632c-0.001,0-0.003,0-0.006,0h-0.26v0.899h14.458c2.442,0,4.258-0.443,5.446-1.332
		c0.225-0.169,0.429-0.354,0.612-0.556c-0.11,0.101-0.224,0.199-0.347,0.29C138.508,99.12,136.692,99.563,134.25,99.563z"/>
	<g>
		<path fill="#FFFFFF" d="M111.336,92.692l-1.239,2.849c-0.477,1.124-0.713,1.874-0.713,2.25c0,0.406,0.622,0.609,1.868,0.609h0.231
			v0.897h-5.562V98.4l0.304-0.016c0.831-0.037,1.325-0.142,1.486-0.311c0.158-0.169,0.562-1.012,1.208-2.527l7.563-17.962h1.009
			l7.521,18.063c0.589,1.294,1.004,2.064,1.246,2.311c0.242,0.245,0.714,0.389,1.419,0.425l0.333,0.016v0.897h-7.953V98.4h0.26
			c1.353,0,2.029-0.193,2.029-0.581c0-0.569-0.203-1.329-0.609-2.274l-1.2-2.853H111.336z M111.801,91.52h8.212l-4.076-9.764
			L111.801,91.52z"/>
		<path fill="#FFFFFF" d="M136.093,88.195c1.764,0.289,3.146,0.94,4.15,1.954c1.001,1.012,1.501,2.269,1.501,3.763
			c0,1.815-0.594,3.165-1.783,4.053c-1.187,0.889-3.003,1.332-5.447,1.332h-8.268V98.4l0.274-0.016
			c1.168-0.076,1.861-0.243,2.079-0.499c0.216-0.255,0.326-1.035,0.326-2.339V81.611c0-1.305-0.11-2.083-0.326-2.333
			c-0.217-0.25-0.91-0.414-2.079-0.491l-0.274-0.028V77.86h8.659c1.938,0,3.414,0.405,4.431,1.217
			c1.016,0.812,1.523,1.99,1.523,3.537c0,1.256-0.396,2.351-1.191,3.284C138.875,86.83,137.682,87.595,136.093,88.195z
			 M131.925,87.695h0.848c1.658,0,2.901-0.399,3.73-1.197c0.83-0.798,1.245-1.99,1.245-3.577c0-1.499-0.382-2.556-1.146-3.17
			c-0.765-0.615-2.087-0.922-3.968-0.922h-0.708V87.695z M131.925,88.666v6.88c0,1.478,0.122,2.278,0.362,2.404
			c0.458,0.251,1.137,0.376,2.041,0.376c1.267,0,2.296-0.397,3.087-1.194c0.791-0.797,1.188-1.833,1.188-3.107
			C138.602,90.452,136.374,88.666,131.925,88.666z"/>
		<path fill="#FFFFFF" d="M152.88,99.833c-3.111,0-5.563-1.003-7.356-3.013c-1.793-2.008-2.689-4.756-2.689-8.241
			c0-3.488,0.896-6.234,2.689-8.244c1.793-2.008,4.246-3.012,7.356-3.012s5.563,1.004,7.355,3.012
			c1.792,2.009,2.69,4.756,2.69,8.244c0,3.485-0.897,6.233-2.69,8.241C158.443,98.83,155.991,99.833,152.88,99.833z M152.88,98.863
			c2.135,0,3.808-0.908,5.017-2.725c1.208-1.817,1.813-4.333,1.813-7.552c0-3.219-0.605-5.738-1.813-7.56
			c-1.209-1.822-2.881-2.732-5.017-2.732c-2.137,0-3.809,0.911-5.017,2.732s-1.813,4.341-1.813,7.56
			c0,3.218,0.605,5.735,1.813,7.552S150.743,98.863,152.88,98.863z"/>
		<path fill="#FFFFFF" d="M162.23,78.758V77.86h8.447v0.897l-0.262,0.028c-1.188,0.077-1.888,0.239-2.1,0.483
			c-0.213,0.245-0.318,1.025-0.318,2.341v9.17c0,2.216,0.057,3.663,0.173,4.337c0.116,0.675,0.406,1.315,0.869,1.923
			c0.937,1.215,2.337,1.822,4.2,1.822c1.748,0,3.148-0.53,4.201-1.589c0.588-0.598,0.973-1.258,1.151-1.981
			c0.179-0.723,0.269-2.014,0.269-3.875v-9.807c0-1.305-0.109-2.083-0.326-2.333c-0.218-0.25-0.915-0.414-2.095-0.491l-0.26-0.028
			V77.86h6.866v0.897l-0.274,0.028c-1.188,0.077-1.886,0.239-2.095,0.483c-0.206,0.245-0.31,1.025-0.31,2.341v8.981
			c0,1.99-0.111,3.448-0.333,4.375c-0.224,0.928-0.668,1.792-1.334,2.592c-1.255,1.517-3.196,2.274-5.822,2.274
			c-5.312,0-7.967-2.854-7.967-8.56v-9.663c0-1.305-0.11-2.083-0.327-2.333c-0.217-0.25-0.909-0.414-2.079-0.491L162.23,78.758z"/>
		<path fill="#FFFFFF" d="M189.843,79.018h-3.419c-0.801,0-1.501,0.044-2.099,0.13c-0.397,0.058-0.596,0.416-0.596,1.072
			c0,0.493-0.008,0.918-0.027,1.276l-0.016,0.289h-1.521V77.86h18.396v3.925h-1.521l-0.014-0.289
			c-0.029-0.358-0.044-0.783-0.044-1.276c0-0.657-0.192-1.015-0.578-1.072c-0.609-0.086-1.309-0.13-2.097-0.13h-3.423v16.528
			c0,1.284,0.116,2.063,0.348,2.339c0.232,0.277,0.923,0.441,2.07,0.499l0.624,0.016v0.897h-9.111V98.4l0.623-0.016
			c1.148-0.058,1.837-0.222,2.063-0.499c0.229-0.275,0.341-1.055,0.341-2.339V79.018z"/>
	</g>
	<path fill="#FFFFFF" d="M120.408,108.11c-3.631-3.757-8.589-5.636-14.875-5.636c-6.304,0-11.271,1.879-14.902,5.636
		c-3.631,3.757-5.446,8.896-5.446,15.417c0,6.502,1.815,11.636,5.446,15.403c3.63,3.766,8.598,5.648,14.902,5.648
		c6.285,0,11.244-1.883,14.875-5.648c3.631-3.768,5.446-8.901,5.446-15.403C125.854,117.007,124.039,111.867,120.408,108.11z
		 M114.16,137.301c-1.909,3.081-4.779,4.623-8.612,4.623c-3.817,0-6.682-1.542-8.6-4.623c-1.917-3.082-2.875-7.704-2.875-13.868
		c0-6.111,0.958-10.688,2.875-13.734c1.917-3.045,4.783-4.568,8.6-4.568c3.833,0,6.704,1.523,8.612,4.568
		c1.907,3.047,2.862,7.623,2.862,13.734C117.021,129.597,116.067,134.219,114.16,137.301z M93.875,147.51
		c-1.332-0.056-2.409-0.469-3.232-1.236c-0.823-0.769-2.594-3.115-5.315-7.038l-12.227-18.56
		c8.596-2.971,12.893-8.859,12.893-17.664c0-10.589-6.482-15.884-19.446-15.884l-3.389,0.084l-7.625,0.213H40.452v2.636l0.808,0.084
		c3.431,0.226,5.464,0.707,6.102,1.44c0.638,0.733,0.958,3.018,0.958,6.852v40.908c0,3.827-0.32,6.117-0.958,6.868
		c-0.638,0.751-2.671,1.24-6.102,1.467l-0.808,0.041v2.638H64.01v-2.638l-0.808-0.041c-2.864-0.198-4.586-0.688-5.167-1.467
		s-0.872-3.068-0.872-6.868v-16.712h7.294l17.073,27.726h16.045v-2.638l-0.852-0.041C95.222,147.623,94.271,147.566,93.875,147.51z
		 M60.368,119.786h-3.12V90.275h5.986c4.976,0,8.495,1.042,10.56,3.125c2.065,2.083,3.1,5.621,3.1,10.61
		C76.894,114.526,71.385,119.786,60.368,119.786z M146.355,122.768c3.179-1.137,5.559-2.573,7.139-4.309
		c1.581-1.733,2.371-3.757,2.371-6.068c0-2.979-0.97-5.211-2.912-6.691c-1.942-1.481-4.855-2.222-8.738-2.222h-18.695v2.52
		l0.514,0.026c1.844,0.144,2.941,0.459,3.293,0.944c0.352,0.484,0.529,1.932,0.529,4.339v24.441c0,2.407-0.181,3.857-0.543,4.352
		c-0.36,0.494-1.454,0.806-3.279,0.931l-0.514,0.026v2.52h18.775c4.426,0,7.741-0.835,9.944-2.506
		c2.203-1.671,3.306-4.167,3.306-7.492c0-2.854-0.932-5.184-2.791-6.99C152.895,124.783,150.095,123.509,146.355,122.768z
		 M137.876,106.132h1.679c2.673,0,4.678,0.625,6.015,1.873c1.337,1.249,2.004,3.122,2.004,5.618c0,2.696-0.667,4.718-2.004,6.066
		c-1.336,1.348-3.351,2.021-6.042,2.021h-1.651V106.132z M147.033,138.51c-1.3,1.372-3.025,2.059-5.175,2.059
		c-1.679,0-2.764-0.293-3.251-0.88s-0.73-1.901-0.73-3.94v-11.381h1.679c2.799,0,5.072,0.798,6.814,2.397
		c1.743,1.598,2.615,3.698,2.615,6.3C148.984,135.321,148.334,137.137,147.033,138.51z M229.308,119.555
		c-3.71-3.836-8.773-5.755-15.192-5.755c-6.439,0-11.513,1.919-15.222,5.755c-3.707,3.839-5.562,9.087-5.562,15.746
		c0,6.642,1.854,11.886,5.562,15.733c3.709,3.846,8.782,5.77,15.222,5.77c6.419,0,11.482-1.924,15.192-5.77
		c3.709-3.848,5.562-9.092,5.562-15.733C234.869,128.642,233.017,123.394,229.308,119.555z M222.925,149.37
		c-1.949,3.148-4.881,4.722-8.796,4.722c-3.898,0-6.825-1.573-8.783-4.722s-2.937-7.87-2.937-14.166
		c0-6.24,0.979-10.916,2.937-14.026s4.885-4.667,8.783-4.667c3.915,0,6.847,1.557,8.796,4.667s2.923,7.786,2.923,14.026
		C225.848,141.5,224.874,146.222,222.925,149.37z M309.661,112.173c-3.815-4.145-9.262-6.217-16.343-6.217l-2.404,0.033
		l-3.486,0.056h-82.457v3.528h67.354c0.008,0.002,0.016,0.005,0.025,0.008h11.588v-0.008h7.146
		c4.603,0.501,7.994,2.001,10.174,4.498c2.728,3.124,4.093,8.404,4.093,15.841c0,7.46-1.228,13.054-3.686,16.783
		c-2.455,3.729-6.149,5.595-11.083,5.595c-2.919,0-4.757-0.354-5.512-1.059s-1.132-2.425-1.132-5.157v-31.048h-9.425
		c0.003,0.25,0.006,0.506,0.006,0.775v30.305c0,2.987-0.204,4.787-0.613,5.399c-0.362,0.544-1.376,0.907-3.039,1.091
		c-0.099-0.052-0.187-0.107-0.261-0.165c-0.527-0.406-1.777-1.938-3.75-4.596l-7.996-11.153c2.635-1.068,4.609-2.579,5.918-4.531
		c1.311-1.953,1.964-4.338,1.964-7.158c0-6.909-4.225-10.363-12.675-10.363l-2.517,0.055l-5.064,0.139h-11.928v2.574l0.526,0.026
		c1.881,0.147,3.003,0.47,3.362,0.965c0.359,0.494,0.539,1.973,0.539,4.433v24.961c0,2.459-0.185,3.941-0.553,4.447
		c-0.37,0.505-1.486,0.821-3.349,0.95l-0.526,0.026v2.573h16.383v-2.573l-0.498-0.026c-1.532-0.092-2.458-0.404-2.781-0.937
		c-0.324-0.531-0.483-2.02-0.483-4.461v-9.963h3.514l11.347,17.96h7.571v0.039h24.408c6.491,0,11.67-2.348,15.536-7.04
		c3.864-4.692,5.797-10.981,5.797-18.866C315.352,122.229,313.454,116.316,309.661,112.173z M255.591,132.534
		c-1.698,1.717-3.995,2.573-6.891,2.573h-1.521v-17.572h3.098c5.24,0,7.86,2.657,7.86,7.971
		C258.137,128.475,257.287,130.818,255.591,132.534z M186.386,132.654h-11.598v-25.72h13.266c4.217,0,6.513,0.157,6.885,0.472
		s0.674,2.438,0.904,6.376l0.043,0.813h4.75v-11.083h-42.751v2.652l0.813,0.085c3.451,0.228,5.499,0.709,6.141,1.449
		c0.641,0.737,0.963,3.035,0.963,6.896v41.166c0,3.851-0.322,6.156-0.963,6.912c-0.642,0.755-2.69,1.247-6.141,1.475l-0.813,0.043
		v2.653h25.89v-2.653l-0.813-0.043c-2.11-0.143-3.224-0.214-3.338-0.214c-1.997,0-3.301-0.52-3.914-1.562
		c-0.614-1.04-0.921-3.244-0.921-6.61v-19.643h11.598c1.403,0,2.505,0.063,3.312,0.187c-0.011-0.331-0.016-0.666-0.016-1.005
		c0-0.953,0.039-1.877,0.114-2.771C188.983,132.611,187.848,132.654,186.386,132.654z"/>
	<g opacity="0.3">
		<rect x="205.172" y="103.362" fill="#F2F2F2" width="87.343" height="0.283"/>
		<rect x="205.172" y="101.972" fill="#F2F2F2" width="87.343" height="0.283"/>
		<rect x="205.172" y="100.579" fill="#F2F2F2" width="87.343" height="0.284"/>
		<rect x="205.172" y="99.188" fill="#F2F2F2" width="87.343" height="0.283"/>
		<rect x="205.172" y="97.795" fill="#F2F2F2" width="87.343" height="0.283"/>
		<rect x="205.172" y="96.403" fill="#F2F2F2" width="87.343" height="0.283"/>
		<rect x="205.172" y="95.011" fill="#F2F2F2" width="87.343" height="0.283"/>
		<rect x="205.172" y="93.62" fill="#F2F2F2" width="87.343" height="0.282"/>
		<rect x="205.172" y="92.228" fill="#F2F2F2" width="87.343" height="0.283"/>
		<rect x="205.172" y="90.836" fill="#F2F2F2" width="87.343" height="0.283"/>
		<rect x="205.172" y="89.444" fill="#F2F2F2" width="87.343" height="0.283"/>
		<rect x="205.172" y="88.052" fill="#F2F2F2" width="87.343" height="0.284"/>
		<rect x="205.172" y="86.66" fill="#F2F2F2" width="87.343" height="0.283"/>
		<rect x="205.172" y="85.269" fill="#F2F2F2" width="87.343" height="0.283"/>
	</g>
	<g opacity="0.3">
		<rect x="39.385" y="167.393" fill="#F2F2F2" width="114.326" height="0.282"/>
		<rect x="39.385" y="165.999" fill="#F2F2F2" width="114.326" height="0.283"/>
		<rect x="39.385" y="164.607" fill="#F2F2F2" width="114.326" height="0.283"/>
		<rect x="39.385" y="163.215" fill="#F2F2F2" width="114.326" height="0.283"/>
		<rect x="39.385" y="161.823" fill="#F2F2F2" width="122.651" height="0.283"/>
		<rect x="39.385" y="160.432" fill="#F2F2F2" width="122.651" height="0.283"/>
		<rect x="39.385" y="159.039" fill="#F2F2F2" width="122.651" height="0.283"/>
		<rect x="39.385" y="157.648" fill="#F2F2F2" width="122.651" height="0.282"/>
		<rect x="39.385" y="156.256" fill="#F2F2F2" width="122.651" height="0.283"/>
		<rect x="39.385" y="154.865" fill="#F2F2F2" width="122.651" height="0.282"/>
		<rect x="39.385" y="153.472" fill="#F2F2F2" width="122.651" height="0.284"/>
	</g>
	<g opacity="0.3">
		<rect x="99.38" y="152.08" fill="#F2F2F2" width="62.656" height="0.284"/>
		<rect x="99.38" y="150.688" fill="#F2F2F2" width="62.656" height="0.281"/>
		<rect x="99.38" y="149.297" fill="#F2F2F2" width="62.656" height="0.283"/>
		<rect x="99.38" y="147.904" fill="#F2F2F2" width="62.656" height="0.283"/>
		<rect x="99.38" y="146.513" fill="#F2F2F2" width="62.656" height="0.283"/>
	</g>
	<g id="Layer_2">
	</g>
</g>
</svg>
